%TF.GenerationSoftware,KiCad,Pcbnew,10.0.1*%
%TF.CreationDate,2026-06-15T10:43:34+01:00*%
%TF.ProjectId,SmartCompass,536d6172-7443-46f6-9d70-6173732e6b69,rev?*%
%TF.SameCoordinates,Original*%
%TF.FileFunction,Soldermask,Bot*%
%TF.FilePolarity,Negative*%
%FSLAX46Y46*%
G04 Gerber Fmt 4.6, Leading zero omitted, Abs format (unit mm)*
G04 Created by KiCad (PCBNEW 10.0.1) date 2026-06-15 10:43:34*
%MOMM*%
%LPD*%
G01*
G04 APERTURE LIST*
G04 Aperture macros list*
%AMRoundRect*
0 Rectangle with rounded corners*
0 $1 Rounding radius*
0 $2 $3 $4 $5 $6 $7 $8 $9 X,Y pos of 4 corners*
0 Add a 4 corners polygon primitive as box body*
4,1,4,$2,$3,$4,$5,$6,$7,$8,$9,$2,$3,0*
0 Add four circle primitives for the rounded corners*
1,1,$1+$1,$2,$3*
1,1,$1+$1,$4,$5*
1,1,$1+$1,$6,$7*
1,1,$1+$1,$8,$9*
0 Add four rect primitives between the rounded corners*
20,1,$1+$1,$2,$3,$4,$5,0*
20,1,$1+$1,$4,$5,$6,$7,0*
20,1,$1+$1,$6,$7,$8,$9,0*
20,1,$1+$1,$8,$9,$2,$3,0*%
G04 Aperture macros list end*
%ADD10R,1.700000X1.700000*%
%ADD11C,1.700000*%
%ADD12RoundRect,0.200000X0.275000X-0.200000X0.275000X0.200000X-0.275000X0.200000X-0.275000X-0.200000X0*%
%ADD13RoundRect,0.225000X-0.225000X-0.250000X0.225000X-0.250000X0.225000X0.250000X-0.225000X0.250000X0*%
%ADD14RoundRect,0.225000X0.225000X0.375000X-0.225000X0.375000X-0.225000X-0.375000X0.225000X-0.375000X0*%
%ADD15RoundRect,0.200000X0.200000X0.275000X-0.200000X0.275000X-0.200000X-0.275000X0.200000X-0.275000X0*%
%ADD16RoundRect,0.060500X-0.181500X0.776500X-0.181500X-0.776500X0.181500X-0.776500X0.181500X0.776500X0*%
%ADD17RoundRect,0.140000X-0.170000X0.140000X-0.170000X-0.140000X0.170000X-0.140000X0.170000X0.140000X0*%
%ADD18RoundRect,0.225000X0.225000X0.250000X-0.225000X0.250000X-0.225000X-0.250000X0.225000X-0.250000X0*%
%ADD19RoundRect,0.102000X-0.660400X-0.279400X0.660400X-0.279400X0.660400X0.279400X-0.660400X0.279400X0*%
%ADD20RoundRect,0.140000X0.170000X-0.140000X0.170000X0.140000X-0.170000X0.140000X-0.170000X-0.140000X0*%
%ADD21RoundRect,0.250000X0.475000X-0.250000X0.475000X0.250000X-0.475000X0.250000X-0.475000X-0.250000X0*%
%ADD22RoundRect,0.200000X-0.275000X0.200000X-0.275000X-0.200000X0.275000X-0.200000X0.275000X0.200000X0*%
%ADD23RoundRect,0.102000X0.850000X-0.300000X0.850000X0.300000X-0.850000X0.300000X-0.850000X-0.300000X0*%
%ADD24RoundRect,0.102000X1.350000X-0.500000X1.350000X0.500000X-1.350000X0.500000X-1.350000X-0.500000X0*%
%ADD25RoundRect,0.102000X0.625000X0.325000X-0.625000X0.325000X-0.625000X-0.325000X0.625000X-0.325000X0*%
%ADD26C,0.854000*%
%ADD27O,1.104000X1.904000*%
%ADD28O,1.104000X2.604000*%
%ADD29RoundRect,0.102000X-0.900000X-0.350000X0.900000X-0.350000X0.900000X0.350000X-0.900000X0.350000X0*%
%ADD30RoundRect,0.102000X-0.900000X-0.400000X0.900000X-0.400000X0.900000X0.400000X-0.900000X0.400000X0*%
%ADD31RoundRect,0.102000X-1.750000X0.500000X-1.750000X-0.500000X1.750000X-0.500000X1.750000X0.500000X0*%
%ADD32RoundRect,0.102000X-1.700000X0.750000X-1.700000X-0.750000X1.700000X-0.750000X1.700000X0.750000X0*%
%ADD33RoundRect,0.225000X-0.225000X-0.375000X0.225000X-0.375000X0.225000X0.375000X-0.225000X0.375000X0*%
%ADD34RoundRect,0.140000X-0.140000X-0.170000X0.140000X-0.170000X0.140000X0.170000X-0.140000X0.170000X0*%
%ADD35RoundRect,0.140000X0.140000X0.170000X-0.140000X0.170000X-0.140000X-0.170000X0.140000X-0.170000X0*%
%ADD36RoundRect,0.225000X0.250000X-0.225000X0.250000X0.225000X-0.250000X0.225000X-0.250000X-0.225000X0*%
%ADD37RoundRect,0.218750X0.218750X0.256250X-0.218750X0.256250X-0.218750X-0.256250X0.218750X-0.256250X0*%
%ADD38RoundRect,0.225000X0.375000X-0.225000X0.375000X0.225000X-0.375000X0.225000X-0.375000X-0.225000X0*%
%ADD39RoundRect,0.102000X-0.635000X-0.279400X0.635000X-0.279400X0.635000X0.279400X-0.635000X0.279400X0*%
%ADD40RoundRect,0.250000X-0.250000X-0.475000X0.250000X-0.475000X0.250000X0.475000X-0.250000X0.475000X0*%
%ADD41RoundRect,0.102000X-0.125000X-0.337500X0.125000X-0.337500X0.125000X0.337500X-0.125000X0.337500X0*%
%ADD42RoundRect,0.102000X-0.287500X-0.125000X0.287500X-0.125000X0.287500X0.125000X-0.287500X0.125000X0*%
%ADD43R,0.600000X2.200000*%
%ADD44RoundRect,0.059250X0.422750X0.177750X-0.422750X0.177750X-0.422750X-0.177750X0.422750X-0.177750X0*%
%ADD45RoundRect,0.102000X0.450000X0.650000X-0.450000X0.650000X-0.450000X-0.650000X0.450000X-0.650000X0*%
%ADD46R,2.700000X0.800000*%
%ADD47RoundRect,0.102000X-0.300000X-0.850000X0.300000X-0.850000X0.300000X0.850000X-0.300000X0.850000X0*%
%ADD48RoundRect,0.102000X-0.500000X-1.350000X0.500000X-1.350000X0.500000X1.350000X-0.500000X1.350000X0*%
G04 APERTURE END LIST*
D10*
%TO.C,J1*%
X96024000Y-80515000D03*
D11*
X96024000Y-83055000D03*
X96024000Y-85595000D03*
X96024000Y-88135000D03*
X96024000Y-90675000D03*
%TD*%
D10*
%TO.C,J2*%
X117724000Y-85515000D03*
D11*
X115184000Y-85515000D03*
X112644000Y-85515000D03*
X110104000Y-85515000D03*
X107564000Y-85515000D03*
X105024000Y-85515000D03*
X102484000Y-85515000D03*
X99944000Y-85515000D03*
%TD*%
D12*
%TO.C,R11*%
X104466787Y-124758114D03*
X104466787Y-123108114D03*
%TD*%
D13*
%TO.C,C46*%
X90225000Y-98000000D03*
X91775000Y-98000000D03*
%TD*%
D14*
%TO.C,D20*%
X86150000Y-99000000D03*
X82850000Y-99000000D03*
%TD*%
D15*
%TO.C,R9*%
X90325000Y-127000000D03*
X88675000Y-127000000D03*
%TD*%
D16*
%TO.C,U7*%
X90000000Y-91700000D03*
X90500000Y-91700000D03*
X91000000Y-91700000D03*
X91500000Y-91700000D03*
X92000000Y-91700000D03*
X92000000Y-96000000D03*
X91500000Y-96000000D03*
X91000000Y-96000000D03*
X90500000Y-96000000D03*
X90000000Y-96000000D03*
%TD*%
D17*
%TO.C,C7*%
X109500000Y-119520000D03*
X109500000Y-120480000D03*
%TD*%
D12*
%TO.C,R4*%
X100024000Y-82665000D03*
X100024000Y-81015000D03*
%TD*%
D18*
%TO.C,C47*%
X88275000Y-91340000D03*
X86725000Y-91340000D03*
%TD*%
D19*
%TO.C,Q1*%
X103000000Y-119430400D03*
X103000000Y-117500000D03*
X105032000Y-118465200D03*
%TD*%
D17*
%TO.C,C33*%
X121000000Y-120020000D03*
X121000000Y-120980000D03*
%TD*%
D20*
%TO.C,C21*%
X79000000Y-79480000D03*
X79000000Y-78520000D03*
%TD*%
D21*
%TO.C,C8*%
X104500000Y-115950000D03*
X104500000Y-114050000D03*
%TD*%
D12*
%TO.C,R16*%
X86113505Y-112121993D03*
X86113505Y-110471993D03*
%TD*%
D22*
%TO.C,R12*%
X99500000Y-117675000D03*
X99500000Y-119325000D03*
%TD*%
%TO.C,R17*%
X93774000Y-106190000D03*
X93774000Y-107840000D03*
%TD*%
D23*
%TO.C,P3*%
X84200000Y-120600000D03*
X84200000Y-119350000D03*
D24*
X81000000Y-122450000D03*
X81000000Y-117500000D03*
%TD*%
D21*
%TO.C,C13*%
X102500000Y-115950000D03*
X102500000Y-114050000D03*
%TD*%
D25*
%TO.C,U3*%
X109750000Y-116060000D03*
X109750000Y-117000000D03*
X109750000Y-117940000D03*
X107250000Y-117940000D03*
X107250000Y-116060000D03*
%TD*%
D22*
%TO.C,R6*%
X102024000Y-98690000D03*
X102024000Y-100340000D03*
%TD*%
D26*
%TO.C,X1*%
X102975000Y-126650001D03*
X102125000Y-126650001D03*
X101275000Y-126650001D03*
X100425000Y-126650001D03*
X99575000Y-126650001D03*
X98725000Y-126650001D03*
X97875000Y-126650001D03*
X97025000Y-126650001D03*
X97025000Y-128000001D03*
X97875000Y-128000001D03*
X98725000Y-128000001D03*
X99575000Y-128000001D03*
X100425000Y-128000001D03*
X101275000Y-128000001D03*
X102125000Y-128000001D03*
X102975000Y-128000001D03*
D27*
X104325000Y-131010001D03*
X95675000Y-131010001D03*
D28*
X104325000Y-127630001D03*
X95675000Y-127630001D03*
%TD*%
D29*
%TO.C,U8*%
X81750000Y-88900000D03*
D30*
X81750000Y-87800000D03*
X81750000Y-86700000D03*
X81750000Y-85600000D03*
X81750000Y-84500000D03*
X81750000Y-83400000D03*
X81750000Y-82300000D03*
X81750000Y-81200000D03*
D29*
X81750000Y-80100000D03*
X91250000Y-80100000D03*
D30*
X91250000Y-81200000D03*
X91250000Y-82300000D03*
X91250000Y-83400000D03*
X91250000Y-84500000D03*
X91250000Y-85600000D03*
X91250000Y-86700000D03*
X91250000Y-87800000D03*
D29*
X91250000Y-88900000D03*
%TD*%
D20*
%TO.C,C20*%
X88500000Y-72980000D03*
X88500000Y-72020000D03*
%TD*%
D31*
%TO.C,BATT1*%
X116375000Y-80000000D03*
X116375000Y-78000000D03*
D32*
X110625000Y-82350000D03*
X110625000Y-75650000D03*
%TD*%
D20*
%TO.C,C23*%
X85825000Y-108480000D03*
X85825000Y-107520000D03*
%TD*%
D33*
%TO.C,D1*%
X95850000Y-122984000D03*
X99150000Y-122984000D03*
%TD*%
D12*
%TO.C,R15*%
X86113505Y-119078860D03*
X86113505Y-117428860D03*
%TD*%
D17*
%TO.C,C32*%
X111000000Y-126520000D03*
X111000000Y-127480000D03*
%TD*%
D34*
%TO.C,C35*%
X96820750Y-104077500D03*
X97780750Y-104077500D03*
%TD*%
D35*
%TO.C,C34*%
X128480000Y-111500000D03*
X127520000Y-111500000D03*
%TD*%
D17*
%TO.C,C17*%
X121213000Y-78307000D03*
X121213000Y-79267000D03*
%TD*%
D36*
%TO.C,C5*%
X101524000Y-82615000D03*
X101524000Y-81065000D03*
%TD*%
D34*
%TO.C,C10*%
X106520000Y-119500000D03*
X107480000Y-119500000D03*
%TD*%
D37*
%TO.C,CHG1*%
X93787500Y-133000000D03*
X92212500Y-133000000D03*
%TD*%
D23*
%TO.C,HAPTIC1*%
X84500000Y-95250000D03*
X84500000Y-94000000D03*
D24*
X81300000Y-97100000D03*
X81300000Y-92150000D03*
%TD*%
D38*
%TO.C,D21*%
X77000000Y-89150000D03*
X77000000Y-85850000D03*
%TD*%
D39*
%TO.C,U4*%
X106204600Y-123439800D03*
X106204600Y-122500000D03*
X106204600Y-121560200D03*
X108795400Y-121560200D03*
X108795400Y-123439800D03*
%TD*%
D34*
%TO.C,C41*%
X77520000Y-103000000D03*
X78480000Y-103000000D03*
%TD*%
D20*
%TO.C,C26*%
X85825000Y-115455000D03*
X85825000Y-114495000D03*
%TD*%
%TO.C,C24*%
X85825000Y-122455000D03*
X85825000Y-121495000D03*
%TD*%
D17*
%TO.C,C14*%
X114000000Y-122020000D03*
X114000000Y-122980000D03*
%TD*%
D40*
%TO.C,C9*%
X92050000Y-127000000D03*
X93950000Y-127000000D03*
%TD*%
D17*
%TO.C,C36*%
X80000000Y-101020000D03*
X80000000Y-101980000D03*
%TD*%
D33*
%TO.C,D19*%
X82850000Y-101500000D03*
X86150000Y-101500000D03*
%TD*%
D41*
%TO.C,U6*%
X95524000Y-108640000D03*
D42*
X95461500Y-107827500D03*
X95461500Y-107327500D03*
X95461500Y-106827500D03*
X95461500Y-106327500D03*
D41*
X95524000Y-105515000D03*
X96024000Y-105515000D03*
X96524000Y-105515000D03*
X97024000Y-105515000D03*
X97524000Y-105515000D03*
X98024000Y-105515000D03*
X98524000Y-105515000D03*
X99024000Y-105515000D03*
X99524000Y-105515000D03*
X100024000Y-105515000D03*
D42*
X100086500Y-106327500D03*
X100086500Y-106827500D03*
X100086500Y-107327500D03*
X100086500Y-107827500D03*
D41*
X100024000Y-108640000D03*
X99524000Y-108640000D03*
X99024000Y-108640000D03*
X98524000Y-108640000D03*
X98024000Y-108640000D03*
X97524000Y-108640000D03*
X97024000Y-108640000D03*
X96524000Y-108640000D03*
X96024000Y-108640000D03*
%TD*%
D12*
%TO.C,R7*%
X101524000Y-107340000D03*
X101524000Y-105690000D03*
%TD*%
D34*
%TO.C,C12*%
X103520000Y-121500000D03*
X104480000Y-121500000D03*
%TD*%
D43*
%TO.C,IC1*%
X114010000Y-97500000D03*
X115280000Y-97500000D03*
X116550000Y-97500000D03*
X117820000Y-97500000D03*
X119090000Y-97500000D03*
X120360000Y-97500000D03*
X121630000Y-97500000D03*
X122900000Y-97500000D03*
X119090000Y-108500000D03*
X117820000Y-108500000D03*
X116550000Y-108500000D03*
X115280000Y-108500000D03*
%TD*%
D21*
%TO.C,C11*%
X100500000Y-115950000D03*
X100500000Y-114050000D03*
%TD*%
D20*
%TO.C,C22*%
X72284000Y-88999000D03*
X72284000Y-88039000D03*
%TD*%
D35*
%TO.C,C30*%
X88980000Y-128500000D03*
X88020000Y-128500000D03*
%TD*%
D23*
%TO.C,P1*%
X84200000Y-106600000D03*
X84200000Y-105350000D03*
D24*
X81000000Y-108450000D03*
X81000000Y-103500000D03*
%TD*%
D12*
%TO.C,R14*%
X86113505Y-105160492D03*
X86113505Y-103510492D03*
%TD*%
D44*
%TO.C,U5*%
X112470000Y-122000000D03*
X112470000Y-122500000D03*
X112470000Y-123000000D03*
X112470000Y-123500000D03*
X110500000Y-123500000D03*
X110500000Y-123000000D03*
X110500000Y-122500000D03*
X110500000Y-122000000D03*
D45*
X111485000Y-122750000D03*
%TD*%
D46*
%TO.C,L1*%
X77500000Y-101600000D03*
X77500000Y-99400000D03*
%TD*%
D20*
%TO.C,C6*%
X99024000Y-92495000D03*
X99024000Y-91535000D03*
%TD*%
D12*
%TO.C,R10*%
X103000000Y-124758114D03*
X103000000Y-123108114D03*
%TD*%
D47*
%TO.C,ONOFF1*%
X90875000Y-124875000D03*
X92125000Y-124875000D03*
D48*
X89025000Y-121675000D03*
X93975000Y-121675000D03*
%TD*%
D23*
%TO.C,P2*%
X84200000Y-113600000D03*
X84200000Y-112350000D03*
D24*
X81000000Y-115450000D03*
X81000000Y-110500000D03*
%TD*%
M02*
