M48
; DRILL file KiCad 10.0.1 date 2026-06-15T10:43:42
; FORMAT={-:-/ absolute / metric / decimal}
; #@! TF.CreationDate,2026-06-15T10:43:42+01:00
; #@! TF.GenerationSoftware,Kicad,Pcbnew,10.0.1
; #@! TF.FileFunction,Plated,1,4,PTH
FMAT,2
METRIC
; #@! TA.AperFunction,Plated,PTH,ViaDrill
T1C0.300
; #@! TA.AperFunction,Plated,PTH,ComponentDrill
T2C0.400
; #@! TA.AperFunction,Plated,PTH,ViaDrill
T3C0.500
; #@! TA.AperFunction,Plated,PTH,ComponentDrill
T4C0.600
; #@! TA.AperFunction,Plated,PTH,ComponentDrill
T5C1.000
%
G90
G05
T1
X71.0Y-112.0
X72.5Y-86.5
X73.25Y-113.311
X77.3Y-93.5
X77.5Y-100.5
X78.67Y-121.152
X79.0Y-96.0
X79.5Y-97.925
X80.751Y-100.251
X81.0Y-74.5
X81.0Y-75.5
X81.0Y-76.5
X81.0Y-77.5
X81.0Y-78.5
X82.0Y-78.5
X82.0Y-105.5
X82.826Y-95.826
X83.0Y-78.517
X83.5Y-98.0
X84.0Y-78.5
X84.0Y-87.3
X84.0Y-114.5
X84.174Y-96.174
X84.2Y-99.471
X84.5Y-81.0
X84.5Y-90.0
X84.5Y-97.0
X84.5Y-102.0
X84.5Y-102.86
X84.5Y-122.0
X84.768Y-97.777
X85.0Y-78.5
X86.0Y-78.5
X86.5Y-113.0
X87.0Y-78.5
X87.051Y-98.35
X87.5Y-85.5
X87.7Y-113.0
X88.0Y-78.5
X88.034Y-70.35
X88.47Y-129.47
X88.5Y-71.0
X88.5Y-124.5
X89.0Y-78.5
X89.0Y-97.0
X89.425Y-95.044
X89.5Y-82.264
X89.796Y-78.517
X90.0Y-81.0
X90.5Y-90.5
X91.02Y-126.225
X91.105Y-98.57
X91.5Y-78.5
X91.5Y-93.5
X91.5Y-94.938
X91.5Y-105.5
X92.0Y-130.5
X92.1Y-94.066
X92.474Y-99.939
X92.5Y-78.5
X92.603Y-90.397
X92.642Y-94.654
X92.924Y-88.924
X93.0Y-79.151
X93.5Y-125.0
X94.0Y-131.5
X94.708Y-106.634
X94.856Y-92.856
X95.5Y-78.5
X96.405Y-93.095
X96.5Y-78.5
X96.5Y-132.0
X96.75Y-122.25
X96.816Y-129.4
X96.924Y-107.806
X97.5Y-78.5
X97.5Y-132.0
X97.524Y-106.606
X97.619Y-88.881
X98.0Y-130.0
X98.173Y-89.539
X98.5Y-78.5
X98.774Y-102.015
X98.778Y-97.261
X98.974Y-82.537
X99.0Y-100.0
X99.0Y-107.206
X99.0Y-116.5
X99.0Y-120.0
X99.5Y-78.5
X99.524Y-97.665
X99.724Y-88.015
X99.935Y-130.491
X99.944Y-92.515
X100.0Y-129.5
X100.024Y-101.515
X100.324Y-93.219
X100.5Y-78.5
X100.5Y-98.6
X100.5Y-113.0
X100.524Y-88.015
X100.535Y-131.399
X100.649Y-99.386
X101.062Y-97.407
X101.136Y-108.752
X101.424Y-101.515
X101.5Y-78.5
X101.524Y-93.75
X101.764Y-97.79
X101.976Y-92.915
X102.0Y-71.5
X102.0Y-88.515
X102.0Y-119.5
X102.0Y-121.5
X102.0Y-125.0
X102.5Y-78.5
X102.5Y-113.0
X102.624Y-101.515
X102.999Y-100.348
X103.0Y-105.0
X103.0Y-106.1
X103.059Y-92.479
X103.074Y-99.051
X103.174Y-93.939
X103.5Y-78.5
X103.524Y-101.515
X103.683Y-97.741
X103.835Y-99.445
X103.872Y-118.6
X103.915Y-86.559
X104.128Y-93.102
X104.308Y-101.355
X104.485Y-100.126
X104.5Y-78.5
X104.5Y-80.5
X104.5Y-99.0
X104.5Y-113.0
X104.569Y-83.765
X104.728Y-92.422
X104.87Y-93.4
X104.943Y-96.637
X105.0Y-87.0
X105.067Y-97.428
X105.106Y-101.417
X105.141Y-102.229
X105.417Y-82.917
X105.5Y-78.5
X105.5Y-107.5
X105.5Y-125.0
X105.824Y-91.977
X106.054Y-104.946
X106.424Y-91.424
X106.5Y-78.5
X106.5Y-115.0
X107.0Y-70.0
X107.0Y-71.0
X107.0Y-72.0
X107.0Y-73.0
X107.0Y-74.0
X107.0Y-75.0
X107.0Y-76.0
X107.0Y-77.0
X107.0Y-78.0
X107.0Y-87.6
X107.024Y-92.2
X107.5Y-69.5
X107.5Y-123.0
X108.0Y-91.5
X108.0Y-122.0
X108.5Y-119.5
X108.524Y-99.515
X108.75Y-120.75
X109.0Y-97.815
X109.732Y-93.694
X110.0Y-104.946
X110.305Y-98.805
X110.4Y-91.2
X110.449Y-99.591
X111.0Y-87.6
X111.0Y-118.0
X111.0Y-120.0
X111.5Y-78.5
X111.9Y-106.146
X111.97Y-120.53
X112.0Y-97.915
X112.03Y-71.03
X112.375Y-95.7
X112.5Y-105.546
X112.72Y-121.28
X113.0Y-95.1
X113.0Y-129.0
X114.5Y-94.6
X115.0Y-76.5
X115.0Y-87.0
X115.0Y-106.5
X115.5Y-90.6
X115.5Y-95.1
X115.5Y-124.5
X116.5Y-76.5
X116.674Y-95.624
X117.5Y-76.5
X117.826Y-95.174
X118.0Y-110.5
X118.268Y-99.257
X119.188Y-78.451
X119.5Y-102.0
X120.0Y-90.0
X120.0Y-122.5
X120.5Y-76.2
X120.5Y-80.0
X120.5Y-95.5
X120.802Y-80.741
X121.1Y-99.5
X121.5Y-76.2
X121.5Y-105.5
X121.5Y-121.5
X121.7Y-89.0
X122.423Y-95.117
X122.5Y-80.0
X123.488Y-92.585
X123.5Y-107.0
X124.0Y-93.2
X124.0Y-94.0
X126.911Y-89.241
X128.0Y-97.0
X129.231Y-87.75
X129.5Y-102.0
X129.5Y-112.0
X130.0Y-104.0
T2
X97.025Y-126.65
X97.025Y-128.0
X97.875Y-126.65
X97.875Y-128.0
X98.725Y-126.65
X98.725Y-128.0
X99.575Y-126.65
X99.575Y-128.0
X100.425Y-126.65
X100.425Y-128.0
X101.275Y-126.65
X101.275Y-128.0
X102.125Y-126.65
X102.125Y-128.0
X102.975Y-126.65
X102.975Y-128.0
T3
X68.5Y-99.0
X69.5Y-101.865
X73.5Y-89.0
X74.0Y-111.5
X76.5Y-103.0
X77.5Y-77.5
X78.0Y-124.5
X78.5Y-83.0
X83.0Y-103.5
X85.0Y-110.5
X85.0Y-117.5
X86.763Y-71.261
X89.1Y-97.943
X90.5Y-128.5
X94.661Y-108.939
X99.044Y-92.515
X99.449Y-115.057
X99.5Y-73.0
X101.0Y-117.0
X102.649Y-97.952
X103.0Y-107.0
X103.0Y-129.5
X105.0Y-88.515
X106.015Y-113.477
X106.376Y-103.121
X107.5Y-121.0
X109.024Y-102.515
X109.547Y-99.29
X109.995Y-70.998
X112.0Y-126.0
X113.5Y-83.5
X115.0Y-122.5
X122.0Y-119.5
X122.5Y-77.5
X122.5Y-99.5
X124.0Y-99.5
X126.5Y-87.0
X128.95Y-109.939
X129.85Y-98.0
T5
X96.024Y-80.515
X96.024Y-83.055
X96.024Y-85.595
X96.024Y-88.135
X96.024Y-90.675
X99.944Y-85.515
X102.484Y-85.515
X105.024Y-85.515
X107.564Y-85.515
X110.104Y-85.515
X112.644Y-85.515
X115.184Y-85.515
X117.724Y-85.515
T4
G00X95.675Y-128.38
M15
G01X95.675Y-126.88
M16
G05
G00X95.675Y-131.41
M15
G01X95.675Y-130.61
M16
G05
G00X104.325Y-128.38
M15
G01X104.325Y-126.88
M16
G05
G00X104.325Y-131.41
M15
G01X104.325Y-130.61
M16
G05
M30
