%TF.GenerationSoftware,KiCad,Pcbnew,10.0.1*%
%TF.CreationDate,2026-06-15T10:43:34+01:00*%
%TF.ProjectId,SmartCompass,536d6172-7443-46f6-9d70-6173732e6b69,rev?*%
%TF.SameCoordinates,Original*%
%TF.FileFunction,Legend,Top*%
%TF.FilePolarity,Positive*%
%FSLAX46Y46*%
G04 Gerber Fmt 4.6, Leading zero omitted, Abs format (unit mm)*
G04 Created by KiCad (PCBNEW 10.0.1) date 2026-06-15 10:43:34*
%MOMM*%
%LPD*%
G01*
G04 APERTURE LIST*
%ADD10C,0.100000*%
%ADD11C,0.150000*%
%ADD12C,0.120336*%
%ADD13C,0.254000*%
%ADD14C,0.127000*%
%ADD15C,0.200000*%
%ADD16C,0.120000*%
%ADD17C,0.152400*%
%ADD18C,0.000000*%
G04 APERTURE END LIST*
D10*
X117181303Y-82696768D02*
X117133684Y-82792006D01*
X117133684Y-82792006D02*
X117133684Y-82934863D01*
X117133684Y-82934863D02*
X117181303Y-83077720D01*
X117181303Y-83077720D02*
X117276541Y-83172958D01*
X117276541Y-83172958D02*
X117371779Y-83220577D01*
X117371779Y-83220577D02*
X117562255Y-83268196D01*
X117562255Y-83268196D02*
X117705112Y-83268196D01*
X117705112Y-83268196D02*
X117895588Y-83220577D01*
X117895588Y-83220577D02*
X117990826Y-83172958D01*
X117990826Y-83172958D02*
X118086065Y-83077720D01*
X118086065Y-83077720D02*
X118133684Y-82934863D01*
X118133684Y-82934863D02*
X118133684Y-82839625D01*
X118133684Y-82839625D02*
X118086065Y-82696768D01*
X118086065Y-82696768D02*
X118038445Y-82649149D01*
X118038445Y-82649149D02*
X117705112Y-82649149D01*
X117705112Y-82649149D02*
X117705112Y-82839625D01*
X118133684Y-82220577D02*
X117133684Y-82220577D01*
X117133684Y-82220577D02*
X117133684Y-81839625D01*
X117133684Y-81839625D02*
X117181303Y-81744387D01*
X117181303Y-81744387D02*
X117228922Y-81696768D01*
X117228922Y-81696768D02*
X117324160Y-81649149D01*
X117324160Y-81649149D02*
X117467017Y-81649149D01*
X117467017Y-81649149D02*
X117562255Y-81696768D01*
X117562255Y-81696768D02*
X117609874Y-81744387D01*
X117609874Y-81744387D02*
X117657493Y-81839625D01*
X117657493Y-81839625D02*
X117657493Y-82220577D01*
X118133684Y-81220577D02*
X117133684Y-81220577D01*
X117133684Y-80553911D02*
X117133684Y-80363435D01*
X117133684Y-80363435D02*
X117181303Y-80268197D01*
X117181303Y-80268197D02*
X117276541Y-80172959D01*
X117276541Y-80172959D02*
X117467017Y-80125340D01*
X117467017Y-80125340D02*
X117800350Y-80125340D01*
X117800350Y-80125340D02*
X117990826Y-80172959D01*
X117990826Y-80172959D02*
X118086065Y-80268197D01*
X118086065Y-80268197D02*
X118133684Y-80363435D01*
X118133684Y-80363435D02*
X118133684Y-80553911D01*
X118133684Y-80553911D02*
X118086065Y-80649149D01*
X118086065Y-80649149D02*
X117990826Y-80744387D01*
X117990826Y-80744387D02*
X117800350Y-80792006D01*
X117800350Y-80792006D02*
X117467017Y-80792006D01*
X117467017Y-80792006D02*
X117276541Y-80744387D01*
X117276541Y-80744387D02*
X117181303Y-80649149D01*
X117181303Y-80649149D02*
X117133684Y-80553911D01*
X117133684Y-79506292D02*
X117133684Y-79411054D01*
X117133684Y-79411054D02*
X117181303Y-79315816D01*
X117181303Y-79315816D02*
X117228922Y-79268197D01*
X117228922Y-79268197D02*
X117324160Y-79220578D01*
X117324160Y-79220578D02*
X117514636Y-79172959D01*
X117514636Y-79172959D02*
X117752731Y-79172959D01*
X117752731Y-79172959D02*
X117943207Y-79220578D01*
X117943207Y-79220578D02*
X118038445Y-79268197D01*
X118038445Y-79268197D02*
X118086065Y-79315816D01*
X118086065Y-79315816D02*
X118133684Y-79411054D01*
X118133684Y-79411054D02*
X118133684Y-79506292D01*
X118133684Y-79506292D02*
X118086065Y-79601530D01*
X118086065Y-79601530D02*
X118038445Y-79649149D01*
X118038445Y-79649149D02*
X117943207Y-79696768D01*
X117943207Y-79696768D02*
X117752731Y-79744387D01*
X117752731Y-79744387D02*
X117514636Y-79744387D01*
X117514636Y-79744387D02*
X117324160Y-79696768D01*
X117324160Y-79696768D02*
X117228922Y-79649149D01*
X117228922Y-79649149D02*
X117181303Y-79601530D01*
X117181303Y-79601530D02*
X117133684Y-79506292D01*
X117133684Y-78268197D02*
X117133684Y-78744387D01*
X117133684Y-78744387D02*
X117609874Y-78792006D01*
X117609874Y-78792006D02*
X117562255Y-78744387D01*
X117562255Y-78744387D02*
X117514636Y-78649149D01*
X117514636Y-78649149D02*
X117514636Y-78411054D01*
X117514636Y-78411054D02*
X117562255Y-78315816D01*
X117562255Y-78315816D02*
X117609874Y-78268197D01*
X117609874Y-78268197D02*
X117705112Y-78220578D01*
X117705112Y-78220578D02*
X117943207Y-78220578D01*
X117943207Y-78220578D02*
X118038445Y-78268197D01*
X118038445Y-78268197D02*
X118086065Y-78315816D01*
X118086065Y-78315816D02*
X118133684Y-78411054D01*
X118133684Y-78411054D02*
X118133684Y-78649149D01*
X118133684Y-78649149D02*
X118086065Y-78744387D01*
X118086065Y-78744387D02*
X118038445Y-78792006D01*
X89387966Y-88441549D02*
X89530823Y-88489168D01*
X89530823Y-88489168D02*
X89768918Y-88489168D01*
X89768918Y-88489168D02*
X89864156Y-88441549D01*
X89864156Y-88441549D02*
X89911775Y-88393929D01*
X89911775Y-88393929D02*
X89959394Y-88298691D01*
X89959394Y-88298691D02*
X89959394Y-88203453D01*
X89959394Y-88203453D02*
X89911775Y-88108215D01*
X89911775Y-88108215D02*
X89864156Y-88060596D01*
X89864156Y-88060596D02*
X89768918Y-88012977D01*
X89768918Y-88012977D02*
X89578442Y-87965358D01*
X89578442Y-87965358D02*
X89483204Y-87917739D01*
X89483204Y-87917739D02*
X89435585Y-87870120D01*
X89435585Y-87870120D02*
X89387966Y-87774882D01*
X89387966Y-87774882D02*
X89387966Y-87679644D01*
X89387966Y-87679644D02*
X89435585Y-87584406D01*
X89435585Y-87584406D02*
X89483204Y-87536787D01*
X89483204Y-87536787D02*
X89578442Y-87489168D01*
X89578442Y-87489168D02*
X89816537Y-87489168D01*
X89816537Y-87489168D02*
X89959394Y-87536787D01*
X90292728Y-87489168D02*
X90530823Y-88489168D01*
X90530823Y-88489168D02*
X90721299Y-87774882D01*
X90721299Y-87774882D02*
X90911775Y-88489168D01*
X90911775Y-88489168D02*
X91149871Y-87489168D01*
X92102251Y-88393929D02*
X92054632Y-88441549D01*
X92054632Y-88441549D02*
X91911775Y-88489168D01*
X91911775Y-88489168D02*
X91816537Y-88489168D01*
X91816537Y-88489168D02*
X91673680Y-88441549D01*
X91673680Y-88441549D02*
X91578442Y-88346310D01*
X91578442Y-88346310D02*
X91530823Y-88251072D01*
X91530823Y-88251072D02*
X91483204Y-88060596D01*
X91483204Y-88060596D02*
X91483204Y-87917739D01*
X91483204Y-87917739D02*
X91530823Y-87727263D01*
X91530823Y-87727263D02*
X91578442Y-87632025D01*
X91578442Y-87632025D02*
X91673680Y-87536787D01*
X91673680Y-87536787D02*
X91816537Y-87489168D01*
X91816537Y-87489168D02*
X91911775Y-87489168D01*
X91911775Y-87489168D02*
X92054632Y-87536787D01*
X92054632Y-87536787D02*
X92102251Y-87584406D01*
X93007013Y-88489168D02*
X92530823Y-88489168D01*
X92530823Y-88489168D02*
X92530823Y-87489168D01*
X93340347Y-88489168D02*
X93340347Y-87489168D01*
X93911775Y-88489168D02*
X93483204Y-87917739D01*
X93911775Y-87489168D02*
X93340347Y-88060596D01*
X89673681Y-91130267D02*
X89816538Y-91177886D01*
X89816538Y-91177886D02*
X90054633Y-91177886D01*
X90054633Y-91177886D02*
X90149871Y-91130267D01*
X90149871Y-91130267D02*
X90197490Y-91082647D01*
X90197490Y-91082647D02*
X90245109Y-90987409D01*
X90245109Y-90987409D02*
X90245109Y-90892171D01*
X90245109Y-90892171D02*
X90197490Y-90796933D01*
X90197490Y-90796933D02*
X90149871Y-90749314D01*
X90149871Y-90749314D02*
X90054633Y-90701695D01*
X90054633Y-90701695D02*
X89864157Y-90654076D01*
X89864157Y-90654076D02*
X89768919Y-90606457D01*
X89768919Y-90606457D02*
X89721300Y-90558838D01*
X89721300Y-90558838D02*
X89673681Y-90463600D01*
X89673681Y-90463600D02*
X89673681Y-90368362D01*
X89673681Y-90368362D02*
X89721300Y-90273124D01*
X89721300Y-90273124D02*
X89768919Y-90225505D01*
X89768919Y-90225505D02*
X89864157Y-90177886D01*
X89864157Y-90177886D02*
X90102252Y-90177886D01*
X90102252Y-90177886D02*
X90245109Y-90225505D01*
X90578443Y-90177886D02*
X90816538Y-91177886D01*
X90816538Y-91177886D02*
X91007014Y-90463600D01*
X91007014Y-90463600D02*
X91197490Y-91177886D01*
X91197490Y-91177886D02*
X91435586Y-90177886D01*
X91816538Y-91177886D02*
X91816538Y-90177886D01*
X91816538Y-90177886D02*
X92054633Y-90177886D01*
X92054633Y-90177886D02*
X92197490Y-90225505D01*
X92197490Y-90225505D02*
X92292728Y-90320743D01*
X92292728Y-90320743D02*
X92340347Y-90415981D01*
X92340347Y-90415981D02*
X92387966Y-90606457D01*
X92387966Y-90606457D02*
X92387966Y-90749314D01*
X92387966Y-90749314D02*
X92340347Y-90939790D01*
X92340347Y-90939790D02*
X92292728Y-91035028D01*
X92292728Y-91035028D02*
X92197490Y-91130267D01*
X92197490Y-91130267D02*
X92054633Y-91177886D01*
X92054633Y-91177886D02*
X91816538Y-91177886D01*
X92816538Y-91177886D02*
X92816538Y-90177886D01*
X93483204Y-90177886D02*
X93673680Y-90177886D01*
X93673680Y-90177886D02*
X93768918Y-90225505D01*
X93768918Y-90225505D02*
X93864156Y-90320743D01*
X93864156Y-90320743D02*
X93911775Y-90511219D01*
X93911775Y-90511219D02*
X93911775Y-90844552D01*
X93911775Y-90844552D02*
X93864156Y-91035028D01*
X93864156Y-91035028D02*
X93768918Y-91130267D01*
X93768918Y-91130267D02*
X93673680Y-91177886D01*
X93673680Y-91177886D02*
X93483204Y-91177886D01*
X93483204Y-91177886D02*
X93387966Y-91130267D01*
X93387966Y-91130267D02*
X93292728Y-91035028D01*
X93292728Y-91035028D02*
X93245109Y-90844552D01*
X93245109Y-90844552D02*
X93245109Y-90511219D01*
X93245109Y-90511219D02*
X93292728Y-90320743D01*
X93292728Y-90320743D02*
X93387966Y-90225505D01*
X93387966Y-90225505D02*
X93483204Y-90177886D01*
X90387965Y-86093533D02*
X90054632Y-85617342D01*
X89816537Y-86093533D02*
X89816537Y-85093533D01*
X89816537Y-85093533D02*
X90197489Y-85093533D01*
X90197489Y-85093533D02*
X90292727Y-85141152D01*
X90292727Y-85141152D02*
X90340346Y-85188771D01*
X90340346Y-85188771D02*
X90387965Y-85284009D01*
X90387965Y-85284009D02*
X90387965Y-85426866D01*
X90387965Y-85426866D02*
X90340346Y-85522104D01*
X90340346Y-85522104D02*
X90292727Y-85569723D01*
X90292727Y-85569723D02*
X90197489Y-85617342D01*
X90197489Y-85617342D02*
X89816537Y-85617342D01*
X90816537Y-85569723D02*
X91149870Y-85569723D01*
X91292727Y-86093533D02*
X90816537Y-86093533D01*
X90816537Y-86093533D02*
X90816537Y-85093533D01*
X90816537Y-85093533D02*
X91292727Y-85093533D01*
X91673680Y-86045914D02*
X91816537Y-86093533D01*
X91816537Y-86093533D02*
X92054632Y-86093533D01*
X92054632Y-86093533D02*
X92149870Y-86045914D01*
X92149870Y-86045914D02*
X92197489Y-85998294D01*
X92197489Y-85998294D02*
X92245108Y-85903056D01*
X92245108Y-85903056D02*
X92245108Y-85807818D01*
X92245108Y-85807818D02*
X92197489Y-85712580D01*
X92197489Y-85712580D02*
X92149870Y-85664961D01*
X92149870Y-85664961D02*
X92054632Y-85617342D01*
X92054632Y-85617342D02*
X91864156Y-85569723D01*
X91864156Y-85569723D02*
X91768918Y-85522104D01*
X91768918Y-85522104D02*
X91721299Y-85474485D01*
X91721299Y-85474485D02*
X91673680Y-85379247D01*
X91673680Y-85379247D02*
X91673680Y-85284009D01*
X91673680Y-85284009D02*
X91721299Y-85188771D01*
X91721299Y-85188771D02*
X91768918Y-85141152D01*
X91768918Y-85141152D02*
X91864156Y-85093533D01*
X91864156Y-85093533D02*
X92102251Y-85093533D01*
X92102251Y-85093533D02*
X92245108Y-85141152D01*
X92673680Y-85569723D02*
X93007013Y-85569723D01*
X93149870Y-86093533D02*
X92673680Y-86093533D01*
X92673680Y-86093533D02*
X92673680Y-85093533D01*
X92673680Y-85093533D02*
X93149870Y-85093533D01*
X93435585Y-85093533D02*
X94007013Y-85093533D01*
X93721299Y-86093533D02*
X93721299Y-85093533D01*
X91816537Y-82654066D02*
X91721299Y-82606447D01*
X91721299Y-82606447D02*
X91578442Y-82606447D01*
X91578442Y-82606447D02*
X91435585Y-82654066D01*
X91435585Y-82654066D02*
X91340347Y-82749304D01*
X91340347Y-82749304D02*
X91292728Y-82844542D01*
X91292728Y-82844542D02*
X91245109Y-83035018D01*
X91245109Y-83035018D02*
X91245109Y-83177875D01*
X91245109Y-83177875D02*
X91292728Y-83368351D01*
X91292728Y-83368351D02*
X91340347Y-83463589D01*
X91340347Y-83463589D02*
X91435585Y-83558828D01*
X91435585Y-83558828D02*
X91578442Y-83606447D01*
X91578442Y-83606447D02*
X91673680Y-83606447D01*
X91673680Y-83606447D02*
X91816537Y-83558828D01*
X91816537Y-83558828D02*
X91864156Y-83511208D01*
X91864156Y-83511208D02*
X91864156Y-83177875D01*
X91864156Y-83177875D02*
X91673680Y-83177875D01*
X92292728Y-83606447D02*
X92292728Y-82606447D01*
X92292728Y-82606447D02*
X92864156Y-83606447D01*
X92864156Y-83606447D02*
X92864156Y-82606447D01*
X93340347Y-83606447D02*
X93340347Y-82606447D01*
X93340347Y-82606447D02*
X93578442Y-82606447D01*
X93578442Y-82606447D02*
X93721299Y-82654066D01*
X93721299Y-82654066D02*
X93816537Y-82749304D01*
X93816537Y-82749304D02*
X93864156Y-82844542D01*
X93864156Y-82844542D02*
X93911775Y-83035018D01*
X93911775Y-83035018D02*
X93911775Y-83177875D01*
X93911775Y-83177875D02*
X93864156Y-83368351D01*
X93864156Y-83368351D02*
X93816537Y-83463589D01*
X93816537Y-83463589D02*
X93721299Y-83558828D01*
X93721299Y-83558828D02*
X93578442Y-83606447D01*
X93578442Y-83606447D02*
X93340347Y-83606447D01*
X93102252Y-80361425D02*
X93864157Y-80361425D01*
X93483204Y-80742378D02*
X93483204Y-79980473D01*
X99080071Y-87245139D02*
X98984833Y-87197520D01*
X98984833Y-87197520D02*
X98841976Y-87197520D01*
X98841976Y-87197520D02*
X98699119Y-87245139D01*
X98699119Y-87245139D02*
X98603881Y-87340377D01*
X98603881Y-87340377D02*
X98556262Y-87435615D01*
X98556262Y-87435615D02*
X98508643Y-87626091D01*
X98508643Y-87626091D02*
X98508643Y-87768948D01*
X98508643Y-87768948D02*
X98556262Y-87959424D01*
X98556262Y-87959424D02*
X98603881Y-88054662D01*
X98603881Y-88054662D02*
X98699119Y-88149901D01*
X98699119Y-88149901D02*
X98841976Y-88197520D01*
X98841976Y-88197520D02*
X98937214Y-88197520D01*
X98937214Y-88197520D02*
X99080071Y-88149901D01*
X99080071Y-88149901D02*
X99127690Y-88102281D01*
X99127690Y-88102281D02*
X99127690Y-87768948D01*
X99127690Y-87768948D02*
X98937214Y-87768948D01*
X99556262Y-88197520D02*
X99556262Y-87197520D01*
X99556262Y-87197520D02*
X100127690Y-88197520D01*
X100127690Y-88197520D02*
X100127690Y-87197520D01*
X100603881Y-88197520D02*
X100603881Y-87197520D01*
X100603881Y-87197520D02*
X100841976Y-87197520D01*
X100841976Y-87197520D02*
X100984833Y-87245139D01*
X100984833Y-87245139D02*
X101080071Y-87340377D01*
X101080071Y-87340377D02*
X101127690Y-87435615D01*
X101127690Y-87435615D02*
X101175309Y-87626091D01*
X101175309Y-87626091D02*
X101175309Y-87768948D01*
X101175309Y-87768948D02*
X101127690Y-87959424D01*
X101127690Y-87959424D02*
X101080071Y-88054662D01*
X101080071Y-88054662D02*
X100984833Y-88149901D01*
X100984833Y-88149901D02*
X100841976Y-88197520D01*
X100841976Y-88197520D02*
X100603881Y-88197520D01*
X102160703Y-87719150D02*
X102922608Y-87719150D01*
X102541655Y-88100103D02*
X102541655Y-87338198D01*
X75642857Y-85542587D02*
X75642857Y-84542587D01*
X75642857Y-84542587D02*
X76023809Y-84542587D01*
X76023809Y-84542587D02*
X76119047Y-84590206D01*
X76119047Y-84590206D02*
X76166666Y-84637825D01*
X76166666Y-84637825D02*
X76214285Y-84733063D01*
X76214285Y-84733063D02*
X76214285Y-84875920D01*
X76214285Y-84875920D02*
X76166666Y-84971158D01*
X76166666Y-84971158D02*
X76119047Y-85018777D01*
X76119047Y-85018777D02*
X76023809Y-85066396D01*
X76023809Y-85066396D02*
X75642857Y-85066396D01*
X76833333Y-84542587D02*
X77023809Y-84542587D01*
X77023809Y-84542587D02*
X77119047Y-84590206D01*
X77119047Y-84590206D02*
X77214285Y-84685444D01*
X77214285Y-84685444D02*
X77261904Y-84875920D01*
X77261904Y-84875920D02*
X77261904Y-85209253D01*
X77261904Y-85209253D02*
X77214285Y-85399729D01*
X77214285Y-85399729D02*
X77119047Y-85494968D01*
X77119047Y-85494968D02*
X77023809Y-85542587D01*
X77023809Y-85542587D02*
X76833333Y-85542587D01*
X76833333Y-85542587D02*
X76738095Y-85494968D01*
X76738095Y-85494968D02*
X76642857Y-85399729D01*
X76642857Y-85399729D02*
X76595238Y-85209253D01*
X76595238Y-85209253D02*
X76595238Y-84875920D01*
X76595238Y-84875920D02*
X76642857Y-84685444D01*
X76642857Y-84685444D02*
X76738095Y-84590206D01*
X76738095Y-84590206D02*
X76833333Y-84542587D01*
X77690476Y-85542587D02*
X77690476Y-84542587D01*
X77690476Y-84542587D02*
X78071428Y-84542587D01*
X78071428Y-84542587D02*
X78166666Y-84590206D01*
X78166666Y-84590206D02*
X78214285Y-84637825D01*
X78214285Y-84637825D02*
X78261904Y-84733063D01*
X78261904Y-84733063D02*
X78261904Y-84875920D01*
X78261904Y-84875920D02*
X78214285Y-84971158D01*
X78214285Y-84971158D02*
X78166666Y-85018777D01*
X78166666Y-85018777D02*
X78071428Y-85066396D01*
X78071428Y-85066396D02*
X77690476Y-85066396D01*
X78690476Y-85447348D02*
X78738095Y-85494968D01*
X78738095Y-85494968D02*
X78690476Y-85542587D01*
X78690476Y-85542587D02*
X78642857Y-85494968D01*
X78642857Y-85494968D02*
X78690476Y-85447348D01*
X78690476Y-85447348D02*
X78690476Y-85542587D01*
X80499999Y-85542587D02*
X80166666Y-85066396D01*
X79928571Y-85542587D02*
X79928571Y-84542587D01*
X79928571Y-84542587D02*
X80309523Y-84542587D01*
X80309523Y-84542587D02*
X80404761Y-84590206D01*
X80404761Y-84590206D02*
X80452380Y-84637825D01*
X80452380Y-84637825D02*
X80499999Y-84733063D01*
X80499999Y-84733063D02*
X80499999Y-84875920D01*
X80499999Y-84875920D02*
X80452380Y-84971158D01*
X80452380Y-84971158D02*
X80404761Y-85018777D01*
X80404761Y-85018777D02*
X80309523Y-85066396D01*
X80309523Y-85066396D02*
X79928571Y-85066396D01*
X80880952Y-84637825D02*
X80928571Y-84590206D01*
X80928571Y-84590206D02*
X81023809Y-84542587D01*
X81023809Y-84542587D02*
X81261904Y-84542587D01*
X81261904Y-84542587D02*
X81357142Y-84590206D01*
X81357142Y-84590206D02*
X81404761Y-84637825D01*
X81404761Y-84637825D02*
X81452380Y-84733063D01*
X81452380Y-84733063D02*
X81452380Y-84828301D01*
X81452380Y-84828301D02*
X81404761Y-84971158D01*
X81404761Y-84971158D02*
X80833333Y-85542587D01*
X80833333Y-85542587D02*
X81452380Y-85542587D01*
X82404761Y-85542587D02*
X81833333Y-85542587D01*
X82119047Y-85542587D02*
X82119047Y-84542587D01*
X82119047Y-84542587D02*
X82023809Y-84685444D01*
X82023809Y-84685444D02*
X81928571Y-84780682D01*
X81928571Y-84780682D02*
X81833333Y-84828301D01*
X76214285Y-87152531D02*
X75880952Y-86676340D01*
X75642857Y-87152531D02*
X75642857Y-86152531D01*
X75642857Y-86152531D02*
X76023809Y-86152531D01*
X76023809Y-86152531D02*
X76119047Y-86200150D01*
X76119047Y-86200150D02*
X76166666Y-86247769D01*
X76166666Y-86247769D02*
X76214285Y-86343007D01*
X76214285Y-86343007D02*
X76214285Y-86485864D01*
X76214285Y-86485864D02*
X76166666Y-86581102D01*
X76166666Y-86581102D02*
X76119047Y-86628721D01*
X76119047Y-86628721D02*
X76023809Y-86676340D01*
X76023809Y-86676340D02*
X75642857Y-86676340D01*
X76642857Y-86628721D02*
X76976190Y-86628721D01*
X77119047Y-87152531D02*
X76642857Y-87152531D01*
X76642857Y-87152531D02*
X76642857Y-86152531D01*
X76642857Y-86152531D02*
X77119047Y-86152531D01*
X77547619Y-87152531D02*
X77547619Y-86152531D01*
X77547619Y-86152531D02*
X77880952Y-86866816D01*
X77880952Y-86866816D02*
X78214285Y-86152531D01*
X78214285Y-86152531D02*
X78214285Y-87152531D01*
X78690476Y-87057292D02*
X78738095Y-87104912D01*
X78738095Y-87104912D02*
X78690476Y-87152531D01*
X78690476Y-87152531D02*
X78642857Y-87104912D01*
X78642857Y-87104912D02*
X78690476Y-87057292D01*
X78690476Y-87057292D02*
X78690476Y-87152531D01*
X80499999Y-87152531D02*
X80166666Y-86676340D01*
X79928571Y-87152531D02*
X79928571Y-86152531D01*
X79928571Y-86152531D02*
X80309523Y-86152531D01*
X80309523Y-86152531D02*
X80404761Y-86200150D01*
X80404761Y-86200150D02*
X80452380Y-86247769D01*
X80452380Y-86247769D02*
X80499999Y-86343007D01*
X80499999Y-86343007D02*
X80499999Y-86485864D01*
X80499999Y-86485864D02*
X80452380Y-86581102D01*
X80452380Y-86581102D02*
X80404761Y-86628721D01*
X80404761Y-86628721D02*
X80309523Y-86676340D01*
X80309523Y-86676340D02*
X79928571Y-86676340D01*
X80880952Y-86247769D02*
X80928571Y-86200150D01*
X80928571Y-86200150D02*
X81023809Y-86152531D01*
X81023809Y-86152531D02*
X81261904Y-86152531D01*
X81261904Y-86152531D02*
X81357142Y-86200150D01*
X81357142Y-86200150D02*
X81404761Y-86247769D01*
X81404761Y-86247769D02*
X81452380Y-86343007D01*
X81452380Y-86343007D02*
X81452380Y-86438245D01*
X81452380Y-86438245D02*
X81404761Y-86581102D01*
X81404761Y-86581102D02*
X80833333Y-87152531D01*
X80833333Y-87152531D02*
X81452380Y-87152531D01*
X82357142Y-86152531D02*
X81880952Y-86152531D01*
X81880952Y-86152531D02*
X81833333Y-86628721D01*
X81833333Y-86628721D02*
X81880952Y-86581102D01*
X81880952Y-86581102D02*
X81976190Y-86533483D01*
X81976190Y-86533483D02*
X82214285Y-86533483D01*
X82214285Y-86533483D02*
X82309523Y-86581102D01*
X82309523Y-86581102D02*
X82357142Y-86628721D01*
X82357142Y-86628721D02*
X82404761Y-86723959D01*
X82404761Y-86723959D02*
X82404761Y-86962054D01*
X82404761Y-86962054D02*
X82357142Y-87057292D01*
X82357142Y-87057292D02*
X82309523Y-87104912D01*
X82309523Y-87104912D02*
X82214285Y-87152531D01*
X82214285Y-87152531D02*
X81976190Y-87152531D01*
X81976190Y-87152531D02*
X81880952Y-87104912D01*
X81880952Y-87104912D02*
X81833333Y-87057292D01*
X75761904Y-88238665D02*
X75428571Y-88238665D01*
X75428571Y-88762475D02*
X75428571Y-87762475D01*
X75428571Y-87762475D02*
X75904761Y-87762475D01*
X76476190Y-87762475D02*
X76666666Y-87762475D01*
X76666666Y-87762475D02*
X76761904Y-87810094D01*
X76761904Y-87810094D02*
X76857142Y-87905332D01*
X76857142Y-87905332D02*
X76904761Y-88095808D01*
X76904761Y-88095808D02*
X76904761Y-88429141D01*
X76904761Y-88429141D02*
X76857142Y-88619617D01*
X76857142Y-88619617D02*
X76761904Y-88714856D01*
X76761904Y-88714856D02*
X76666666Y-88762475D01*
X76666666Y-88762475D02*
X76476190Y-88762475D01*
X76476190Y-88762475D02*
X76380952Y-88714856D01*
X76380952Y-88714856D02*
X76285714Y-88619617D01*
X76285714Y-88619617D02*
X76238095Y-88429141D01*
X76238095Y-88429141D02*
X76238095Y-88095808D01*
X76238095Y-88095808D02*
X76285714Y-87905332D01*
X76285714Y-87905332D02*
X76380952Y-87810094D01*
X76380952Y-87810094D02*
X76476190Y-87762475D01*
X77904761Y-88762475D02*
X77571428Y-88286284D01*
X77333333Y-88762475D02*
X77333333Y-87762475D01*
X77333333Y-87762475D02*
X77714285Y-87762475D01*
X77714285Y-87762475D02*
X77809523Y-87810094D01*
X77809523Y-87810094D02*
X77857142Y-87857713D01*
X77857142Y-87857713D02*
X77904761Y-87952951D01*
X77904761Y-87952951D02*
X77904761Y-88095808D01*
X77904761Y-88095808D02*
X77857142Y-88191046D01*
X77857142Y-88191046D02*
X77809523Y-88238665D01*
X77809523Y-88238665D02*
X77714285Y-88286284D01*
X77714285Y-88286284D02*
X77333333Y-88286284D01*
X79619047Y-87810094D02*
X79523809Y-87762475D01*
X79523809Y-87762475D02*
X79380952Y-87762475D01*
X79380952Y-87762475D02*
X79238095Y-87810094D01*
X79238095Y-87810094D02*
X79142857Y-87905332D01*
X79142857Y-87905332D02*
X79095238Y-88000570D01*
X79095238Y-88000570D02*
X79047619Y-88191046D01*
X79047619Y-88191046D02*
X79047619Y-88333903D01*
X79047619Y-88333903D02*
X79095238Y-88524379D01*
X79095238Y-88524379D02*
X79142857Y-88619617D01*
X79142857Y-88619617D02*
X79238095Y-88714856D01*
X79238095Y-88714856D02*
X79380952Y-88762475D01*
X79380952Y-88762475D02*
X79476190Y-88762475D01*
X79476190Y-88762475D02*
X79619047Y-88714856D01*
X79619047Y-88714856D02*
X79666666Y-88667236D01*
X79666666Y-88667236D02*
X79666666Y-88333903D01*
X79666666Y-88333903D02*
X79476190Y-88333903D01*
X80095238Y-88762475D02*
X80095238Y-87762475D01*
X80095238Y-87762475D02*
X80666666Y-88762475D01*
X80666666Y-88762475D02*
X80666666Y-87762475D01*
X81095238Y-88714856D02*
X81238095Y-88762475D01*
X81238095Y-88762475D02*
X81476190Y-88762475D01*
X81476190Y-88762475D02*
X81571428Y-88714856D01*
X81571428Y-88714856D02*
X81619047Y-88667236D01*
X81619047Y-88667236D02*
X81666666Y-88571998D01*
X81666666Y-88571998D02*
X81666666Y-88476760D01*
X81666666Y-88476760D02*
X81619047Y-88381522D01*
X81619047Y-88381522D02*
X81571428Y-88333903D01*
X81571428Y-88333903D02*
X81476190Y-88286284D01*
X81476190Y-88286284D02*
X81285714Y-88238665D01*
X81285714Y-88238665D02*
X81190476Y-88191046D01*
X81190476Y-88191046D02*
X81142857Y-88143427D01*
X81142857Y-88143427D02*
X81095238Y-88048189D01*
X81095238Y-88048189D02*
X81095238Y-87952951D01*
X81095238Y-87952951D02*
X81142857Y-87857713D01*
X81142857Y-87857713D02*
X81190476Y-87810094D01*
X81190476Y-87810094D02*
X81285714Y-87762475D01*
X81285714Y-87762475D02*
X81523809Y-87762475D01*
X81523809Y-87762475D02*
X81666666Y-87810094D01*
X82047619Y-88714856D02*
X82190476Y-88762475D01*
X82190476Y-88762475D02*
X82428571Y-88762475D01*
X82428571Y-88762475D02*
X82523809Y-88714856D01*
X82523809Y-88714856D02*
X82571428Y-88667236D01*
X82571428Y-88667236D02*
X82619047Y-88571998D01*
X82619047Y-88571998D02*
X82619047Y-88476760D01*
X82619047Y-88476760D02*
X82571428Y-88381522D01*
X82571428Y-88381522D02*
X82523809Y-88333903D01*
X82523809Y-88333903D02*
X82428571Y-88286284D01*
X82428571Y-88286284D02*
X82238095Y-88238665D01*
X82238095Y-88238665D02*
X82142857Y-88191046D01*
X82142857Y-88191046D02*
X82095238Y-88143427D01*
X82095238Y-88143427D02*
X82047619Y-88048189D01*
X82047619Y-88048189D02*
X82047619Y-87952951D01*
X82047619Y-87952951D02*
X82095238Y-87857713D01*
X82095238Y-87857713D02*
X82142857Y-87810094D01*
X82142857Y-87810094D02*
X82238095Y-87762475D01*
X82238095Y-87762475D02*
X82476190Y-87762475D01*
X82476190Y-87762475D02*
X82619047Y-87810094D01*
X75976190Y-89848609D02*
X76309523Y-89848609D01*
X76452380Y-90372419D02*
X75976190Y-90372419D01*
X75976190Y-90372419D02*
X75976190Y-89372419D01*
X75976190Y-89372419D02*
X76452380Y-89372419D01*
X76785714Y-89372419D02*
X77452380Y-90372419D01*
X77452380Y-89372419D02*
X76785714Y-90372419D01*
X77690476Y-89372419D02*
X78261904Y-89372419D01*
X77976190Y-90372419D02*
X77976190Y-89372419D01*
X78595238Y-90277180D02*
X78642857Y-90324800D01*
X78642857Y-90324800D02*
X78595238Y-90372419D01*
X78595238Y-90372419D02*
X78547619Y-90324800D01*
X78547619Y-90324800D02*
X78595238Y-90277180D01*
X78595238Y-90277180D02*
X78595238Y-90372419D01*
X79785714Y-90086704D02*
X80261904Y-90086704D01*
X79690476Y-90372419D02*
X80023809Y-89372419D01*
X80023809Y-89372419D02*
X80357142Y-90372419D01*
X80690476Y-90372419D02*
X80690476Y-89372419D01*
X80690476Y-89372419D02*
X81261904Y-90372419D01*
X81261904Y-90372419D02*
X81261904Y-89372419D01*
X81595238Y-89372419D02*
X82166666Y-89372419D01*
X81880952Y-90372419D02*
X81880952Y-89372419D01*
X96738095Y-73866816D02*
X97214285Y-73866816D01*
X96642857Y-74152531D02*
X96976190Y-73152531D01*
X96976190Y-73152531D02*
X97309523Y-74152531D01*
X97642857Y-73485864D02*
X97642857Y-74152531D01*
X97642857Y-73581102D02*
X97690476Y-73533483D01*
X97690476Y-73533483D02*
X97785714Y-73485864D01*
X97785714Y-73485864D02*
X97928571Y-73485864D01*
X97928571Y-73485864D02*
X98023809Y-73533483D01*
X98023809Y-73533483D02*
X98071428Y-73628721D01*
X98071428Y-73628721D02*
X98071428Y-74152531D01*
X98404762Y-73485864D02*
X98785714Y-73485864D01*
X98547619Y-73152531D02*
X98547619Y-74009673D01*
X98547619Y-74009673D02*
X98595238Y-74104912D01*
X98595238Y-74104912D02*
X98690476Y-74152531D01*
X98690476Y-74152531D02*
X98785714Y-74152531D01*
X99500000Y-74104912D02*
X99404762Y-74152531D01*
X99404762Y-74152531D02*
X99214286Y-74152531D01*
X99214286Y-74152531D02*
X99119048Y-74104912D01*
X99119048Y-74104912D02*
X99071429Y-74009673D01*
X99071429Y-74009673D02*
X99071429Y-73628721D01*
X99071429Y-73628721D02*
X99119048Y-73533483D01*
X99119048Y-73533483D02*
X99214286Y-73485864D01*
X99214286Y-73485864D02*
X99404762Y-73485864D01*
X99404762Y-73485864D02*
X99500000Y-73533483D01*
X99500000Y-73533483D02*
X99547619Y-73628721D01*
X99547619Y-73628721D02*
X99547619Y-73723959D01*
X99547619Y-73723959D02*
X99071429Y-73819197D01*
X99976191Y-73485864D02*
X99976191Y-74152531D01*
X99976191Y-73581102D02*
X100023810Y-73533483D01*
X100023810Y-73533483D02*
X100119048Y-73485864D01*
X100119048Y-73485864D02*
X100261905Y-73485864D01*
X100261905Y-73485864D02*
X100357143Y-73533483D01*
X100357143Y-73533483D02*
X100404762Y-73628721D01*
X100404762Y-73628721D02*
X100404762Y-74152531D01*
X100880953Y-73485864D02*
X100880953Y-74152531D01*
X100880953Y-73581102D02*
X100928572Y-73533483D01*
X100928572Y-73533483D02*
X101023810Y-73485864D01*
X101023810Y-73485864D02*
X101166667Y-73485864D01*
X101166667Y-73485864D02*
X101261905Y-73533483D01*
X101261905Y-73533483D02*
X101309524Y-73628721D01*
X101309524Y-73628721D02*
X101309524Y-74152531D01*
X102214286Y-74152531D02*
X102214286Y-73628721D01*
X102214286Y-73628721D02*
X102166667Y-73533483D01*
X102166667Y-73533483D02*
X102071429Y-73485864D01*
X102071429Y-73485864D02*
X101880953Y-73485864D01*
X101880953Y-73485864D02*
X101785715Y-73533483D01*
X102214286Y-74104912D02*
X102119048Y-74152531D01*
X102119048Y-74152531D02*
X101880953Y-74152531D01*
X101880953Y-74152531D02*
X101785715Y-74104912D01*
X101785715Y-74104912D02*
X101738096Y-74009673D01*
X101738096Y-74009673D02*
X101738096Y-73914435D01*
X101738096Y-73914435D02*
X101785715Y-73819197D01*
X101785715Y-73819197D02*
X101880953Y-73771578D01*
X101880953Y-73771578D02*
X102119048Y-73771578D01*
X102119048Y-73771578D02*
X102214286Y-73723959D01*
X96357142Y-75762475D02*
X96357142Y-74762475D01*
X96928570Y-75762475D02*
X96499999Y-75191046D01*
X96928570Y-74762475D02*
X96357142Y-75333903D01*
X97738094Y-75714856D02*
X97642856Y-75762475D01*
X97642856Y-75762475D02*
X97452380Y-75762475D01*
X97452380Y-75762475D02*
X97357142Y-75714856D01*
X97357142Y-75714856D02*
X97309523Y-75619617D01*
X97309523Y-75619617D02*
X97309523Y-75238665D01*
X97309523Y-75238665D02*
X97357142Y-75143427D01*
X97357142Y-75143427D02*
X97452380Y-75095808D01*
X97452380Y-75095808D02*
X97642856Y-75095808D01*
X97642856Y-75095808D02*
X97738094Y-75143427D01*
X97738094Y-75143427D02*
X97785713Y-75238665D01*
X97785713Y-75238665D02*
X97785713Y-75333903D01*
X97785713Y-75333903D02*
X97309523Y-75429141D01*
X98595237Y-75714856D02*
X98499999Y-75762475D01*
X98499999Y-75762475D02*
X98309523Y-75762475D01*
X98309523Y-75762475D02*
X98214285Y-75714856D01*
X98214285Y-75714856D02*
X98166666Y-75619617D01*
X98166666Y-75619617D02*
X98166666Y-75238665D01*
X98166666Y-75238665D02*
X98214285Y-75143427D01*
X98214285Y-75143427D02*
X98309523Y-75095808D01*
X98309523Y-75095808D02*
X98499999Y-75095808D01*
X98499999Y-75095808D02*
X98595237Y-75143427D01*
X98595237Y-75143427D02*
X98642856Y-75238665D01*
X98642856Y-75238665D02*
X98642856Y-75333903D01*
X98642856Y-75333903D02*
X98166666Y-75429141D01*
X99071428Y-75095808D02*
X99071428Y-76095808D01*
X99071428Y-75143427D02*
X99166666Y-75095808D01*
X99166666Y-75095808D02*
X99357142Y-75095808D01*
X99357142Y-75095808D02*
X99452380Y-75143427D01*
X99452380Y-75143427D02*
X99499999Y-75191046D01*
X99499999Y-75191046D02*
X99547618Y-75286284D01*
X99547618Y-75286284D02*
X99547618Y-75571998D01*
X99547618Y-75571998D02*
X99499999Y-75667236D01*
X99499999Y-75667236D02*
X99452380Y-75714856D01*
X99452380Y-75714856D02*
X99357142Y-75762475D01*
X99357142Y-75762475D02*
X99166666Y-75762475D01*
X99166666Y-75762475D02*
X99071428Y-75714856D01*
X100119047Y-75762475D02*
X100023809Y-75714856D01*
X100023809Y-75714856D02*
X99976190Y-75667236D01*
X99976190Y-75667236D02*
X99928571Y-75571998D01*
X99928571Y-75571998D02*
X99928571Y-75286284D01*
X99928571Y-75286284D02*
X99976190Y-75191046D01*
X99976190Y-75191046D02*
X100023809Y-75143427D01*
X100023809Y-75143427D02*
X100119047Y-75095808D01*
X100119047Y-75095808D02*
X100261904Y-75095808D01*
X100261904Y-75095808D02*
X100357142Y-75143427D01*
X100357142Y-75143427D02*
X100404761Y-75191046D01*
X100404761Y-75191046D02*
X100452380Y-75286284D01*
X100452380Y-75286284D02*
X100452380Y-75571998D01*
X100452380Y-75571998D02*
X100404761Y-75667236D01*
X100404761Y-75667236D02*
X100357142Y-75714856D01*
X100357142Y-75714856D02*
X100261904Y-75762475D01*
X100261904Y-75762475D02*
X100119047Y-75762475D01*
X101309523Y-75095808D02*
X101309523Y-75762475D01*
X100880952Y-75095808D02*
X100880952Y-75619617D01*
X100880952Y-75619617D02*
X100928571Y-75714856D01*
X100928571Y-75714856D02*
X101023809Y-75762475D01*
X101023809Y-75762475D02*
X101166666Y-75762475D01*
X101166666Y-75762475D02*
X101261904Y-75714856D01*
X101261904Y-75714856D02*
X101309523Y-75667236D01*
X101642857Y-75095808D02*
X102023809Y-75095808D01*
X101785714Y-74762475D02*
X101785714Y-75619617D01*
X101785714Y-75619617D02*
X101833333Y-75714856D01*
X101833333Y-75714856D02*
X101928571Y-75762475D01*
X101928571Y-75762475D02*
X102023809Y-75762475D01*
X97833333Y-76372419D02*
X98499999Y-76372419D01*
X98499999Y-76372419D02*
X97833333Y-77372419D01*
X97833333Y-77372419D02*
X98499999Y-77372419D01*
X99023809Y-77372419D02*
X98928571Y-77324800D01*
X98928571Y-77324800D02*
X98880952Y-77277180D01*
X98880952Y-77277180D02*
X98833333Y-77181942D01*
X98833333Y-77181942D02*
X98833333Y-76896228D01*
X98833333Y-76896228D02*
X98880952Y-76800990D01*
X98880952Y-76800990D02*
X98928571Y-76753371D01*
X98928571Y-76753371D02*
X99023809Y-76705752D01*
X99023809Y-76705752D02*
X99166666Y-76705752D01*
X99166666Y-76705752D02*
X99261904Y-76753371D01*
X99261904Y-76753371D02*
X99309523Y-76800990D01*
X99309523Y-76800990D02*
X99357142Y-76896228D01*
X99357142Y-76896228D02*
X99357142Y-77181942D01*
X99357142Y-77181942D02*
X99309523Y-77277180D01*
X99309523Y-77277180D02*
X99261904Y-77324800D01*
X99261904Y-77324800D02*
X99166666Y-77372419D01*
X99166666Y-77372419D02*
X99023809Y-77372419D01*
X99785714Y-76705752D02*
X99785714Y-77372419D01*
X99785714Y-76800990D02*
X99833333Y-76753371D01*
X99833333Y-76753371D02*
X99928571Y-76705752D01*
X99928571Y-76705752D02*
X100071428Y-76705752D01*
X100071428Y-76705752D02*
X100166666Y-76753371D01*
X100166666Y-76753371D02*
X100214285Y-76848609D01*
X100214285Y-76848609D02*
X100214285Y-77372419D01*
X101071428Y-77324800D02*
X100976190Y-77372419D01*
X100976190Y-77372419D02*
X100785714Y-77372419D01*
X100785714Y-77372419D02*
X100690476Y-77324800D01*
X100690476Y-77324800D02*
X100642857Y-77229561D01*
X100642857Y-77229561D02*
X100642857Y-76848609D01*
X100642857Y-76848609D02*
X100690476Y-76753371D01*
X100690476Y-76753371D02*
X100785714Y-76705752D01*
X100785714Y-76705752D02*
X100976190Y-76705752D01*
X100976190Y-76705752D02*
X101071428Y-76753371D01*
X101071428Y-76753371D02*
X101119047Y-76848609D01*
X101119047Y-76848609D02*
X101119047Y-76943847D01*
X101119047Y-76943847D02*
X100642857Y-77039085D01*
X105402960Y-83243734D02*
X105450579Y-83100877D01*
X105450579Y-83100877D02*
X105450579Y-82862782D01*
X105450579Y-82862782D02*
X105402960Y-82767544D01*
X105402960Y-82767544D02*
X105355340Y-82719925D01*
X105355340Y-82719925D02*
X105260102Y-82672306D01*
X105260102Y-82672306D02*
X105164864Y-82672306D01*
X105164864Y-82672306D02*
X105069626Y-82719925D01*
X105069626Y-82719925D02*
X105022007Y-82767544D01*
X105022007Y-82767544D02*
X104974388Y-82862782D01*
X104974388Y-82862782D02*
X104926769Y-83053258D01*
X104926769Y-83053258D02*
X104879150Y-83148496D01*
X104879150Y-83148496D02*
X104831531Y-83196115D01*
X104831531Y-83196115D02*
X104736293Y-83243734D01*
X104736293Y-83243734D02*
X104641055Y-83243734D01*
X104641055Y-83243734D02*
X104545817Y-83196115D01*
X104545817Y-83196115D02*
X104498198Y-83148496D01*
X104498198Y-83148496D02*
X104450579Y-83053258D01*
X104450579Y-83053258D02*
X104450579Y-82815163D01*
X104450579Y-82815163D02*
X104498198Y-82672306D01*
X105355340Y-81672306D02*
X105402960Y-81719925D01*
X105402960Y-81719925D02*
X105450579Y-81862782D01*
X105450579Y-81862782D02*
X105450579Y-81958020D01*
X105450579Y-81958020D02*
X105402960Y-82100877D01*
X105402960Y-82100877D02*
X105307721Y-82196115D01*
X105307721Y-82196115D02*
X105212483Y-82243734D01*
X105212483Y-82243734D02*
X105022007Y-82291353D01*
X105022007Y-82291353D02*
X104879150Y-82291353D01*
X104879150Y-82291353D02*
X104688674Y-82243734D01*
X104688674Y-82243734D02*
X104593436Y-82196115D01*
X104593436Y-82196115D02*
X104498198Y-82100877D01*
X104498198Y-82100877D02*
X104450579Y-81958020D01*
X104450579Y-81958020D02*
X104450579Y-81862782D01*
X104450579Y-81862782D02*
X104498198Y-81719925D01*
X104498198Y-81719925D02*
X104545817Y-81672306D01*
X105450579Y-80767544D02*
X105450579Y-81243734D01*
X105450579Y-81243734D02*
X104450579Y-81243734D01*
X107955293Y-83256420D02*
X108002912Y-83113563D01*
X108002912Y-83113563D02*
X108002912Y-82875468D01*
X108002912Y-82875468D02*
X107955293Y-82780230D01*
X107955293Y-82780230D02*
X107907673Y-82732611D01*
X107907673Y-82732611D02*
X107812435Y-82684992D01*
X107812435Y-82684992D02*
X107717197Y-82684992D01*
X107717197Y-82684992D02*
X107621959Y-82732611D01*
X107621959Y-82732611D02*
X107574340Y-82780230D01*
X107574340Y-82780230D02*
X107526721Y-82875468D01*
X107526721Y-82875468D02*
X107479102Y-83065944D01*
X107479102Y-83065944D02*
X107431483Y-83161182D01*
X107431483Y-83161182D02*
X107383864Y-83208801D01*
X107383864Y-83208801D02*
X107288626Y-83256420D01*
X107288626Y-83256420D02*
X107193388Y-83256420D01*
X107193388Y-83256420D02*
X107098150Y-83208801D01*
X107098150Y-83208801D02*
X107050531Y-83161182D01*
X107050531Y-83161182D02*
X107002912Y-83065944D01*
X107002912Y-83065944D02*
X107002912Y-82827849D01*
X107002912Y-82827849D02*
X107050531Y-82684992D01*
X108002912Y-82256420D02*
X107002912Y-82256420D01*
X107002912Y-82256420D02*
X107002912Y-82018325D01*
X107002912Y-82018325D02*
X107050531Y-81875468D01*
X107050531Y-81875468D02*
X107145769Y-81780230D01*
X107145769Y-81780230D02*
X107241007Y-81732611D01*
X107241007Y-81732611D02*
X107431483Y-81684992D01*
X107431483Y-81684992D02*
X107574340Y-81684992D01*
X107574340Y-81684992D02*
X107764816Y-81732611D01*
X107764816Y-81732611D02*
X107860054Y-81780230D01*
X107860054Y-81780230D02*
X107955293Y-81875468D01*
X107955293Y-81875468D02*
X108002912Y-82018325D01*
X108002912Y-82018325D02*
X108002912Y-82256420D01*
X107717197Y-81304039D02*
X107717197Y-80827849D01*
X108002912Y-81399277D02*
X107002912Y-81065944D01*
X107002912Y-81065944D02*
X108002912Y-80732611D01*
X109602865Y-82684992D02*
X109555246Y-82780230D01*
X109555246Y-82780230D02*
X109555246Y-82923087D01*
X109555246Y-82923087D02*
X109602865Y-83065944D01*
X109602865Y-83065944D02*
X109698103Y-83161182D01*
X109698103Y-83161182D02*
X109793341Y-83208801D01*
X109793341Y-83208801D02*
X109983817Y-83256420D01*
X109983817Y-83256420D02*
X110126674Y-83256420D01*
X110126674Y-83256420D02*
X110317150Y-83208801D01*
X110317150Y-83208801D02*
X110412388Y-83161182D01*
X110412388Y-83161182D02*
X110507627Y-83065944D01*
X110507627Y-83065944D02*
X110555246Y-82923087D01*
X110555246Y-82923087D02*
X110555246Y-82827849D01*
X110555246Y-82827849D02*
X110507627Y-82684992D01*
X110507627Y-82684992D02*
X110460007Y-82637373D01*
X110460007Y-82637373D02*
X110126674Y-82637373D01*
X110126674Y-82637373D02*
X110126674Y-82827849D01*
X110555246Y-82208801D02*
X109555246Y-82208801D01*
X109555246Y-82208801D02*
X109555246Y-81827849D01*
X109555246Y-81827849D02*
X109602865Y-81732611D01*
X109602865Y-81732611D02*
X109650484Y-81684992D01*
X109650484Y-81684992D02*
X109745722Y-81637373D01*
X109745722Y-81637373D02*
X109888579Y-81637373D01*
X109888579Y-81637373D02*
X109983817Y-81684992D01*
X109983817Y-81684992D02*
X110031436Y-81732611D01*
X110031436Y-81732611D02*
X110079055Y-81827849D01*
X110079055Y-81827849D02*
X110079055Y-82208801D01*
X110555246Y-81208801D02*
X109555246Y-81208801D01*
X109555246Y-80542135D02*
X109555246Y-80351659D01*
X109555246Y-80351659D02*
X109602865Y-80256421D01*
X109602865Y-80256421D02*
X109698103Y-80161183D01*
X109698103Y-80161183D02*
X109888579Y-80113564D01*
X109888579Y-80113564D02*
X110221912Y-80113564D01*
X110221912Y-80113564D02*
X110412388Y-80161183D01*
X110412388Y-80161183D02*
X110507627Y-80256421D01*
X110507627Y-80256421D02*
X110555246Y-80351659D01*
X110555246Y-80351659D02*
X110555246Y-80542135D01*
X110555246Y-80542135D02*
X110507627Y-80637373D01*
X110507627Y-80637373D02*
X110412388Y-80732611D01*
X110412388Y-80732611D02*
X110221912Y-80780230D01*
X110221912Y-80780230D02*
X109888579Y-80780230D01*
X109888579Y-80780230D02*
X109698103Y-80732611D01*
X109698103Y-80732611D02*
X109602865Y-80637373D01*
X109602865Y-80637373D02*
X109555246Y-80542135D01*
X109650484Y-79732611D02*
X109602865Y-79684992D01*
X109602865Y-79684992D02*
X109555246Y-79589754D01*
X109555246Y-79589754D02*
X109555246Y-79351659D01*
X109555246Y-79351659D02*
X109602865Y-79256421D01*
X109602865Y-79256421D02*
X109650484Y-79208802D01*
X109650484Y-79208802D02*
X109745722Y-79161183D01*
X109745722Y-79161183D02*
X109840960Y-79161183D01*
X109840960Y-79161183D02*
X109983817Y-79208802D01*
X109983817Y-79208802D02*
X110555246Y-79780230D01*
X110555246Y-79780230D02*
X110555246Y-79161183D01*
X109555246Y-78542135D02*
X109555246Y-78446897D01*
X109555246Y-78446897D02*
X109602865Y-78351659D01*
X109602865Y-78351659D02*
X109650484Y-78304040D01*
X109650484Y-78304040D02*
X109745722Y-78256421D01*
X109745722Y-78256421D02*
X109936198Y-78208802D01*
X109936198Y-78208802D02*
X110174293Y-78208802D01*
X110174293Y-78208802D02*
X110364769Y-78256421D01*
X110364769Y-78256421D02*
X110460007Y-78304040D01*
X110460007Y-78304040D02*
X110507627Y-78351659D01*
X110507627Y-78351659D02*
X110555246Y-78446897D01*
X110555246Y-78446897D02*
X110555246Y-78542135D01*
X110555246Y-78542135D02*
X110507627Y-78637373D01*
X110507627Y-78637373D02*
X110460007Y-78684992D01*
X110460007Y-78684992D02*
X110364769Y-78732611D01*
X110364769Y-78732611D02*
X110174293Y-78780230D01*
X110174293Y-78780230D02*
X109936198Y-78780230D01*
X109936198Y-78780230D02*
X109745722Y-78732611D01*
X109745722Y-78732611D02*
X109650484Y-78684992D01*
X109650484Y-78684992D02*
X109602865Y-78637373D01*
X109602865Y-78637373D02*
X109555246Y-78542135D01*
X112057781Y-82704476D02*
X112010162Y-82799714D01*
X112010162Y-82799714D02*
X112010162Y-82942571D01*
X112010162Y-82942571D02*
X112057781Y-83085428D01*
X112057781Y-83085428D02*
X112153019Y-83180666D01*
X112153019Y-83180666D02*
X112248257Y-83228285D01*
X112248257Y-83228285D02*
X112438733Y-83275904D01*
X112438733Y-83275904D02*
X112581590Y-83275904D01*
X112581590Y-83275904D02*
X112772066Y-83228285D01*
X112772066Y-83228285D02*
X112867304Y-83180666D01*
X112867304Y-83180666D02*
X112962543Y-83085428D01*
X112962543Y-83085428D02*
X113010162Y-82942571D01*
X113010162Y-82942571D02*
X113010162Y-82847333D01*
X113010162Y-82847333D02*
X112962543Y-82704476D01*
X112962543Y-82704476D02*
X112914923Y-82656857D01*
X112914923Y-82656857D02*
X112581590Y-82656857D01*
X112581590Y-82656857D02*
X112581590Y-82847333D01*
X113010162Y-82228285D02*
X112010162Y-82228285D01*
X112010162Y-82228285D02*
X112010162Y-81847333D01*
X112010162Y-81847333D02*
X112057781Y-81752095D01*
X112057781Y-81752095D02*
X112105400Y-81704476D01*
X112105400Y-81704476D02*
X112200638Y-81656857D01*
X112200638Y-81656857D02*
X112343495Y-81656857D01*
X112343495Y-81656857D02*
X112438733Y-81704476D01*
X112438733Y-81704476D02*
X112486352Y-81752095D01*
X112486352Y-81752095D02*
X112533971Y-81847333D01*
X112533971Y-81847333D02*
X112533971Y-82228285D01*
X113010162Y-81228285D02*
X112010162Y-81228285D01*
X112010162Y-80561619D02*
X112010162Y-80371143D01*
X112010162Y-80371143D02*
X112057781Y-80275905D01*
X112057781Y-80275905D02*
X112153019Y-80180667D01*
X112153019Y-80180667D02*
X112343495Y-80133048D01*
X112343495Y-80133048D02*
X112676828Y-80133048D01*
X112676828Y-80133048D02*
X112867304Y-80180667D01*
X112867304Y-80180667D02*
X112962543Y-80275905D01*
X112962543Y-80275905D02*
X113010162Y-80371143D01*
X113010162Y-80371143D02*
X113010162Y-80561619D01*
X113010162Y-80561619D02*
X112962543Y-80656857D01*
X112962543Y-80656857D02*
X112867304Y-80752095D01*
X112867304Y-80752095D02*
X112676828Y-80799714D01*
X112676828Y-80799714D02*
X112343495Y-80799714D01*
X112343495Y-80799714D02*
X112153019Y-80752095D01*
X112153019Y-80752095D02*
X112057781Y-80656857D01*
X112057781Y-80656857D02*
X112010162Y-80561619D01*
X113010162Y-79180667D02*
X113010162Y-79752095D01*
X113010162Y-79466381D02*
X112010162Y-79466381D01*
X112010162Y-79466381D02*
X112153019Y-79561619D01*
X112153019Y-79561619D02*
X112248257Y-79656857D01*
X112248257Y-79656857D02*
X112295876Y-79752095D01*
X113010162Y-78704476D02*
X113010162Y-78514000D01*
X113010162Y-78514000D02*
X112962543Y-78418762D01*
X112962543Y-78418762D02*
X112914923Y-78371143D01*
X112914923Y-78371143D02*
X112772066Y-78275905D01*
X112772066Y-78275905D02*
X112581590Y-78228286D01*
X112581590Y-78228286D02*
X112200638Y-78228286D01*
X112200638Y-78228286D02*
X112105400Y-78275905D01*
X112105400Y-78275905D02*
X112057781Y-78323524D01*
X112057781Y-78323524D02*
X112010162Y-78418762D01*
X112010162Y-78418762D02*
X112010162Y-78609238D01*
X112010162Y-78609238D02*
X112057781Y-78704476D01*
X112057781Y-78704476D02*
X112105400Y-78752095D01*
X112105400Y-78752095D02*
X112200638Y-78799714D01*
X112200638Y-78799714D02*
X112438733Y-78799714D01*
X112438733Y-78799714D02*
X112533971Y-78752095D01*
X112533971Y-78752095D02*
X112581590Y-78704476D01*
X112581590Y-78704476D02*
X112629209Y-78609238D01*
X112629209Y-78609238D02*
X112629209Y-78418762D01*
X112629209Y-78418762D02*
X112581590Y-78323524D01*
X112581590Y-78323524D02*
X112533971Y-78275905D01*
X112533971Y-78275905D02*
X112438733Y-78228286D01*
X114551664Y-82723959D02*
X114504045Y-82819197D01*
X114504045Y-82819197D02*
X114504045Y-82962054D01*
X114504045Y-82962054D02*
X114551664Y-83104911D01*
X114551664Y-83104911D02*
X114646902Y-83200149D01*
X114646902Y-83200149D02*
X114742140Y-83247768D01*
X114742140Y-83247768D02*
X114932616Y-83295387D01*
X114932616Y-83295387D02*
X115075473Y-83295387D01*
X115075473Y-83295387D02*
X115265949Y-83247768D01*
X115265949Y-83247768D02*
X115361187Y-83200149D01*
X115361187Y-83200149D02*
X115456426Y-83104911D01*
X115456426Y-83104911D02*
X115504045Y-82962054D01*
X115504045Y-82962054D02*
X115504045Y-82866816D01*
X115504045Y-82866816D02*
X115456426Y-82723959D01*
X115456426Y-82723959D02*
X115408806Y-82676340D01*
X115408806Y-82676340D02*
X115075473Y-82676340D01*
X115075473Y-82676340D02*
X115075473Y-82866816D01*
X115504045Y-82247768D02*
X114504045Y-82247768D01*
X114504045Y-82247768D02*
X114504045Y-81866816D01*
X114504045Y-81866816D02*
X114551664Y-81771578D01*
X114551664Y-81771578D02*
X114599283Y-81723959D01*
X114599283Y-81723959D02*
X114694521Y-81676340D01*
X114694521Y-81676340D02*
X114837378Y-81676340D01*
X114837378Y-81676340D02*
X114932616Y-81723959D01*
X114932616Y-81723959D02*
X114980235Y-81771578D01*
X114980235Y-81771578D02*
X115027854Y-81866816D01*
X115027854Y-81866816D02*
X115027854Y-82247768D01*
X115504045Y-81247768D02*
X114504045Y-81247768D01*
X114504045Y-80581102D02*
X114504045Y-80390626D01*
X114504045Y-80390626D02*
X114551664Y-80295388D01*
X114551664Y-80295388D02*
X114646902Y-80200150D01*
X114646902Y-80200150D02*
X114837378Y-80152531D01*
X114837378Y-80152531D02*
X115170711Y-80152531D01*
X115170711Y-80152531D02*
X115361187Y-80200150D01*
X115361187Y-80200150D02*
X115456426Y-80295388D01*
X115456426Y-80295388D02*
X115504045Y-80390626D01*
X115504045Y-80390626D02*
X115504045Y-80581102D01*
X115504045Y-80581102D02*
X115456426Y-80676340D01*
X115456426Y-80676340D02*
X115361187Y-80771578D01*
X115361187Y-80771578D02*
X115170711Y-80819197D01*
X115170711Y-80819197D02*
X114837378Y-80819197D01*
X114837378Y-80819197D02*
X114646902Y-80771578D01*
X114646902Y-80771578D02*
X114551664Y-80676340D01*
X114551664Y-80676340D02*
X114504045Y-80581102D01*
X115504045Y-79200150D02*
X115504045Y-79771578D01*
X115504045Y-79485864D02*
X114504045Y-79485864D01*
X114504045Y-79485864D02*
X114646902Y-79581102D01*
X114646902Y-79581102D02*
X114742140Y-79676340D01*
X114742140Y-79676340D02*
X114789759Y-79771578D01*
X114504045Y-78866816D02*
X114504045Y-78200150D01*
X114504045Y-78200150D02*
X115504045Y-78628721D01*
D11*
X86704093Y-129955510D02*
X87086776Y-129031631D01*
X87086776Y-129031631D02*
X87306748Y-129122746D01*
X87306748Y-129122746D02*
X87420508Y-129221409D01*
X87420508Y-129221409D02*
X87472050Y-129345844D01*
X87472050Y-129345844D02*
X87479598Y-129452055D01*
X87479598Y-129452055D02*
X87450700Y-129646256D01*
X87450700Y-129646256D02*
X87396031Y-129778238D01*
X87396031Y-129778238D02*
X87279145Y-129935992D01*
X87279145Y-129935992D02*
X87198705Y-130005758D01*
X87198705Y-130005758D02*
X87074270Y-130057300D01*
X87074270Y-130057300D02*
X86924064Y-130046626D01*
X86924064Y-130046626D02*
X86704093Y-129955510D01*
X88111909Y-130538647D02*
X87583978Y-130319971D01*
X87847944Y-130429309D02*
X88230627Y-129505429D01*
X88230627Y-129505429D02*
X88087970Y-129600966D01*
X88087970Y-129600966D02*
X87963535Y-129652509D01*
X87963535Y-129652509D02*
X87857324Y-129660057D01*
X89158929Y-130250742D02*
X88903806Y-130866662D01*
X89084741Y-129807673D02*
X88591425Y-130376471D01*
X88591425Y-130376471D02*
X89163350Y-130613371D01*
X86992141Y-71202654D02*
X86609457Y-70278775D01*
X86609457Y-70278775D02*
X86829428Y-70187660D01*
X86829428Y-70187660D02*
X86979634Y-70176985D01*
X86979634Y-70176985D02*
X87104069Y-70228527D01*
X87104069Y-70228527D02*
X87184509Y-70298293D01*
X87184509Y-70298293D02*
X87301395Y-70456047D01*
X87301395Y-70456047D02*
X87356065Y-70588030D01*
X87356065Y-70588030D02*
X87384962Y-70782230D01*
X87384962Y-70782230D02*
X87377414Y-70888441D01*
X87377414Y-70888441D02*
X87325872Y-71012876D01*
X87325872Y-71012876D02*
X87212112Y-71111539D01*
X87212112Y-71111539D02*
X86992141Y-71202654D01*
X87829327Y-70237370D02*
X87723115Y-70229822D01*
X87723115Y-70229822D02*
X87660898Y-70204051D01*
X87660898Y-70204051D02*
X87580458Y-70134286D01*
X87580458Y-70134286D02*
X87562234Y-70090291D01*
X87562234Y-70090291D02*
X87569783Y-69984080D01*
X87569783Y-69984080D02*
X87595554Y-69921862D01*
X87595554Y-69921862D02*
X87665319Y-69841422D01*
X87665319Y-69841422D02*
X87841297Y-69768530D01*
X87841297Y-69768530D02*
X87947508Y-69776078D01*
X87947508Y-69776078D02*
X88009725Y-69801850D01*
X88009725Y-69801850D02*
X88090166Y-69871615D01*
X88090166Y-69871615D02*
X88108389Y-69915609D01*
X88108389Y-69915609D02*
X88100840Y-70021821D01*
X88100840Y-70021821D02*
X88075069Y-70084038D01*
X88075069Y-70084038D02*
X88005304Y-70164478D01*
X88005304Y-70164478D02*
X87829327Y-70237370D01*
X87829327Y-70237370D02*
X87759561Y-70317811D01*
X87759561Y-70317811D02*
X87733790Y-70380028D01*
X87733790Y-70380028D02*
X87726242Y-70486240D01*
X87726242Y-70486240D02*
X87799134Y-70662217D01*
X87799134Y-70662217D02*
X87879574Y-70731982D01*
X87879574Y-70731982D02*
X87941791Y-70757753D01*
X87941791Y-70757753D02*
X88048003Y-70765302D01*
X88048003Y-70765302D02*
X88223980Y-70692410D01*
X88223980Y-70692410D02*
X88293745Y-70611969D01*
X88293745Y-70611969D02*
X88319517Y-70549752D01*
X88319517Y-70549752D02*
X88327065Y-70443540D01*
X88327065Y-70443540D02*
X88254173Y-70267563D01*
X88254173Y-70267563D02*
X88173733Y-70197798D01*
X88173733Y-70197798D02*
X88111515Y-70172027D01*
X88111515Y-70172027D02*
X88005304Y-70164478D01*
X106833333Y-125954819D02*
X106500000Y-125478628D01*
X106261905Y-125954819D02*
X106261905Y-124954819D01*
X106261905Y-124954819D02*
X106642857Y-124954819D01*
X106642857Y-124954819D02*
X106738095Y-125002438D01*
X106738095Y-125002438D02*
X106785714Y-125050057D01*
X106785714Y-125050057D02*
X106833333Y-125145295D01*
X106833333Y-125145295D02*
X106833333Y-125288152D01*
X106833333Y-125288152D02*
X106785714Y-125383390D01*
X106785714Y-125383390D02*
X106738095Y-125431009D01*
X106738095Y-125431009D02*
X106642857Y-125478628D01*
X106642857Y-125478628D02*
X106261905Y-125478628D01*
X107785714Y-125954819D02*
X107214286Y-125954819D01*
X107500000Y-125954819D02*
X107500000Y-124954819D01*
X107500000Y-124954819D02*
X107404762Y-125097676D01*
X107404762Y-125097676D02*
X107309524Y-125192914D01*
X107309524Y-125192914D02*
X107214286Y-125240533D01*
X112383580Y-101506666D02*
X112431200Y-101554285D01*
X112431200Y-101554285D02*
X112478819Y-101697142D01*
X112478819Y-101697142D02*
X112478819Y-101792380D01*
X112478819Y-101792380D02*
X112431200Y-101935237D01*
X112431200Y-101935237D02*
X112335961Y-102030475D01*
X112335961Y-102030475D02*
X112240723Y-102078094D01*
X112240723Y-102078094D02*
X112050247Y-102125713D01*
X112050247Y-102125713D02*
X111907390Y-102125713D01*
X111907390Y-102125713D02*
X111716914Y-102078094D01*
X111716914Y-102078094D02*
X111621676Y-102030475D01*
X111621676Y-102030475D02*
X111526438Y-101935237D01*
X111526438Y-101935237D02*
X111478819Y-101792380D01*
X111478819Y-101792380D02*
X111478819Y-101697142D01*
X111478819Y-101697142D02*
X111526438Y-101554285D01*
X111526438Y-101554285D02*
X111574057Y-101506666D01*
X112478819Y-100554285D02*
X112478819Y-101125713D01*
X112478819Y-100839999D02*
X111478819Y-100839999D01*
X111478819Y-100839999D02*
X111621676Y-100935237D01*
X111621676Y-100935237D02*
X111716914Y-101030475D01*
X111716914Y-101030475D02*
X111764533Y-101125713D01*
X87857142Y-81859580D02*
X87809523Y-81907200D01*
X87809523Y-81907200D02*
X87666666Y-81954819D01*
X87666666Y-81954819D02*
X87571428Y-81954819D01*
X87571428Y-81954819D02*
X87428571Y-81907200D01*
X87428571Y-81907200D02*
X87333333Y-81811961D01*
X87333333Y-81811961D02*
X87285714Y-81716723D01*
X87285714Y-81716723D02*
X87238095Y-81526247D01*
X87238095Y-81526247D02*
X87238095Y-81383390D01*
X87238095Y-81383390D02*
X87285714Y-81192914D01*
X87285714Y-81192914D02*
X87333333Y-81097676D01*
X87333333Y-81097676D02*
X87428571Y-81002438D01*
X87428571Y-81002438D02*
X87571428Y-80954819D01*
X87571428Y-80954819D02*
X87666666Y-80954819D01*
X87666666Y-80954819D02*
X87809523Y-81002438D01*
X87809523Y-81002438D02*
X87857142Y-81050057D01*
X88761904Y-80954819D02*
X88285714Y-80954819D01*
X88285714Y-80954819D02*
X88238095Y-81431009D01*
X88238095Y-81431009D02*
X88285714Y-81383390D01*
X88285714Y-81383390D02*
X88380952Y-81335771D01*
X88380952Y-81335771D02*
X88619047Y-81335771D01*
X88619047Y-81335771D02*
X88714285Y-81383390D01*
X88714285Y-81383390D02*
X88761904Y-81431009D01*
X88761904Y-81431009D02*
X88809523Y-81526247D01*
X88809523Y-81526247D02*
X88809523Y-81764342D01*
X88809523Y-81764342D02*
X88761904Y-81859580D01*
X88761904Y-81859580D02*
X88714285Y-81907200D01*
X88714285Y-81907200D02*
X88619047Y-81954819D01*
X88619047Y-81954819D02*
X88380952Y-81954819D01*
X88380952Y-81954819D02*
X88285714Y-81907200D01*
X88285714Y-81907200D02*
X88238095Y-81859580D01*
X89190476Y-81050057D02*
X89238095Y-81002438D01*
X89238095Y-81002438D02*
X89333333Y-80954819D01*
X89333333Y-80954819D02*
X89571428Y-80954819D01*
X89571428Y-80954819D02*
X89666666Y-81002438D01*
X89666666Y-81002438D02*
X89714285Y-81050057D01*
X89714285Y-81050057D02*
X89761904Y-81145295D01*
X89761904Y-81145295D02*
X89761904Y-81240533D01*
X89761904Y-81240533D02*
X89714285Y-81383390D01*
X89714285Y-81383390D02*
X89142857Y-81954819D01*
X89142857Y-81954819D02*
X89761904Y-81954819D01*
X127357142Y-97359580D02*
X127309523Y-97407200D01*
X127309523Y-97407200D02*
X127166666Y-97454819D01*
X127166666Y-97454819D02*
X127071428Y-97454819D01*
X127071428Y-97454819D02*
X126928571Y-97407200D01*
X126928571Y-97407200D02*
X126833333Y-97311961D01*
X126833333Y-97311961D02*
X126785714Y-97216723D01*
X126785714Y-97216723D02*
X126738095Y-97026247D01*
X126738095Y-97026247D02*
X126738095Y-96883390D01*
X126738095Y-96883390D02*
X126785714Y-96692914D01*
X126785714Y-96692914D02*
X126833333Y-96597676D01*
X126833333Y-96597676D02*
X126928571Y-96502438D01*
X126928571Y-96502438D02*
X127071428Y-96454819D01*
X127071428Y-96454819D02*
X127166666Y-96454819D01*
X127166666Y-96454819D02*
X127309523Y-96502438D01*
X127309523Y-96502438D02*
X127357142Y-96550057D01*
X128309523Y-97454819D02*
X127738095Y-97454819D01*
X128023809Y-97454819D02*
X128023809Y-96454819D01*
X128023809Y-96454819D02*
X127928571Y-96597676D01*
X127928571Y-96597676D02*
X127833333Y-96692914D01*
X127833333Y-96692914D02*
X127738095Y-96740533D01*
X129214285Y-96454819D02*
X128738095Y-96454819D01*
X128738095Y-96454819D02*
X128690476Y-96931009D01*
X128690476Y-96931009D02*
X128738095Y-96883390D01*
X128738095Y-96883390D02*
X128833333Y-96835771D01*
X128833333Y-96835771D02*
X129071428Y-96835771D01*
X129071428Y-96835771D02*
X129166666Y-96883390D01*
X129166666Y-96883390D02*
X129214285Y-96931009D01*
X129214285Y-96931009D02*
X129261904Y-97026247D01*
X129261904Y-97026247D02*
X129261904Y-97264342D01*
X129261904Y-97264342D02*
X129214285Y-97359580D01*
X129214285Y-97359580D02*
X129166666Y-97407200D01*
X129166666Y-97407200D02*
X129071428Y-97454819D01*
X129071428Y-97454819D02*
X128833333Y-97454819D01*
X128833333Y-97454819D02*
X128738095Y-97407200D01*
X128738095Y-97407200D02*
X128690476Y-97359580D01*
X106876209Y-109921981D02*
X106923829Y-109969600D01*
X106923829Y-109969600D02*
X106971448Y-110112457D01*
X106971448Y-110112457D02*
X106971448Y-110207695D01*
X106971448Y-110207695D02*
X106923829Y-110350552D01*
X106923829Y-110350552D02*
X106828590Y-110445790D01*
X106828590Y-110445790D02*
X106733352Y-110493409D01*
X106733352Y-110493409D02*
X106542876Y-110541028D01*
X106542876Y-110541028D02*
X106400019Y-110541028D01*
X106400019Y-110541028D02*
X106209543Y-110493409D01*
X106209543Y-110493409D02*
X106114305Y-110445790D01*
X106114305Y-110445790D02*
X106019067Y-110350552D01*
X106019067Y-110350552D02*
X105971448Y-110207695D01*
X105971448Y-110207695D02*
X105971448Y-110112457D01*
X105971448Y-110112457D02*
X106019067Y-109969600D01*
X106019067Y-109969600D02*
X106066686Y-109921981D01*
X106304781Y-109064838D02*
X106971448Y-109064838D01*
X105923829Y-109302933D02*
X106638114Y-109541028D01*
X106638114Y-109541028D02*
X106638114Y-108921981D01*
X69615114Y-111552197D02*
X70538994Y-111169514D01*
X70538994Y-111169514D02*
X70630109Y-111389485D01*
X70630109Y-111389485D02*
X70640784Y-111539691D01*
X70640784Y-111539691D02*
X70589241Y-111664126D01*
X70589241Y-111664126D02*
X70519476Y-111744566D01*
X70519476Y-111744566D02*
X70361722Y-111861452D01*
X70361722Y-111861452D02*
X70229739Y-111916121D01*
X70229739Y-111916121D02*
X70035539Y-111945019D01*
X70035539Y-111945019D02*
X69929327Y-111937471D01*
X69929327Y-111937471D02*
X69804893Y-111885929D01*
X69804893Y-111885929D02*
X69706230Y-111772169D01*
X69706230Y-111772169D02*
X69615114Y-111552197D01*
X70198251Y-112960014D02*
X69979575Y-112432083D01*
X70088913Y-112696048D02*
X71012793Y-112313365D01*
X71012793Y-112313365D02*
X70844364Y-112280045D01*
X70844364Y-112280045D02*
X70719929Y-112228503D01*
X70719929Y-112228503D02*
X70639489Y-112158737D01*
X71179926Y-112965731D02*
X71242144Y-112991502D01*
X71242144Y-112991502D02*
X71322584Y-113061267D01*
X71322584Y-113061267D02*
X71413699Y-113281239D01*
X71413699Y-113281239D02*
X71406151Y-113387450D01*
X71406151Y-113387450D02*
X71380380Y-113449668D01*
X71380380Y-113449668D02*
X71310614Y-113530108D01*
X71310614Y-113530108D02*
X71222625Y-113566554D01*
X71222625Y-113566554D02*
X71072420Y-113577229D01*
X71072420Y-113577229D02*
X70325812Y-113267974D01*
X70325812Y-113267974D02*
X70562712Y-113839899D01*
X89117193Y-78142857D02*
X88641002Y-78476190D01*
X89117193Y-78714285D02*
X88117193Y-78714285D01*
X88117193Y-78714285D02*
X88117193Y-78333333D01*
X88117193Y-78333333D02*
X88164812Y-78238095D01*
X88164812Y-78238095D02*
X88212431Y-78190476D01*
X88212431Y-78190476D02*
X88307669Y-78142857D01*
X88307669Y-78142857D02*
X88450526Y-78142857D01*
X88450526Y-78142857D02*
X88545764Y-78190476D01*
X88545764Y-78190476D02*
X88593383Y-78238095D01*
X88593383Y-78238095D02*
X88641002Y-78333333D01*
X88641002Y-78333333D02*
X88641002Y-78714285D01*
X88212431Y-77761904D02*
X88164812Y-77714285D01*
X88164812Y-77714285D02*
X88117193Y-77619047D01*
X88117193Y-77619047D02*
X88117193Y-77380952D01*
X88117193Y-77380952D02*
X88164812Y-77285714D01*
X88164812Y-77285714D02*
X88212431Y-77238095D01*
X88212431Y-77238095D02*
X88307669Y-77190476D01*
X88307669Y-77190476D02*
X88402907Y-77190476D01*
X88402907Y-77190476D02*
X88545764Y-77238095D01*
X88545764Y-77238095D02*
X89117193Y-77809523D01*
X89117193Y-77809523D02*
X89117193Y-77190476D01*
X89117193Y-76238095D02*
X89117193Y-76809523D01*
X89117193Y-76523809D02*
X88117193Y-76523809D01*
X88117193Y-76523809D02*
X88260050Y-76619047D01*
X88260050Y-76619047D02*
X88355288Y-76714285D01*
X88355288Y-76714285D02*
X88402907Y-76809523D01*
X89827646Y-97695043D02*
X89875266Y-97742662D01*
X89875266Y-97742662D02*
X89922885Y-97885519D01*
X89922885Y-97885519D02*
X89922885Y-97980757D01*
X89922885Y-97980757D02*
X89875266Y-98123614D01*
X89875266Y-98123614D02*
X89780027Y-98218852D01*
X89780027Y-98218852D02*
X89684789Y-98266471D01*
X89684789Y-98266471D02*
X89494313Y-98314090D01*
X89494313Y-98314090D02*
X89351456Y-98314090D01*
X89351456Y-98314090D02*
X89160980Y-98266471D01*
X89160980Y-98266471D02*
X89065742Y-98218852D01*
X89065742Y-98218852D02*
X88970504Y-98123614D01*
X88970504Y-98123614D02*
X88922885Y-97980757D01*
X88922885Y-97980757D02*
X88922885Y-97885519D01*
X88922885Y-97885519D02*
X88970504Y-97742662D01*
X88970504Y-97742662D02*
X89018123Y-97695043D01*
X88922885Y-97361709D02*
X88922885Y-96742662D01*
X88922885Y-96742662D02*
X89303837Y-97075995D01*
X89303837Y-97075995D02*
X89303837Y-96933138D01*
X89303837Y-96933138D02*
X89351456Y-96837900D01*
X89351456Y-96837900D02*
X89399075Y-96790281D01*
X89399075Y-96790281D02*
X89494313Y-96742662D01*
X89494313Y-96742662D02*
X89732408Y-96742662D01*
X89732408Y-96742662D02*
X89827646Y-96790281D01*
X89827646Y-96790281D02*
X89875266Y-96837900D01*
X89875266Y-96837900D02*
X89922885Y-96933138D01*
X89922885Y-96933138D02*
X89922885Y-97218852D01*
X89922885Y-97218852D02*
X89875266Y-97314090D01*
X89875266Y-97314090D02*
X89827646Y-97361709D01*
X89351456Y-96171233D02*
X89303837Y-96266471D01*
X89303837Y-96266471D02*
X89256218Y-96314090D01*
X89256218Y-96314090D02*
X89160980Y-96361709D01*
X89160980Y-96361709D02*
X89113361Y-96361709D01*
X89113361Y-96361709D02*
X89018123Y-96314090D01*
X89018123Y-96314090D02*
X88970504Y-96266471D01*
X88970504Y-96266471D02*
X88922885Y-96171233D01*
X88922885Y-96171233D02*
X88922885Y-95980757D01*
X88922885Y-95980757D02*
X88970504Y-95885519D01*
X88970504Y-95885519D02*
X89018123Y-95837900D01*
X89018123Y-95837900D02*
X89113361Y-95790281D01*
X89113361Y-95790281D02*
X89160980Y-95790281D01*
X89160980Y-95790281D02*
X89256218Y-95837900D01*
X89256218Y-95837900D02*
X89303837Y-95885519D01*
X89303837Y-95885519D02*
X89351456Y-95980757D01*
X89351456Y-95980757D02*
X89351456Y-96171233D01*
X89351456Y-96171233D02*
X89399075Y-96266471D01*
X89399075Y-96266471D02*
X89446694Y-96314090D01*
X89446694Y-96314090D02*
X89541932Y-96361709D01*
X89541932Y-96361709D02*
X89732408Y-96361709D01*
X89732408Y-96361709D02*
X89827646Y-96314090D01*
X89827646Y-96314090D02*
X89875266Y-96266471D01*
X89875266Y-96266471D02*
X89922885Y-96171233D01*
X89922885Y-96171233D02*
X89922885Y-95980757D01*
X89922885Y-95980757D02*
X89875266Y-95885519D01*
X89875266Y-95885519D02*
X89827646Y-95837900D01*
X89827646Y-95837900D02*
X89732408Y-95790281D01*
X89732408Y-95790281D02*
X89541932Y-95790281D01*
X89541932Y-95790281D02*
X89446694Y-95837900D01*
X89446694Y-95837900D02*
X89399075Y-95885519D01*
X89399075Y-95885519D02*
X89351456Y-95980757D01*
X99071428Y-79454819D02*
X98738095Y-78978628D01*
X98500000Y-79454819D02*
X98500000Y-78454819D01*
X98500000Y-78454819D02*
X98880952Y-78454819D01*
X98880952Y-78454819D02*
X98976190Y-78502438D01*
X98976190Y-78502438D02*
X99023809Y-78550057D01*
X99023809Y-78550057D02*
X99071428Y-78645295D01*
X99071428Y-78645295D02*
X99071428Y-78788152D01*
X99071428Y-78788152D02*
X99023809Y-78883390D01*
X99023809Y-78883390D02*
X98976190Y-78931009D01*
X98976190Y-78931009D02*
X98880952Y-78978628D01*
X98880952Y-78978628D02*
X98500000Y-78978628D01*
X99500000Y-78931009D02*
X99833333Y-78931009D01*
X99976190Y-79454819D02*
X99500000Y-79454819D01*
X99500000Y-79454819D02*
X99500000Y-78454819D01*
X99500000Y-78454819D02*
X99976190Y-78454819D01*
X100357143Y-79407200D02*
X100500000Y-79454819D01*
X100500000Y-79454819D02*
X100738095Y-79454819D01*
X100738095Y-79454819D02*
X100833333Y-79407200D01*
X100833333Y-79407200D02*
X100880952Y-79359580D01*
X100880952Y-79359580D02*
X100928571Y-79264342D01*
X100928571Y-79264342D02*
X100928571Y-79169104D01*
X100928571Y-79169104D02*
X100880952Y-79073866D01*
X100880952Y-79073866D02*
X100833333Y-79026247D01*
X100833333Y-79026247D02*
X100738095Y-78978628D01*
X100738095Y-78978628D02*
X100547619Y-78931009D01*
X100547619Y-78931009D02*
X100452381Y-78883390D01*
X100452381Y-78883390D02*
X100404762Y-78835771D01*
X100404762Y-78835771D02*
X100357143Y-78740533D01*
X100357143Y-78740533D02*
X100357143Y-78645295D01*
X100357143Y-78645295D02*
X100404762Y-78550057D01*
X100404762Y-78550057D02*
X100452381Y-78502438D01*
X100452381Y-78502438D02*
X100547619Y-78454819D01*
X100547619Y-78454819D02*
X100785714Y-78454819D01*
X100785714Y-78454819D02*
X100928571Y-78502438D01*
X101357143Y-78931009D02*
X101690476Y-78931009D01*
X101833333Y-79454819D02*
X101357143Y-79454819D01*
X101357143Y-79454819D02*
X101357143Y-78454819D01*
X101357143Y-78454819D02*
X101833333Y-78454819D01*
X102119048Y-78454819D02*
X102690476Y-78454819D01*
X102404762Y-79454819D02*
X102404762Y-78454819D01*
X103547619Y-79454819D02*
X102976191Y-79454819D01*
X103261905Y-79454819D02*
X103261905Y-78454819D01*
X103261905Y-78454819D02*
X103166667Y-78597676D01*
X103166667Y-78597676D02*
X103071429Y-78692914D01*
X103071429Y-78692914D02*
X102976191Y-78740533D01*
X126337142Y-85199580D02*
X126289523Y-85247200D01*
X126289523Y-85247200D02*
X126146666Y-85294819D01*
X126146666Y-85294819D02*
X126051428Y-85294819D01*
X126051428Y-85294819D02*
X125908571Y-85247200D01*
X125908571Y-85247200D02*
X125813333Y-85151961D01*
X125813333Y-85151961D02*
X125765714Y-85056723D01*
X125765714Y-85056723D02*
X125718095Y-84866247D01*
X125718095Y-84866247D02*
X125718095Y-84723390D01*
X125718095Y-84723390D02*
X125765714Y-84532914D01*
X125765714Y-84532914D02*
X125813333Y-84437676D01*
X125813333Y-84437676D02*
X125908571Y-84342438D01*
X125908571Y-84342438D02*
X126051428Y-84294819D01*
X126051428Y-84294819D02*
X126146666Y-84294819D01*
X126146666Y-84294819D02*
X126289523Y-84342438D01*
X126289523Y-84342438D02*
X126337142Y-84390057D01*
X127289523Y-85294819D02*
X126718095Y-85294819D01*
X127003809Y-85294819D02*
X127003809Y-84294819D01*
X127003809Y-84294819D02*
X126908571Y-84437676D01*
X126908571Y-84437676D02*
X126813333Y-84532914D01*
X126813333Y-84532914D02*
X126718095Y-84580533D01*
X128146666Y-84294819D02*
X127956190Y-84294819D01*
X127956190Y-84294819D02*
X127860952Y-84342438D01*
X127860952Y-84342438D02*
X127813333Y-84390057D01*
X127813333Y-84390057D02*
X127718095Y-84532914D01*
X127718095Y-84532914D02*
X127670476Y-84723390D01*
X127670476Y-84723390D02*
X127670476Y-85104342D01*
X127670476Y-85104342D02*
X127718095Y-85199580D01*
X127718095Y-85199580D02*
X127765714Y-85247200D01*
X127765714Y-85247200D02*
X127860952Y-85294819D01*
X127860952Y-85294819D02*
X128051428Y-85294819D01*
X128051428Y-85294819D02*
X128146666Y-85247200D01*
X128146666Y-85247200D02*
X128194285Y-85199580D01*
X128194285Y-85199580D02*
X128241904Y-85104342D01*
X128241904Y-85104342D02*
X128241904Y-84866247D01*
X128241904Y-84866247D02*
X128194285Y-84771009D01*
X128194285Y-84771009D02*
X128146666Y-84723390D01*
X128146666Y-84723390D02*
X128051428Y-84675771D01*
X128051428Y-84675771D02*
X127860952Y-84675771D01*
X127860952Y-84675771D02*
X127765714Y-84723390D01*
X127765714Y-84723390D02*
X127718095Y-84771009D01*
X127718095Y-84771009D02*
X127670476Y-84866247D01*
X74628012Y-92359580D02*
X74580393Y-92407200D01*
X74580393Y-92407200D02*
X74437536Y-92454819D01*
X74437536Y-92454819D02*
X74342298Y-92454819D01*
X74342298Y-92454819D02*
X74199441Y-92407200D01*
X74199441Y-92407200D02*
X74104203Y-92311961D01*
X74104203Y-92311961D02*
X74056584Y-92216723D01*
X74056584Y-92216723D02*
X74008965Y-92026247D01*
X74008965Y-92026247D02*
X74008965Y-91883390D01*
X74008965Y-91883390D02*
X74056584Y-91692914D01*
X74056584Y-91692914D02*
X74104203Y-91597676D01*
X74104203Y-91597676D02*
X74199441Y-91502438D01*
X74199441Y-91502438D02*
X74342298Y-91454819D01*
X74342298Y-91454819D02*
X74437536Y-91454819D01*
X74437536Y-91454819D02*
X74580393Y-91502438D01*
X74580393Y-91502438D02*
X74628012Y-91550057D01*
X75485155Y-91788152D02*
X75485155Y-92454819D01*
X75247060Y-91407200D02*
X75008965Y-92121485D01*
X75008965Y-92121485D02*
X75628012Y-92121485D01*
X75961346Y-91550057D02*
X76008965Y-91502438D01*
X76008965Y-91502438D02*
X76104203Y-91454819D01*
X76104203Y-91454819D02*
X76342298Y-91454819D01*
X76342298Y-91454819D02*
X76437536Y-91502438D01*
X76437536Y-91502438D02*
X76485155Y-91550057D01*
X76485155Y-91550057D02*
X76532774Y-91645295D01*
X76532774Y-91645295D02*
X76532774Y-91740533D01*
X76532774Y-91740533D02*
X76485155Y-91883390D01*
X76485155Y-91883390D02*
X75913727Y-92454819D01*
X75913727Y-92454819D02*
X76532774Y-92454819D01*
X108199580Y-72122857D02*
X108247200Y-72170476D01*
X108247200Y-72170476D02*
X108294819Y-72313333D01*
X108294819Y-72313333D02*
X108294819Y-72408571D01*
X108294819Y-72408571D02*
X108247200Y-72551428D01*
X108247200Y-72551428D02*
X108151961Y-72646666D01*
X108151961Y-72646666D02*
X108056723Y-72694285D01*
X108056723Y-72694285D02*
X107866247Y-72741904D01*
X107866247Y-72741904D02*
X107723390Y-72741904D01*
X107723390Y-72741904D02*
X107532914Y-72694285D01*
X107532914Y-72694285D02*
X107437676Y-72646666D01*
X107437676Y-72646666D02*
X107342438Y-72551428D01*
X107342438Y-72551428D02*
X107294819Y-72408571D01*
X107294819Y-72408571D02*
X107294819Y-72313333D01*
X107294819Y-72313333D02*
X107342438Y-72170476D01*
X107342438Y-72170476D02*
X107390057Y-72122857D01*
X108294819Y-71170476D02*
X108294819Y-71741904D01*
X108294819Y-71456190D02*
X107294819Y-71456190D01*
X107294819Y-71456190D02*
X107437676Y-71551428D01*
X107437676Y-71551428D02*
X107532914Y-71646666D01*
X107532914Y-71646666D02*
X107580533Y-71741904D01*
X107723390Y-70599047D02*
X107675771Y-70694285D01*
X107675771Y-70694285D02*
X107628152Y-70741904D01*
X107628152Y-70741904D02*
X107532914Y-70789523D01*
X107532914Y-70789523D02*
X107485295Y-70789523D01*
X107485295Y-70789523D02*
X107390057Y-70741904D01*
X107390057Y-70741904D02*
X107342438Y-70694285D01*
X107342438Y-70694285D02*
X107294819Y-70599047D01*
X107294819Y-70599047D02*
X107294819Y-70408571D01*
X107294819Y-70408571D02*
X107342438Y-70313333D01*
X107342438Y-70313333D02*
X107390057Y-70265714D01*
X107390057Y-70265714D02*
X107485295Y-70218095D01*
X107485295Y-70218095D02*
X107532914Y-70218095D01*
X107532914Y-70218095D02*
X107628152Y-70265714D01*
X107628152Y-70265714D02*
X107675771Y-70313333D01*
X107675771Y-70313333D02*
X107723390Y-70408571D01*
X107723390Y-70408571D02*
X107723390Y-70599047D01*
X107723390Y-70599047D02*
X107771009Y-70694285D01*
X107771009Y-70694285D02*
X107818628Y-70741904D01*
X107818628Y-70741904D02*
X107913866Y-70789523D01*
X107913866Y-70789523D02*
X108104342Y-70789523D01*
X108104342Y-70789523D02*
X108199580Y-70741904D01*
X108199580Y-70741904D02*
X108247200Y-70694285D01*
X108247200Y-70694285D02*
X108294819Y-70599047D01*
X108294819Y-70599047D02*
X108294819Y-70408571D01*
X108294819Y-70408571D02*
X108247200Y-70313333D01*
X108247200Y-70313333D02*
X108199580Y-70265714D01*
X108199580Y-70265714D02*
X108104342Y-70218095D01*
X108104342Y-70218095D02*
X107913866Y-70218095D01*
X107913866Y-70218095D02*
X107818628Y-70265714D01*
X107818628Y-70265714D02*
X107771009Y-70313333D01*
X107771009Y-70313333D02*
X107723390Y-70408571D01*
X129297345Y-86992141D02*
X130221224Y-86609457D01*
X130221224Y-86609457D02*
X130312339Y-86829428D01*
X130312339Y-86829428D02*
X130323014Y-86979634D01*
X130323014Y-86979634D02*
X130271472Y-87104069D01*
X130271472Y-87104069D02*
X130201706Y-87184509D01*
X130201706Y-87184509D02*
X130043952Y-87301395D01*
X130043952Y-87301395D02*
X129911969Y-87356065D01*
X129911969Y-87356065D02*
X129717769Y-87384962D01*
X129717769Y-87384962D02*
X129611558Y-87377414D01*
X129611558Y-87377414D02*
X129487123Y-87325872D01*
X129487123Y-87325872D02*
X129388460Y-87212112D01*
X129388460Y-87212112D02*
X129297345Y-86992141D01*
X130459955Y-88056846D02*
X129844035Y-88311968D01*
X130720794Y-87691091D02*
X129969765Y-87744465D01*
X129969765Y-87744465D02*
X130206664Y-88316390D01*
D12*
X102633260Y-92812041D02*
X102633260Y-93201701D01*
X102633260Y-93201701D02*
X102656182Y-93247543D01*
X102656182Y-93247543D02*
X102679103Y-93270465D01*
X102679103Y-93270465D02*
X102724945Y-93293386D01*
X102724945Y-93293386D02*
X102816630Y-93293386D01*
X102816630Y-93293386D02*
X102862472Y-93270465D01*
X102862472Y-93270465D02*
X102885394Y-93247543D01*
X102885394Y-93247543D02*
X102908315Y-93201701D01*
X102908315Y-93201701D02*
X102908315Y-92812041D01*
X103114605Y-92857883D02*
X103137526Y-92834962D01*
X103137526Y-92834962D02*
X103183369Y-92812041D01*
X103183369Y-92812041D02*
X103297975Y-92812041D01*
X103297975Y-92812041D02*
X103343817Y-92834962D01*
X103343817Y-92834962D02*
X103366738Y-92857883D01*
X103366738Y-92857883D02*
X103389660Y-92903725D01*
X103389660Y-92903725D02*
X103389660Y-92949568D01*
X103389660Y-92949568D02*
X103366738Y-93018331D01*
X103366738Y-93018331D02*
X103091684Y-93293386D01*
X103091684Y-93293386D02*
X103389660Y-93293386D01*
D11*
X79357142Y-118359580D02*
X79309523Y-118407200D01*
X79309523Y-118407200D02*
X79166666Y-118454819D01*
X79166666Y-118454819D02*
X79071428Y-118454819D01*
X79071428Y-118454819D02*
X78928571Y-118407200D01*
X78928571Y-118407200D02*
X78833333Y-118311961D01*
X78833333Y-118311961D02*
X78785714Y-118216723D01*
X78785714Y-118216723D02*
X78738095Y-118026247D01*
X78738095Y-118026247D02*
X78738095Y-117883390D01*
X78738095Y-117883390D02*
X78785714Y-117692914D01*
X78785714Y-117692914D02*
X78833333Y-117597676D01*
X78833333Y-117597676D02*
X78928571Y-117502438D01*
X78928571Y-117502438D02*
X79071428Y-117454819D01*
X79071428Y-117454819D02*
X79166666Y-117454819D01*
X79166666Y-117454819D02*
X79309523Y-117502438D01*
X79309523Y-117502438D02*
X79357142Y-117550057D01*
X79738095Y-117550057D02*
X79785714Y-117502438D01*
X79785714Y-117502438D02*
X79880952Y-117454819D01*
X79880952Y-117454819D02*
X80119047Y-117454819D01*
X80119047Y-117454819D02*
X80214285Y-117502438D01*
X80214285Y-117502438D02*
X80261904Y-117550057D01*
X80261904Y-117550057D02*
X80309523Y-117645295D01*
X80309523Y-117645295D02*
X80309523Y-117740533D01*
X80309523Y-117740533D02*
X80261904Y-117883390D01*
X80261904Y-117883390D02*
X79690476Y-118454819D01*
X79690476Y-118454819D02*
X80309523Y-118454819D01*
X80785714Y-118454819D02*
X80976190Y-118454819D01*
X80976190Y-118454819D02*
X81071428Y-118407200D01*
X81071428Y-118407200D02*
X81119047Y-118359580D01*
X81119047Y-118359580D02*
X81214285Y-118216723D01*
X81214285Y-118216723D02*
X81261904Y-118026247D01*
X81261904Y-118026247D02*
X81261904Y-117645295D01*
X81261904Y-117645295D02*
X81214285Y-117550057D01*
X81214285Y-117550057D02*
X81166666Y-117502438D01*
X81166666Y-117502438D02*
X81071428Y-117454819D01*
X81071428Y-117454819D02*
X80880952Y-117454819D01*
X80880952Y-117454819D02*
X80785714Y-117502438D01*
X80785714Y-117502438D02*
X80738095Y-117550057D01*
X80738095Y-117550057D02*
X80690476Y-117645295D01*
X80690476Y-117645295D02*
X80690476Y-117883390D01*
X80690476Y-117883390D02*
X80738095Y-117978628D01*
X80738095Y-117978628D02*
X80785714Y-118026247D01*
X80785714Y-118026247D02*
X80880952Y-118073866D01*
X80880952Y-118073866D02*
X81071428Y-118073866D01*
X81071428Y-118073866D02*
X81166666Y-118026247D01*
X81166666Y-118026247D02*
X81214285Y-117978628D01*
X81214285Y-117978628D02*
X81261904Y-117883390D01*
X106454819Y-90666666D02*
X105978628Y-90999999D01*
X106454819Y-91238094D02*
X105454819Y-91238094D01*
X105454819Y-91238094D02*
X105454819Y-90857142D01*
X105454819Y-90857142D02*
X105502438Y-90761904D01*
X105502438Y-90761904D02*
X105550057Y-90714285D01*
X105550057Y-90714285D02*
X105645295Y-90666666D01*
X105645295Y-90666666D02*
X105788152Y-90666666D01*
X105788152Y-90666666D02*
X105883390Y-90714285D01*
X105883390Y-90714285D02*
X105931009Y-90761904D01*
X105931009Y-90761904D02*
X105978628Y-90857142D01*
X105978628Y-90857142D02*
X105978628Y-91238094D01*
X105883390Y-90095237D02*
X105835771Y-90190475D01*
X105835771Y-90190475D02*
X105788152Y-90238094D01*
X105788152Y-90238094D02*
X105692914Y-90285713D01*
X105692914Y-90285713D02*
X105645295Y-90285713D01*
X105645295Y-90285713D02*
X105550057Y-90238094D01*
X105550057Y-90238094D02*
X105502438Y-90190475D01*
X105502438Y-90190475D02*
X105454819Y-90095237D01*
X105454819Y-90095237D02*
X105454819Y-89904761D01*
X105454819Y-89904761D02*
X105502438Y-89809523D01*
X105502438Y-89809523D02*
X105550057Y-89761904D01*
X105550057Y-89761904D02*
X105645295Y-89714285D01*
X105645295Y-89714285D02*
X105692914Y-89714285D01*
X105692914Y-89714285D02*
X105788152Y-89761904D01*
X105788152Y-89761904D02*
X105835771Y-89809523D01*
X105835771Y-89809523D02*
X105883390Y-89904761D01*
X105883390Y-89904761D02*
X105883390Y-90095237D01*
X105883390Y-90095237D02*
X105931009Y-90190475D01*
X105931009Y-90190475D02*
X105978628Y-90238094D01*
X105978628Y-90238094D02*
X106073866Y-90285713D01*
X106073866Y-90285713D02*
X106264342Y-90285713D01*
X106264342Y-90285713D02*
X106359580Y-90238094D01*
X106359580Y-90238094D02*
X106407200Y-90190475D01*
X106407200Y-90190475D02*
X106454819Y-90095237D01*
X106454819Y-90095237D02*
X106454819Y-89904761D01*
X106454819Y-89904761D02*
X106407200Y-89809523D01*
X106407200Y-89809523D02*
X106359580Y-89761904D01*
X106359580Y-89761904D02*
X106264342Y-89714285D01*
X106264342Y-89714285D02*
X106073866Y-89714285D01*
X106073866Y-89714285D02*
X105978628Y-89761904D01*
X105978628Y-89761904D02*
X105931009Y-89809523D01*
X105931009Y-89809523D02*
X105883390Y-89904761D01*
X73725689Y-94142857D02*
X73249498Y-94476190D01*
X73725689Y-94714285D02*
X72725689Y-94714285D01*
X72725689Y-94714285D02*
X72725689Y-94333333D01*
X72725689Y-94333333D02*
X72773308Y-94238095D01*
X72773308Y-94238095D02*
X72820927Y-94190476D01*
X72820927Y-94190476D02*
X72916165Y-94142857D01*
X72916165Y-94142857D02*
X73059022Y-94142857D01*
X73059022Y-94142857D02*
X73154260Y-94190476D01*
X73154260Y-94190476D02*
X73201879Y-94238095D01*
X73201879Y-94238095D02*
X73249498Y-94333333D01*
X73249498Y-94333333D02*
X73249498Y-94714285D01*
X73725689Y-93190476D02*
X73725689Y-93761904D01*
X73725689Y-93476190D02*
X72725689Y-93476190D01*
X72725689Y-93476190D02*
X72868546Y-93571428D01*
X72868546Y-93571428D02*
X72963784Y-93666666D01*
X72963784Y-93666666D02*
X73011403Y-93761904D01*
X73154260Y-92619047D02*
X73106641Y-92714285D01*
X73106641Y-92714285D02*
X73059022Y-92761904D01*
X73059022Y-92761904D02*
X72963784Y-92809523D01*
X72963784Y-92809523D02*
X72916165Y-92809523D01*
X72916165Y-92809523D02*
X72820927Y-92761904D01*
X72820927Y-92761904D02*
X72773308Y-92714285D01*
X72773308Y-92714285D02*
X72725689Y-92619047D01*
X72725689Y-92619047D02*
X72725689Y-92428571D01*
X72725689Y-92428571D02*
X72773308Y-92333333D01*
X72773308Y-92333333D02*
X72820927Y-92285714D01*
X72820927Y-92285714D02*
X72916165Y-92238095D01*
X72916165Y-92238095D02*
X72963784Y-92238095D01*
X72963784Y-92238095D02*
X73059022Y-92285714D01*
X73059022Y-92285714D02*
X73106641Y-92333333D01*
X73106641Y-92333333D02*
X73154260Y-92428571D01*
X73154260Y-92428571D02*
X73154260Y-92619047D01*
X73154260Y-92619047D02*
X73201879Y-92714285D01*
X73201879Y-92714285D02*
X73249498Y-92761904D01*
X73249498Y-92761904D02*
X73344736Y-92809523D01*
X73344736Y-92809523D02*
X73535212Y-92809523D01*
X73535212Y-92809523D02*
X73630450Y-92761904D01*
X73630450Y-92761904D02*
X73678070Y-92714285D01*
X73678070Y-92714285D02*
X73725689Y-92619047D01*
X73725689Y-92619047D02*
X73725689Y-92428571D01*
X73725689Y-92428571D02*
X73678070Y-92333333D01*
X73678070Y-92333333D02*
X73630450Y-92285714D01*
X73630450Y-92285714D02*
X73535212Y-92238095D01*
X73535212Y-92238095D02*
X73344736Y-92238095D01*
X73344736Y-92238095D02*
X73249498Y-92285714D01*
X73249498Y-92285714D02*
X73201879Y-92333333D01*
X73201879Y-92333333D02*
X73154260Y-92428571D01*
X77953922Y-108833889D02*
X78669400Y-108833889D01*
X78669400Y-108833889D02*
X78812495Y-108881587D01*
X78812495Y-108881587D02*
X78907893Y-108976984D01*
X78907893Y-108976984D02*
X78955591Y-109120080D01*
X78955591Y-109120080D02*
X78955591Y-109215477D01*
X77953922Y-108452301D02*
X77953922Y-107832220D01*
X77953922Y-107832220D02*
X78335510Y-108166110D01*
X78335510Y-108166110D02*
X78335510Y-108023014D01*
X78335510Y-108023014D02*
X78383209Y-107927617D01*
X78383209Y-107927617D02*
X78430907Y-107879919D01*
X78430907Y-107879919D02*
X78526304Y-107832220D01*
X78526304Y-107832220D02*
X78764797Y-107832220D01*
X78764797Y-107832220D02*
X78860194Y-107879919D01*
X78860194Y-107879919D02*
X78907893Y-107927617D01*
X78907893Y-107927617D02*
X78955591Y-108023014D01*
X78955591Y-108023014D02*
X78955591Y-108309205D01*
X78955591Y-108309205D02*
X78907893Y-108404602D01*
X78907893Y-108404602D02*
X78860194Y-108452301D01*
X90825208Y-101411766D02*
X90777589Y-101459386D01*
X90777589Y-101459386D02*
X90634732Y-101507005D01*
X90634732Y-101507005D02*
X90539494Y-101507005D01*
X90539494Y-101507005D02*
X90396637Y-101459386D01*
X90396637Y-101459386D02*
X90301399Y-101364147D01*
X90301399Y-101364147D02*
X90253780Y-101268909D01*
X90253780Y-101268909D02*
X90206161Y-101078433D01*
X90206161Y-101078433D02*
X90206161Y-100935576D01*
X90206161Y-100935576D02*
X90253780Y-100745100D01*
X90253780Y-100745100D02*
X90301399Y-100649862D01*
X90301399Y-100649862D02*
X90396637Y-100554624D01*
X90396637Y-100554624D02*
X90539494Y-100507005D01*
X90539494Y-100507005D02*
X90634732Y-100507005D01*
X90634732Y-100507005D02*
X90777589Y-100554624D01*
X90777589Y-100554624D02*
X90825208Y-100602243D01*
X91158542Y-100507005D02*
X91777589Y-100507005D01*
X91777589Y-100507005D02*
X91444256Y-100887957D01*
X91444256Y-100887957D02*
X91587113Y-100887957D01*
X91587113Y-100887957D02*
X91682351Y-100935576D01*
X91682351Y-100935576D02*
X91729970Y-100983195D01*
X91729970Y-100983195D02*
X91777589Y-101078433D01*
X91777589Y-101078433D02*
X91777589Y-101316528D01*
X91777589Y-101316528D02*
X91729970Y-101411766D01*
X91729970Y-101411766D02*
X91682351Y-101459386D01*
X91682351Y-101459386D02*
X91587113Y-101507005D01*
X91587113Y-101507005D02*
X91301399Y-101507005D01*
X91301399Y-101507005D02*
X91206161Y-101459386D01*
X91206161Y-101459386D02*
X91158542Y-101411766D01*
X92253780Y-101507005D02*
X92444256Y-101507005D01*
X92444256Y-101507005D02*
X92539494Y-101459386D01*
X92539494Y-101459386D02*
X92587113Y-101411766D01*
X92587113Y-101411766D02*
X92682351Y-101268909D01*
X92682351Y-101268909D02*
X92729970Y-101078433D01*
X92729970Y-101078433D02*
X92729970Y-100697481D01*
X92729970Y-100697481D02*
X92682351Y-100602243D01*
X92682351Y-100602243D02*
X92634732Y-100554624D01*
X92634732Y-100554624D02*
X92539494Y-100507005D01*
X92539494Y-100507005D02*
X92349018Y-100507005D01*
X92349018Y-100507005D02*
X92253780Y-100554624D01*
X92253780Y-100554624D02*
X92206161Y-100602243D01*
X92206161Y-100602243D02*
X92158542Y-100697481D01*
X92158542Y-100697481D02*
X92158542Y-100935576D01*
X92158542Y-100935576D02*
X92206161Y-101030814D01*
X92206161Y-101030814D02*
X92253780Y-101078433D01*
X92253780Y-101078433D02*
X92349018Y-101126052D01*
X92349018Y-101126052D02*
X92539494Y-101126052D01*
X92539494Y-101126052D02*
X92634732Y-101078433D01*
X92634732Y-101078433D02*
X92682351Y-101030814D01*
X92682351Y-101030814D02*
X92729970Y-100935576D01*
X72225689Y-94142857D02*
X71749498Y-94476190D01*
X72225689Y-94714285D02*
X71225689Y-94714285D01*
X71225689Y-94714285D02*
X71225689Y-94333333D01*
X71225689Y-94333333D02*
X71273308Y-94238095D01*
X71273308Y-94238095D02*
X71320927Y-94190476D01*
X71320927Y-94190476D02*
X71416165Y-94142857D01*
X71416165Y-94142857D02*
X71559022Y-94142857D01*
X71559022Y-94142857D02*
X71654260Y-94190476D01*
X71654260Y-94190476D02*
X71701879Y-94238095D01*
X71701879Y-94238095D02*
X71749498Y-94333333D01*
X71749498Y-94333333D02*
X71749498Y-94714285D01*
X72225689Y-93190476D02*
X72225689Y-93761904D01*
X72225689Y-93476190D02*
X71225689Y-93476190D01*
X71225689Y-93476190D02*
X71368546Y-93571428D01*
X71368546Y-93571428D02*
X71463784Y-93666666D01*
X71463784Y-93666666D02*
X71511403Y-93761904D01*
X72225689Y-92714285D02*
X72225689Y-92523809D01*
X72225689Y-92523809D02*
X72178070Y-92428571D01*
X72178070Y-92428571D02*
X72130450Y-92380952D01*
X72130450Y-92380952D02*
X71987593Y-92285714D01*
X71987593Y-92285714D02*
X71797117Y-92238095D01*
X71797117Y-92238095D02*
X71416165Y-92238095D01*
X71416165Y-92238095D02*
X71320927Y-92285714D01*
X71320927Y-92285714D02*
X71273308Y-92333333D01*
X71273308Y-92333333D02*
X71225689Y-92428571D01*
X71225689Y-92428571D02*
X71225689Y-92619047D01*
X71225689Y-92619047D02*
X71273308Y-92714285D01*
X71273308Y-92714285D02*
X71320927Y-92761904D01*
X71320927Y-92761904D02*
X71416165Y-92809523D01*
X71416165Y-92809523D02*
X71654260Y-92809523D01*
X71654260Y-92809523D02*
X71749498Y-92761904D01*
X71749498Y-92761904D02*
X71797117Y-92714285D01*
X71797117Y-92714285D02*
X71844736Y-92619047D01*
X71844736Y-92619047D02*
X71844736Y-92428571D01*
X71844736Y-92428571D02*
X71797117Y-92333333D01*
X71797117Y-92333333D02*
X71749498Y-92285714D01*
X71749498Y-92285714D02*
X71654260Y-92238095D01*
X106833333Y-130454819D02*
X106500000Y-129978628D01*
X106261905Y-130454819D02*
X106261905Y-129454819D01*
X106261905Y-129454819D02*
X106642857Y-129454819D01*
X106642857Y-129454819D02*
X106738095Y-129502438D01*
X106738095Y-129502438D02*
X106785714Y-129550057D01*
X106785714Y-129550057D02*
X106833333Y-129645295D01*
X106833333Y-129645295D02*
X106833333Y-129788152D01*
X106833333Y-129788152D02*
X106785714Y-129883390D01*
X106785714Y-129883390D02*
X106738095Y-129931009D01*
X106738095Y-129931009D02*
X106642857Y-129978628D01*
X106642857Y-129978628D02*
X106261905Y-129978628D01*
X107214286Y-129550057D02*
X107261905Y-129502438D01*
X107261905Y-129502438D02*
X107357143Y-129454819D01*
X107357143Y-129454819D02*
X107595238Y-129454819D01*
X107595238Y-129454819D02*
X107690476Y-129502438D01*
X107690476Y-129502438D02*
X107738095Y-129550057D01*
X107738095Y-129550057D02*
X107785714Y-129645295D01*
X107785714Y-129645295D02*
X107785714Y-129740533D01*
X107785714Y-129740533D02*
X107738095Y-129883390D01*
X107738095Y-129883390D02*
X107166667Y-130454819D01*
X107166667Y-130454819D02*
X107785714Y-130454819D01*
X127857142Y-94454819D02*
X127523809Y-93978628D01*
X127285714Y-94454819D02*
X127285714Y-93454819D01*
X127285714Y-93454819D02*
X127666666Y-93454819D01*
X127666666Y-93454819D02*
X127761904Y-93502438D01*
X127761904Y-93502438D02*
X127809523Y-93550057D01*
X127809523Y-93550057D02*
X127857142Y-93645295D01*
X127857142Y-93645295D02*
X127857142Y-93788152D01*
X127857142Y-93788152D02*
X127809523Y-93883390D01*
X127809523Y-93883390D02*
X127761904Y-93931009D01*
X127761904Y-93931009D02*
X127666666Y-93978628D01*
X127666666Y-93978628D02*
X127285714Y-93978628D01*
X128809523Y-94454819D02*
X128238095Y-94454819D01*
X128523809Y-94454819D02*
X128523809Y-93454819D01*
X128523809Y-93454819D02*
X128428571Y-93597676D01*
X128428571Y-93597676D02*
X128333333Y-93692914D01*
X128333333Y-93692914D02*
X128238095Y-93740533D01*
X129142857Y-93454819D02*
X129761904Y-93454819D01*
X129761904Y-93454819D02*
X129428571Y-93835771D01*
X129428571Y-93835771D02*
X129571428Y-93835771D01*
X129571428Y-93835771D02*
X129666666Y-93883390D01*
X129666666Y-93883390D02*
X129714285Y-93931009D01*
X129714285Y-93931009D02*
X129761904Y-94026247D01*
X129761904Y-94026247D02*
X129761904Y-94264342D01*
X129761904Y-94264342D02*
X129714285Y-94359580D01*
X129714285Y-94359580D02*
X129666666Y-94407200D01*
X129666666Y-94407200D02*
X129571428Y-94454819D01*
X129571428Y-94454819D02*
X129285714Y-94454819D01*
X129285714Y-94454819D02*
X129190476Y-94407200D01*
X129190476Y-94407200D02*
X129142857Y-94359580D01*
X103007514Y-106819761D02*
X103312276Y-106819761D01*
X102672276Y-107033094D02*
X103007514Y-106819761D01*
X103007514Y-106819761D02*
X102672276Y-106606427D01*
X103312276Y-106057856D02*
X103312276Y-106423571D01*
X103312276Y-106240714D02*
X102672276Y-106240714D01*
X102672276Y-106240714D02*
X102763704Y-106301666D01*
X102763704Y-106301666D02*
X102824657Y-106362618D01*
X102824657Y-106362618D02*
X102855133Y-106423571D01*
X95690666Y-77589819D02*
X95690666Y-78304104D01*
X95690666Y-78304104D02*
X95643047Y-78446961D01*
X95643047Y-78446961D02*
X95547809Y-78542200D01*
X95547809Y-78542200D02*
X95404952Y-78589819D01*
X95404952Y-78589819D02*
X95309714Y-78589819D01*
X96690666Y-78589819D02*
X96119238Y-78589819D01*
X96404952Y-78589819D02*
X96404952Y-77589819D01*
X96404952Y-77589819D02*
X96309714Y-77732676D01*
X96309714Y-77732676D02*
X96214476Y-77827914D01*
X96214476Y-77827914D02*
X96119238Y-77875533D01*
X111552197Y-130384885D02*
X111169514Y-129461005D01*
X111169514Y-129461005D02*
X111389485Y-129369890D01*
X111389485Y-129369890D02*
X111539691Y-129359215D01*
X111539691Y-129359215D02*
X111664126Y-129410758D01*
X111664126Y-129410758D02*
X111744566Y-129480523D01*
X111744566Y-129480523D02*
X111861452Y-129638277D01*
X111861452Y-129638277D02*
X111916121Y-129770260D01*
X111916121Y-129770260D02*
X111945019Y-129964460D01*
X111945019Y-129964460D02*
X111937471Y-130070672D01*
X111937471Y-130070672D02*
X111885929Y-130195106D01*
X111885929Y-130195106D02*
X111772169Y-130293769D01*
X111772169Y-130293769D02*
X111552197Y-130384885D01*
X112960014Y-129801748D02*
X112432083Y-130020424D01*
X112696048Y-129911086D02*
X112313365Y-128987206D01*
X112313365Y-128987206D02*
X112280045Y-129155635D01*
X112280045Y-129155635D02*
X112228503Y-129280070D01*
X112228503Y-129280070D02*
X112158737Y-129360510D01*
X113369227Y-128549854D02*
X113193250Y-128622746D01*
X113193250Y-128622746D02*
X113123485Y-128703186D01*
X113123485Y-128703186D02*
X113097713Y-128765404D01*
X113097713Y-128765404D02*
X113064394Y-128933832D01*
X113064394Y-128933832D02*
X113093292Y-129128033D01*
X113093292Y-129128033D02*
X113239076Y-129479987D01*
X113239076Y-129479987D02*
X113319516Y-129549752D01*
X113319516Y-129549752D02*
X113381734Y-129575523D01*
X113381734Y-129575523D02*
X113487945Y-129583072D01*
X113487945Y-129583072D02*
X113663922Y-129510180D01*
X113663922Y-129510180D02*
X113733688Y-129429739D01*
X113733688Y-129429739D02*
X113759459Y-129367522D01*
X113759459Y-129367522D02*
X113767007Y-129261310D01*
X113767007Y-129261310D02*
X113675892Y-129041339D01*
X113675892Y-129041339D02*
X113595452Y-128971574D01*
X113595452Y-128971574D02*
X113533234Y-128945802D01*
X113533234Y-128945802D02*
X113427023Y-128938254D01*
X113427023Y-128938254D02*
X113251046Y-129011146D01*
X113251046Y-129011146D02*
X113181280Y-129091587D01*
X113181280Y-129091587D02*
X113155509Y-129153804D01*
X113155509Y-129153804D02*
X113147961Y-129260015D01*
X96476547Y-106780126D02*
X97289493Y-106780126D01*
X97289493Y-106780126D02*
X97385134Y-106732305D01*
X97385134Y-106732305D02*
X97432955Y-106684485D01*
X97432955Y-106684485D02*
X97480775Y-106588844D01*
X97480775Y-106588844D02*
X97480775Y-106397563D01*
X97480775Y-106397563D02*
X97432955Y-106301922D01*
X97432955Y-106301922D02*
X97385134Y-106254101D01*
X97385134Y-106254101D02*
X97289493Y-106206281D01*
X97289493Y-106206281D02*
X96476547Y-106206281D01*
X97480775Y-105202053D02*
X97480775Y-105775898D01*
X97480775Y-105488976D02*
X96476547Y-105488976D01*
X96476547Y-105488976D02*
X96620008Y-105584616D01*
X96620008Y-105584616D02*
X96715649Y-105680257D01*
X96715649Y-105680257D02*
X96763469Y-105775898D01*
X90833333Y-129454819D02*
X90500000Y-128978628D01*
X90261905Y-129454819D02*
X90261905Y-128454819D01*
X90261905Y-128454819D02*
X90642857Y-128454819D01*
X90642857Y-128454819D02*
X90738095Y-128502438D01*
X90738095Y-128502438D02*
X90785714Y-128550057D01*
X90785714Y-128550057D02*
X90833333Y-128645295D01*
X90833333Y-128645295D02*
X90833333Y-128788152D01*
X90833333Y-128788152D02*
X90785714Y-128883390D01*
X90785714Y-128883390D02*
X90738095Y-128931009D01*
X90738095Y-128931009D02*
X90642857Y-128978628D01*
X90642857Y-128978628D02*
X90261905Y-128978628D01*
X91166667Y-128454819D02*
X91785714Y-128454819D01*
X91785714Y-128454819D02*
X91452381Y-128835771D01*
X91452381Y-128835771D02*
X91595238Y-128835771D01*
X91595238Y-128835771D02*
X91690476Y-128883390D01*
X91690476Y-128883390D02*
X91738095Y-128931009D01*
X91738095Y-128931009D02*
X91785714Y-129026247D01*
X91785714Y-129026247D02*
X91785714Y-129264342D01*
X91785714Y-129264342D02*
X91738095Y-129359580D01*
X91738095Y-129359580D02*
X91690476Y-129407200D01*
X91690476Y-129407200D02*
X91595238Y-129454819D01*
X91595238Y-129454819D02*
X91309524Y-129454819D01*
X91309524Y-129454819D02*
X91214286Y-129407200D01*
X91214286Y-129407200D02*
X91166667Y-129359580D01*
X129955510Y-113795905D02*
X129031631Y-113413222D01*
X129031631Y-113413222D02*
X129122746Y-113193250D01*
X129122746Y-113193250D02*
X129221409Y-113079490D01*
X129221409Y-113079490D02*
X129345844Y-113027948D01*
X129345844Y-113027948D02*
X129452055Y-113020400D01*
X129452055Y-113020400D02*
X129646256Y-113049298D01*
X129646256Y-113049298D02*
X129778238Y-113103967D01*
X129778238Y-113103967D02*
X129935992Y-113220853D01*
X129935992Y-113220853D02*
X130005758Y-113301293D01*
X130005758Y-113301293D02*
X130057300Y-113425728D01*
X130057300Y-113425728D02*
X130046626Y-113575934D01*
X130046626Y-113575934D02*
X129955510Y-113795905D01*
X130538647Y-112388089D02*
X130319971Y-112916020D01*
X130429309Y-112652054D02*
X129505429Y-112269371D01*
X129505429Y-112269371D02*
X129600966Y-112412028D01*
X129600966Y-112412028D02*
X129652509Y-112536463D01*
X129652509Y-112536463D02*
X129660057Y-112642674D01*
X130229392Y-111641481D02*
X130148952Y-111711247D01*
X130148952Y-111711247D02*
X130086735Y-111737018D01*
X130086735Y-111737018D02*
X129980523Y-111744566D01*
X129980523Y-111744566D02*
X129936529Y-111726343D01*
X129936529Y-111726343D02*
X129866763Y-111645903D01*
X129866763Y-111645903D02*
X129840992Y-111583685D01*
X129840992Y-111583685D02*
X129833444Y-111477474D01*
X129833444Y-111477474D02*
X129906336Y-111301497D01*
X129906336Y-111301497D02*
X129986776Y-111231731D01*
X129986776Y-111231731D02*
X130048994Y-111205960D01*
X130048994Y-111205960D02*
X130155205Y-111198412D01*
X130155205Y-111198412D02*
X130199199Y-111216635D01*
X130199199Y-111216635D02*
X130268965Y-111297075D01*
X130268965Y-111297075D02*
X130294736Y-111359292D01*
X130294736Y-111359292D02*
X130302284Y-111465504D01*
X130302284Y-111465504D02*
X130229392Y-111641481D01*
X130229392Y-111641481D02*
X130236940Y-111747693D01*
X130236940Y-111747693D02*
X130262712Y-111809910D01*
X130262712Y-111809910D02*
X130332477Y-111890350D01*
X130332477Y-111890350D02*
X130508454Y-111963242D01*
X130508454Y-111963242D02*
X130614666Y-111955694D01*
X130614666Y-111955694D02*
X130676883Y-111929923D01*
X130676883Y-111929923D02*
X130757323Y-111860157D01*
X130757323Y-111860157D02*
X130830215Y-111684180D01*
X130830215Y-111684180D02*
X130822667Y-111577969D01*
X130822667Y-111577969D02*
X130796896Y-111515751D01*
X130796896Y-111515751D02*
X130727131Y-111435311D01*
X130727131Y-111435311D02*
X130551153Y-111362419D01*
X130551153Y-111362419D02*
X130444942Y-111369967D01*
X130444942Y-111369967D02*
X130382725Y-111395739D01*
X130382725Y-111395739D02*
X130302284Y-111465504D01*
X82599724Y-82870088D02*
X82647344Y-82917707D01*
X82647344Y-82917707D02*
X82694963Y-83060564D01*
X82694963Y-83060564D02*
X82694963Y-83155802D01*
X82694963Y-83155802D02*
X82647344Y-83298659D01*
X82647344Y-83298659D02*
X82552105Y-83393897D01*
X82552105Y-83393897D02*
X82456867Y-83441516D01*
X82456867Y-83441516D02*
X82266391Y-83489135D01*
X82266391Y-83489135D02*
X82123534Y-83489135D01*
X82123534Y-83489135D02*
X81933058Y-83441516D01*
X81933058Y-83441516D02*
X81837820Y-83393897D01*
X81837820Y-83393897D02*
X81742582Y-83298659D01*
X81742582Y-83298659D02*
X81694963Y-83155802D01*
X81694963Y-83155802D02*
X81694963Y-83060564D01*
X81694963Y-83060564D02*
X81742582Y-82917707D01*
X81742582Y-82917707D02*
X81790201Y-82870088D01*
X81694963Y-81965326D02*
X81694963Y-82441516D01*
X81694963Y-82441516D02*
X82171153Y-82489135D01*
X82171153Y-82489135D02*
X82123534Y-82441516D01*
X82123534Y-82441516D02*
X82075915Y-82346278D01*
X82075915Y-82346278D02*
X82075915Y-82108183D01*
X82075915Y-82108183D02*
X82123534Y-82012945D01*
X82123534Y-82012945D02*
X82171153Y-81965326D01*
X82171153Y-81965326D02*
X82266391Y-81917707D01*
X82266391Y-81917707D02*
X82504486Y-81917707D01*
X82504486Y-81917707D02*
X82599724Y-81965326D01*
X82599724Y-81965326D02*
X82647344Y-82012945D01*
X82647344Y-82012945D02*
X82694963Y-82108183D01*
X82694963Y-82108183D02*
X82694963Y-82346278D01*
X82694963Y-82346278D02*
X82647344Y-82441516D01*
X82647344Y-82441516D02*
X82599724Y-82489135D01*
X81694963Y-81298659D02*
X81694963Y-81203421D01*
X81694963Y-81203421D02*
X81742582Y-81108183D01*
X81742582Y-81108183D02*
X81790201Y-81060564D01*
X81790201Y-81060564D02*
X81885439Y-81012945D01*
X81885439Y-81012945D02*
X82075915Y-80965326D01*
X82075915Y-80965326D02*
X82314010Y-80965326D01*
X82314010Y-80965326D02*
X82504486Y-81012945D01*
X82504486Y-81012945D02*
X82599724Y-81060564D01*
X82599724Y-81060564D02*
X82647344Y-81108183D01*
X82647344Y-81108183D02*
X82694963Y-81203421D01*
X82694963Y-81203421D02*
X82694963Y-81298659D01*
X82694963Y-81298659D02*
X82647344Y-81393897D01*
X82647344Y-81393897D02*
X82599724Y-81441516D01*
X82599724Y-81441516D02*
X82504486Y-81489135D01*
X82504486Y-81489135D02*
X82314010Y-81536754D01*
X82314010Y-81536754D02*
X82075915Y-81536754D01*
X82075915Y-81536754D02*
X81885439Y-81489135D01*
X81885439Y-81489135D02*
X81790201Y-81441516D01*
X81790201Y-81441516D02*
X81742582Y-81393897D01*
X81742582Y-81393897D02*
X81694963Y-81298659D01*
X90825208Y-104411766D02*
X90777589Y-104459386D01*
X90777589Y-104459386D02*
X90634732Y-104507005D01*
X90634732Y-104507005D02*
X90539494Y-104507005D01*
X90539494Y-104507005D02*
X90396637Y-104459386D01*
X90396637Y-104459386D02*
X90301399Y-104364147D01*
X90301399Y-104364147D02*
X90253780Y-104268909D01*
X90253780Y-104268909D02*
X90206161Y-104078433D01*
X90206161Y-104078433D02*
X90206161Y-103935576D01*
X90206161Y-103935576D02*
X90253780Y-103745100D01*
X90253780Y-103745100D02*
X90301399Y-103649862D01*
X90301399Y-103649862D02*
X90396637Y-103554624D01*
X90396637Y-103554624D02*
X90539494Y-103507005D01*
X90539494Y-103507005D02*
X90634732Y-103507005D01*
X90634732Y-103507005D02*
X90777589Y-103554624D01*
X90777589Y-103554624D02*
X90825208Y-103602243D01*
X91682351Y-103840338D02*
X91682351Y-104507005D01*
X91444256Y-103459386D02*
X91206161Y-104173671D01*
X91206161Y-104173671D02*
X91825208Y-104173671D01*
X92110923Y-103507005D02*
X92729970Y-103507005D01*
X92729970Y-103507005D02*
X92396637Y-103887957D01*
X92396637Y-103887957D02*
X92539494Y-103887957D01*
X92539494Y-103887957D02*
X92634732Y-103935576D01*
X92634732Y-103935576D02*
X92682351Y-103983195D01*
X92682351Y-103983195D02*
X92729970Y-104078433D01*
X92729970Y-104078433D02*
X92729970Y-104316528D01*
X92729970Y-104316528D02*
X92682351Y-104411766D01*
X92682351Y-104411766D02*
X92634732Y-104459386D01*
X92634732Y-104459386D02*
X92539494Y-104507005D01*
X92539494Y-104507005D02*
X92253780Y-104507005D01*
X92253780Y-104507005D02*
X92158542Y-104459386D01*
X92158542Y-104459386D02*
X92110923Y-104411766D01*
X92454819Y-77142857D02*
X91978628Y-77476190D01*
X92454819Y-77714285D02*
X91454819Y-77714285D01*
X91454819Y-77714285D02*
X91454819Y-77333333D01*
X91454819Y-77333333D02*
X91502438Y-77238095D01*
X91502438Y-77238095D02*
X91550057Y-77190476D01*
X91550057Y-77190476D02*
X91645295Y-77142857D01*
X91645295Y-77142857D02*
X91788152Y-77142857D01*
X91788152Y-77142857D02*
X91883390Y-77190476D01*
X91883390Y-77190476D02*
X91931009Y-77238095D01*
X91931009Y-77238095D02*
X91978628Y-77333333D01*
X91978628Y-77333333D02*
X91978628Y-77714285D01*
X91550057Y-76761904D02*
X91502438Y-76714285D01*
X91502438Y-76714285D02*
X91454819Y-76619047D01*
X91454819Y-76619047D02*
X91454819Y-76380952D01*
X91454819Y-76380952D02*
X91502438Y-76285714D01*
X91502438Y-76285714D02*
X91550057Y-76238095D01*
X91550057Y-76238095D02*
X91645295Y-76190476D01*
X91645295Y-76190476D02*
X91740533Y-76190476D01*
X91740533Y-76190476D02*
X91883390Y-76238095D01*
X91883390Y-76238095D02*
X92454819Y-76809523D01*
X92454819Y-76809523D02*
X92454819Y-76190476D01*
X91454819Y-75285714D02*
X91454819Y-75761904D01*
X91454819Y-75761904D02*
X91931009Y-75809523D01*
X91931009Y-75809523D02*
X91883390Y-75761904D01*
X91883390Y-75761904D02*
X91835771Y-75666666D01*
X91835771Y-75666666D02*
X91835771Y-75428571D01*
X91835771Y-75428571D02*
X91883390Y-75333333D01*
X91883390Y-75333333D02*
X91931009Y-75285714D01*
X91931009Y-75285714D02*
X92026247Y-75238095D01*
X92026247Y-75238095D02*
X92264342Y-75238095D01*
X92264342Y-75238095D02*
X92359580Y-75285714D01*
X92359580Y-75285714D02*
X92407200Y-75333333D01*
X92407200Y-75333333D02*
X92454819Y-75428571D01*
X92454819Y-75428571D02*
X92454819Y-75666666D01*
X92454819Y-75666666D02*
X92407200Y-75761904D01*
X92407200Y-75761904D02*
X92359580Y-75809523D01*
X123955070Y-101238495D02*
X122954527Y-101238495D01*
X122954527Y-101238495D02*
X122954527Y-101000270D01*
X122954527Y-101000270D02*
X123002172Y-100857336D01*
X123002172Y-100857336D02*
X123097462Y-100762046D01*
X123097462Y-100762046D02*
X123192752Y-100714401D01*
X123192752Y-100714401D02*
X123383332Y-100666756D01*
X123383332Y-100666756D02*
X123526266Y-100666756D01*
X123526266Y-100666756D02*
X123716846Y-100714401D01*
X123716846Y-100714401D02*
X123812136Y-100762046D01*
X123812136Y-100762046D02*
X123907426Y-100857336D01*
X123907426Y-100857336D02*
X123955070Y-101000270D01*
X123955070Y-101000270D02*
X123955070Y-101238495D01*
X123049817Y-100285597D02*
X123002172Y-100237952D01*
X123002172Y-100237952D02*
X122954527Y-100142662D01*
X122954527Y-100142662D02*
X122954527Y-99904438D01*
X122954527Y-99904438D02*
X123002172Y-99809148D01*
X123002172Y-99809148D02*
X123049817Y-99761503D01*
X123049817Y-99761503D02*
X123145107Y-99713858D01*
X123145107Y-99713858D02*
X123240397Y-99713858D01*
X123240397Y-99713858D02*
X123383332Y-99761503D01*
X123383332Y-99761503D02*
X123955070Y-100333242D01*
X123955070Y-100333242D02*
X123955070Y-99713858D01*
X111644037Y-70637741D02*
X112026721Y-69713861D01*
X112026721Y-69713861D02*
X112246692Y-69804976D01*
X112246692Y-69804976D02*
X112360452Y-69903640D01*
X112360452Y-69903640D02*
X112411994Y-70028074D01*
X112411994Y-70028074D02*
X112419542Y-70134286D01*
X112419542Y-70134286D02*
X112390645Y-70328486D01*
X112390645Y-70328486D02*
X112335975Y-70460469D01*
X112335975Y-70460469D02*
X112219089Y-70618223D01*
X112219089Y-70618223D02*
X112138649Y-70687988D01*
X112138649Y-70687988D02*
X112014214Y-70739531D01*
X112014214Y-70739531D02*
X111864008Y-70728856D01*
X111864008Y-70728856D02*
X111644037Y-70637741D01*
X113346548Y-70260552D02*
X113170571Y-70187660D01*
X113170571Y-70187660D02*
X113064360Y-70195208D01*
X113064360Y-70195208D02*
X113002143Y-70220979D01*
X113002143Y-70220979D02*
X112859485Y-70316516D01*
X112859485Y-70316516D02*
X112742599Y-70474270D01*
X112742599Y-70474270D02*
X112596814Y-70826224D01*
X112596814Y-70826224D02*
X112604363Y-70932436D01*
X112604363Y-70932436D02*
X112630134Y-70994653D01*
X112630134Y-70994653D02*
X112699899Y-71075093D01*
X112699899Y-71075093D02*
X112875877Y-71147985D01*
X112875877Y-71147985D02*
X112982088Y-71140437D01*
X112982088Y-71140437D02*
X113044305Y-71114666D01*
X113044305Y-71114666D02*
X113124746Y-71044900D01*
X113124746Y-71044900D02*
X113215861Y-70824929D01*
X113215861Y-70824929D02*
X113208313Y-70718718D01*
X113208313Y-70718718D02*
X113182541Y-70656500D01*
X113182541Y-70656500D02*
X113112776Y-70576060D01*
X113112776Y-70576060D02*
X112936799Y-70503168D01*
X112936799Y-70503168D02*
X112830587Y-70510716D01*
X112830587Y-70510716D02*
X112768370Y-70536487D01*
X112768370Y-70536487D02*
X112687930Y-70606253D01*
X90825208Y-102911766D02*
X90777589Y-102959386D01*
X90777589Y-102959386D02*
X90634732Y-103007005D01*
X90634732Y-103007005D02*
X90539494Y-103007005D01*
X90539494Y-103007005D02*
X90396637Y-102959386D01*
X90396637Y-102959386D02*
X90301399Y-102864147D01*
X90301399Y-102864147D02*
X90253780Y-102768909D01*
X90253780Y-102768909D02*
X90206161Y-102578433D01*
X90206161Y-102578433D02*
X90206161Y-102435576D01*
X90206161Y-102435576D02*
X90253780Y-102245100D01*
X90253780Y-102245100D02*
X90301399Y-102149862D01*
X90301399Y-102149862D02*
X90396637Y-102054624D01*
X90396637Y-102054624D02*
X90539494Y-102007005D01*
X90539494Y-102007005D02*
X90634732Y-102007005D01*
X90634732Y-102007005D02*
X90777589Y-102054624D01*
X90777589Y-102054624D02*
X90825208Y-102102243D01*
X91682351Y-102340338D02*
X91682351Y-103007005D01*
X91444256Y-101959386D02*
X91206161Y-102673671D01*
X91206161Y-102673671D02*
X91825208Y-102673671D01*
X92396637Y-102007005D02*
X92491875Y-102007005D01*
X92491875Y-102007005D02*
X92587113Y-102054624D01*
X92587113Y-102054624D02*
X92634732Y-102102243D01*
X92634732Y-102102243D02*
X92682351Y-102197481D01*
X92682351Y-102197481D02*
X92729970Y-102387957D01*
X92729970Y-102387957D02*
X92729970Y-102626052D01*
X92729970Y-102626052D02*
X92682351Y-102816528D01*
X92682351Y-102816528D02*
X92634732Y-102911766D01*
X92634732Y-102911766D02*
X92587113Y-102959386D01*
X92587113Y-102959386D02*
X92491875Y-103007005D01*
X92491875Y-103007005D02*
X92396637Y-103007005D01*
X92396637Y-103007005D02*
X92301399Y-102959386D01*
X92301399Y-102959386D02*
X92253780Y-102911766D01*
X92253780Y-102911766D02*
X92206161Y-102816528D01*
X92206161Y-102816528D02*
X92158542Y-102626052D01*
X92158542Y-102626052D02*
X92158542Y-102387957D01*
X92158542Y-102387957D02*
X92206161Y-102197481D01*
X92206161Y-102197481D02*
X92253780Y-102102243D01*
X92253780Y-102102243D02*
X92301399Y-102054624D01*
X92301399Y-102054624D02*
X92396637Y-102007005D01*
X72664616Y-102050057D02*
X72569378Y-102002438D01*
X72569378Y-102002438D02*
X72474140Y-101907200D01*
X72474140Y-101907200D02*
X72331283Y-101764342D01*
X72331283Y-101764342D02*
X72236045Y-101716723D01*
X72236045Y-101716723D02*
X72140807Y-101716723D01*
X72188426Y-101954819D02*
X72093188Y-101907200D01*
X72093188Y-101907200D02*
X71997950Y-101811961D01*
X71997950Y-101811961D02*
X71950331Y-101621485D01*
X71950331Y-101621485D02*
X71950331Y-101288152D01*
X71950331Y-101288152D02*
X71997950Y-101097676D01*
X71997950Y-101097676D02*
X72093188Y-101002438D01*
X72093188Y-101002438D02*
X72188426Y-100954819D01*
X72188426Y-100954819D02*
X72378902Y-100954819D01*
X72378902Y-100954819D02*
X72474140Y-101002438D01*
X72474140Y-101002438D02*
X72569378Y-101097676D01*
X72569378Y-101097676D02*
X72616997Y-101288152D01*
X72616997Y-101288152D02*
X72616997Y-101621485D01*
X72616997Y-101621485D02*
X72569378Y-101811961D01*
X72569378Y-101811961D02*
X72474140Y-101907200D01*
X72474140Y-101907200D02*
X72378902Y-101954819D01*
X72378902Y-101954819D02*
X72188426Y-101954819D01*
X72997950Y-101050057D02*
X73045569Y-101002438D01*
X73045569Y-101002438D02*
X73140807Y-100954819D01*
X73140807Y-100954819D02*
X73378902Y-100954819D01*
X73378902Y-100954819D02*
X73474140Y-101002438D01*
X73474140Y-101002438D02*
X73521759Y-101050057D01*
X73521759Y-101050057D02*
X73569378Y-101145295D01*
X73569378Y-101145295D02*
X73569378Y-101240533D01*
X73569378Y-101240533D02*
X73521759Y-101383390D01*
X73521759Y-101383390D02*
X72950331Y-101954819D01*
X72950331Y-101954819D02*
X73569378Y-101954819D01*
X85454819Y-91142857D02*
X84978628Y-91476190D01*
X85454819Y-91714285D02*
X84454819Y-91714285D01*
X84454819Y-91714285D02*
X84454819Y-91333333D01*
X84454819Y-91333333D02*
X84502438Y-91238095D01*
X84502438Y-91238095D02*
X84550057Y-91190476D01*
X84550057Y-91190476D02*
X84645295Y-91142857D01*
X84645295Y-91142857D02*
X84788152Y-91142857D01*
X84788152Y-91142857D02*
X84883390Y-91190476D01*
X84883390Y-91190476D02*
X84931009Y-91238095D01*
X84931009Y-91238095D02*
X84978628Y-91333333D01*
X84978628Y-91333333D02*
X84978628Y-91714285D01*
X84550057Y-90761904D02*
X84502438Y-90714285D01*
X84502438Y-90714285D02*
X84454819Y-90619047D01*
X84454819Y-90619047D02*
X84454819Y-90380952D01*
X84454819Y-90380952D02*
X84502438Y-90285714D01*
X84502438Y-90285714D02*
X84550057Y-90238095D01*
X84550057Y-90238095D02*
X84645295Y-90190476D01*
X84645295Y-90190476D02*
X84740533Y-90190476D01*
X84740533Y-90190476D02*
X84883390Y-90238095D01*
X84883390Y-90238095D02*
X85454819Y-90809523D01*
X85454819Y-90809523D02*
X85454819Y-90190476D01*
X84550057Y-89809523D02*
X84502438Y-89761904D01*
X84502438Y-89761904D02*
X84454819Y-89666666D01*
X84454819Y-89666666D02*
X84454819Y-89428571D01*
X84454819Y-89428571D02*
X84502438Y-89333333D01*
X84502438Y-89333333D02*
X84550057Y-89285714D01*
X84550057Y-89285714D02*
X84645295Y-89238095D01*
X84645295Y-89238095D02*
X84740533Y-89238095D01*
X84740533Y-89238095D02*
X84883390Y-89285714D01*
X84883390Y-89285714D02*
X85454819Y-89857142D01*
X85454819Y-89857142D02*
X85454819Y-89238095D01*
X76799693Y-78343517D02*
X76092587Y-77636410D01*
X76092587Y-77636410D02*
X76260945Y-77468051D01*
X76260945Y-77468051D02*
X76395632Y-77400708D01*
X76395632Y-77400708D02*
X76530319Y-77400708D01*
X76530319Y-77400708D02*
X76631335Y-77434380D01*
X76631335Y-77434380D02*
X76799693Y-77535395D01*
X76799693Y-77535395D02*
X76900709Y-77636410D01*
X76900709Y-77636410D02*
X77001724Y-77804769D01*
X77001724Y-77804769D02*
X77035396Y-77905784D01*
X77035396Y-77905784D02*
X77035396Y-78040471D01*
X77035396Y-78040471D02*
X76968052Y-78175158D01*
X76968052Y-78175158D02*
X76799693Y-78343517D01*
X77540472Y-77602738D02*
X77675159Y-77468051D01*
X77675159Y-77468051D02*
X77708831Y-77367036D01*
X77708831Y-77367036D02*
X77708831Y-77299693D01*
X77708831Y-77299693D02*
X77675159Y-77131334D01*
X77675159Y-77131334D02*
X77574144Y-76962975D01*
X77574144Y-76962975D02*
X77304770Y-76693601D01*
X77304770Y-76693601D02*
X77203754Y-76659929D01*
X77203754Y-76659929D02*
X77136411Y-76659929D01*
X77136411Y-76659929D02*
X77035396Y-76693601D01*
X77035396Y-76693601D02*
X76900709Y-76828288D01*
X76900709Y-76828288D02*
X76867037Y-76929303D01*
X76867037Y-76929303D02*
X76867037Y-76996647D01*
X76867037Y-76996647D02*
X76900709Y-77097662D01*
X76900709Y-77097662D02*
X77069067Y-77266021D01*
X77069067Y-77266021D02*
X77170083Y-77299693D01*
X77170083Y-77299693D02*
X77237426Y-77299693D01*
X77237426Y-77299693D02*
X77338441Y-77266021D01*
X77338441Y-77266021D02*
X77473128Y-77131334D01*
X77473128Y-77131334D02*
X77506800Y-77030319D01*
X77506800Y-77030319D02*
X77506800Y-76962975D01*
X77506800Y-76962975D02*
X77473128Y-76861960D01*
X98285714Y-132954819D02*
X98285714Y-131954819D01*
X98285714Y-131954819D02*
X98523809Y-131954819D01*
X98523809Y-131954819D02*
X98666666Y-132002438D01*
X98666666Y-132002438D02*
X98761904Y-132097676D01*
X98761904Y-132097676D02*
X98809523Y-132192914D01*
X98809523Y-132192914D02*
X98857142Y-132383390D01*
X98857142Y-132383390D02*
X98857142Y-132526247D01*
X98857142Y-132526247D02*
X98809523Y-132716723D01*
X98809523Y-132716723D02*
X98761904Y-132811961D01*
X98761904Y-132811961D02*
X98666666Y-132907200D01*
X98666666Y-132907200D02*
X98523809Y-132954819D01*
X98523809Y-132954819D02*
X98285714Y-132954819D01*
X99809523Y-132954819D02*
X99238095Y-132954819D01*
X99523809Y-132954819D02*
X99523809Y-131954819D01*
X99523809Y-131954819D02*
X99428571Y-132097676D01*
X99428571Y-132097676D02*
X99333333Y-132192914D01*
X99333333Y-132192914D02*
X99238095Y-132240533D01*
X100714285Y-131954819D02*
X100238095Y-131954819D01*
X100238095Y-131954819D02*
X100190476Y-132431009D01*
X100190476Y-132431009D02*
X100238095Y-132383390D01*
X100238095Y-132383390D02*
X100333333Y-132335771D01*
X100333333Y-132335771D02*
X100571428Y-132335771D01*
X100571428Y-132335771D02*
X100666666Y-132383390D01*
X100666666Y-132383390D02*
X100714285Y-132431009D01*
X100714285Y-132431009D02*
X100761904Y-132526247D01*
X100761904Y-132526247D02*
X100761904Y-132764342D01*
X100761904Y-132764342D02*
X100714285Y-132859580D01*
X100714285Y-132859580D02*
X100666666Y-132907200D01*
X100666666Y-132907200D02*
X100571428Y-132954819D01*
X100571428Y-132954819D02*
X100333333Y-132954819D01*
X100333333Y-132954819D02*
X100238095Y-132907200D01*
X100238095Y-132907200D02*
X100190476Y-132859580D01*
X103519580Y-130642857D02*
X103567200Y-130690476D01*
X103567200Y-130690476D02*
X103614819Y-130833333D01*
X103614819Y-130833333D02*
X103614819Y-130928571D01*
X103614819Y-130928571D02*
X103567200Y-131071428D01*
X103567200Y-131071428D02*
X103471961Y-131166666D01*
X103471961Y-131166666D02*
X103376723Y-131214285D01*
X103376723Y-131214285D02*
X103186247Y-131261904D01*
X103186247Y-131261904D02*
X103043390Y-131261904D01*
X103043390Y-131261904D02*
X102852914Y-131214285D01*
X102852914Y-131214285D02*
X102757676Y-131166666D01*
X102757676Y-131166666D02*
X102662438Y-131071428D01*
X102662438Y-131071428D02*
X102614819Y-130928571D01*
X102614819Y-130928571D02*
X102614819Y-130833333D01*
X102614819Y-130833333D02*
X102662438Y-130690476D01*
X102662438Y-130690476D02*
X102710057Y-130642857D01*
X102614819Y-130309523D02*
X102614819Y-129690476D01*
X102614819Y-129690476D02*
X102995771Y-130023809D01*
X102995771Y-130023809D02*
X102995771Y-129880952D01*
X102995771Y-129880952D02*
X103043390Y-129785714D01*
X103043390Y-129785714D02*
X103091009Y-129738095D01*
X103091009Y-129738095D02*
X103186247Y-129690476D01*
X103186247Y-129690476D02*
X103424342Y-129690476D01*
X103424342Y-129690476D02*
X103519580Y-129738095D01*
X103519580Y-129738095D02*
X103567200Y-129785714D01*
X103567200Y-129785714D02*
X103614819Y-129880952D01*
X103614819Y-129880952D02*
X103614819Y-130166666D01*
X103614819Y-130166666D02*
X103567200Y-130261904D01*
X103567200Y-130261904D02*
X103519580Y-130309523D01*
X103614819Y-128738095D02*
X103614819Y-129309523D01*
X103614819Y-129023809D02*
X102614819Y-129023809D01*
X102614819Y-129023809D02*
X102757676Y-129119047D01*
X102757676Y-129119047D02*
X102852914Y-129214285D01*
X102852914Y-129214285D02*
X102900533Y-129309523D01*
X76357142Y-81859580D02*
X76309523Y-81907200D01*
X76309523Y-81907200D02*
X76166666Y-81954819D01*
X76166666Y-81954819D02*
X76071428Y-81954819D01*
X76071428Y-81954819D02*
X75928571Y-81907200D01*
X75928571Y-81907200D02*
X75833333Y-81811961D01*
X75833333Y-81811961D02*
X75785714Y-81716723D01*
X75785714Y-81716723D02*
X75738095Y-81526247D01*
X75738095Y-81526247D02*
X75738095Y-81383390D01*
X75738095Y-81383390D02*
X75785714Y-81192914D01*
X75785714Y-81192914D02*
X75833333Y-81097676D01*
X75833333Y-81097676D02*
X75928571Y-81002438D01*
X75928571Y-81002438D02*
X76071428Y-80954819D01*
X76071428Y-80954819D02*
X76166666Y-80954819D01*
X76166666Y-80954819D02*
X76309523Y-81002438D01*
X76309523Y-81002438D02*
X76357142Y-81050057D01*
X77261904Y-80954819D02*
X76785714Y-80954819D01*
X76785714Y-80954819D02*
X76738095Y-81431009D01*
X76738095Y-81431009D02*
X76785714Y-81383390D01*
X76785714Y-81383390D02*
X76880952Y-81335771D01*
X76880952Y-81335771D02*
X77119047Y-81335771D01*
X77119047Y-81335771D02*
X77214285Y-81383390D01*
X77214285Y-81383390D02*
X77261904Y-81431009D01*
X77261904Y-81431009D02*
X77309523Y-81526247D01*
X77309523Y-81526247D02*
X77309523Y-81764342D01*
X77309523Y-81764342D02*
X77261904Y-81859580D01*
X77261904Y-81859580D02*
X77214285Y-81907200D01*
X77214285Y-81907200D02*
X77119047Y-81954819D01*
X77119047Y-81954819D02*
X76880952Y-81954819D01*
X76880952Y-81954819D02*
X76785714Y-81907200D01*
X76785714Y-81907200D02*
X76738095Y-81859580D01*
X78261904Y-81954819D02*
X77690476Y-81954819D01*
X77976190Y-81954819D02*
X77976190Y-80954819D01*
X77976190Y-80954819D02*
X77880952Y-81097676D01*
X77880952Y-81097676D02*
X77785714Y-81192914D01*
X77785714Y-81192914D02*
X77690476Y-81240533D01*
X90825208Y-99911766D02*
X90777589Y-99959386D01*
X90777589Y-99959386D02*
X90634732Y-100007005D01*
X90634732Y-100007005D02*
X90539494Y-100007005D01*
X90539494Y-100007005D02*
X90396637Y-99959386D01*
X90396637Y-99959386D02*
X90301399Y-99864147D01*
X90301399Y-99864147D02*
X90253780Y-99768909D01*
X90253780Y-99768909D02*
X90206161Y-99578433D01*
X90206161Y-99578433D02*
X90206161Y-99435576D01*
X90206161Y-99435576D02*
X90253780Y-99245100D01*
X90253780Y-99245100D02*
X90301399Y-99149862D01*
X90301399Y-99149862D02*
X90396637Y-99054624D01*
X90396637Y-99054624D02*
X90539494Y-99007005D01*
X90539494Y-99007005D02*
X90634732Y-99007005D01*
X90634732Y-99007005D02*
X90777589Y-99054624D01*
X90777589Y-99054624D02*
X90825208Y-99102243D01*
X91158542Y-99007005D02*
X91777589Y-99007005D01*
X91777589Y-99007005D02*
X91444256Y-99387957D01*
X91444256Y-99387957D02*
X91587113Y-99387957D01*
X91587113Y-99387957D02*
X91682351Y-99435576D01*
X91682351Y-99435576D02*
X91729970Y-99483195D01*
X91729970Y-99483195D02*
X91777589Y-99578433D01*
X91777589Y-99578433D02*
X91777589Y-99816528D01*
X91777589Y-99816528D02*
X91729970Y-99911766D01*
X91729970Y-99911766D02*
X91682351Y-99959386D01*
X91682351Y-99959386D02*
X91587113Y-100007005D01*
X91587113Y-100007005D02*
X91301399Y-100007005D01*
X91301399Y-100007005D02*
X91206161Y-99959386D01*
X91206161Y-99959386D02*
X91158542Y-99911766D01*
X92110923Y-99007005D02*
X92777589Y-99007005D01*
X92777589Y-99007005D02*
X92349018Y-100007005D01*
X90825208Y-107411766D02*
X90777589Y-107459386D01*
X90777589Y-107459386D02*
X90634732Y-107507005D01*
X90634732Y-107507005D02*
X90539494Y-107507005D01*
X90539494Y-107507005D02*
X90396637Y-107459386D01*
X90396637Y-107459386D02*
X90301399Y-107364147D01*
X90301399Y-107364147D02*
X90253780Y-107268909D01*
X90253780Y-107268909D02*
X90206161Y-107078433D01*
X90206161Y-107078433D02*
X90206161Y-106935576D01*
X90206161Y-106935576D02*
X90253780Y-106745100D01*
X90253780Y-106745100D02*
X90301399Y-106649862D01*
X90301399Y-106649862D02*
X90396637Y-106554624D01*
X90396637Y-106554624D02*
X90539494Y-106507005D01*
X90539494Y-106507005D02*
X90634732Y-106507005D01*
X90634732Y-106507005D02*
X90777589Y-106554624D01*
X90777589Y-106554624D02*
X90825208Y-106602243D01*
X91682351Y-106840338D02*
X91682351Y-107507005D01*
X91444256Y-106459386D02*
X91206161Y-107173671D01*
X91206161Y-107173671D02*
X91825208Y-107173671D01*
X92682351Y-106507005D02*
X92206161Y-106507005D01*
X92206161Y-106507005D02*
X92158542Y-106983195D01*
X92158542Y-106983195D02*
X92206161Y-106935576D01*
X92206161Y-106935576D02*
X92301399Y-106887957D01*
X92301399Y-106887957D02*
X92539494Y-106887957D01*
X92539494Y-106887957D02*
X92634732Y-106935576D01*
X92634732Y-106935576D02*
X92682351Y-106983195D01*
X92682351Y-106983195D02*
X92729970Y-107078433D01*
X92729970Y-107078433D02*
X92729970Y-107316528D01*
X92729970Y-107316528D02*
X92682351Y-107411766D01*
X92682351Y-107411766D02*
X92634732Y-107459386D01*
X92634732Y-107459386D02*
X92539494Y-107507005D01*
X92539494Y-107507005D02*
X92301399Y-107507005D01*
X92301399Y-107507005D02*
X92206161Y-107459386D01*
X92206161Y-107459386D02*
X92158542Y-107411766D01*
D13*
X83976667Y-84304318D02*
X83976667Y-85211461D01*
X83976667Y-85211461D02*
X83916190Y-85392889D01*
X83916190Y-85392889D02*
X83795238Y-85513842D01*
X83795238Y-85513842D02*
X83613809Y-85574318D01*
X83613809Y-85574318D02*
X83492857Y-85574318D01*
X85186190Y-84304318D02*
X84581428Y-84304318D01*
X84581428Y-84304318D02*
X84520952Y-84909080D01*
X84520952Y-84909080D02*
X84581428Y-84848603D01*
X84581428Y-84848603D02*
X84702381Y-84788127D01*
X84702381Y-84788127D02*
X85004762Y-84788127D01*
X85004762Y-84788127D02*
X85125714Y-84848603D01*
X85125714Y-84848603D02*
X85186190Y-84909080D01*
X85186190Y-84909080D02*
X85246667Y-85030032D01*
X85246667Y-85030032D02*
X85246667Y-85332413D01*
X85246667Y-85332413D02*
X85186190Y-85453365D01*
X85186190Y-85453365D02*
X85125714Y-85513842D01*
X85125714Y-85513842D02*
X85004762Y-85574318D01*
X85004762Y-85574318D02*
X84702381Y-85574318D01*
X84702381Y-85574318D02*
X84581428Y-85513842D01*
X84581428Y-85513842D02*
X84520952Y-85453365D01*
D11*
X132954819Y-100738094D02*
X131954819Y-100738094D01*
X131954819Y-100738094D02*
X131954819Y-100499999D01*
X131954819Y-100499999D02*
X132002438Y-100357142D01*
X132002438Y-100357142D02*
X132097676Y-100261904D01*
X132097676Y-100261904D02*
X132192914Y-100214285D01*
X132192914Y-100214285D02*
X132383390Y-100166666D01*
X132383390Y-100166666D02*
X132526247Y-100166666D01*
X132526247Y-100166666D02*
X132716723Y-100214285D01*
X132716723Y-100214285D02*
X132811961Y-100261904D01*
X132811961Y-100261904D02*
X132907200Y-100357142D01*
X132907200Y-100357142D02*
X132954819Y-100499999D01*
X132954819Y-100499999D02*
X132954819Y-100738094D01*
X131954819Y-99833332D02*
X131954819Y-99214285D01*
X131954819Y-99214285D02*
X132335771Y-99547618D01*
X132335771Y-99547618D02*
X132335771Y-99404761D01*
X132335771Y-99404761D02*
X132383390Y-99309523D01*
X132383390Y-99309523D02*
X132431009Y-99261904D01*
X132431009Y-99261904D02*
X132526247Y-99214285D01*
X132526247Y-99214285D02*
X132764342Y-99214285D01*
X132764342Y-99214285D02*
X132859580Y-99261904D01*
X132859580Y-99261904D02*
X132907200Y-99309523D01*
X132907200Y-99309523D02*
X132954819Y-99404761D01*
X132954819Y-99404761D02*
X132954819Y-99690475D01*
X132954819Y-99690475D02*
X132907200Y-99785713D01*
X132907200Y-99785713D02*
X132859580Y-99833332D01*
X119558819Y-85848333D02*
X120273104Y-85848333D01*
X120273104Y-85848333D02*
X120415961Y-85895952D01*
X120415961Y-85895952D02*
X120511200Y-85991190D01*
X120511200Y-85991190D02*
X120558819Y-86134047D01*
X120558819Y-86134047D02*
X120558819Y-86229285D01*
X119654057Y-85419761D02*
X119606438Y-85372142D01*
X119606438Y-85372142D02*
X119558819Y-85276904D01*
X119558819Y-85276904D02*
X119558819Y-85038809D01*
X119558819Y-85038809D02*
X119606438Y-84943571D01*
X119606438Y-84943571D02*
X119654057Y-84895952D01*
X119654057Y-84895952D02*
X119749295Y-84848333D01*
X119749295Y-84848333D02*
X119844533Y-84848333D01*
X119844533Y-84848333D02*
X119987390Y-84895952D01*
X119987390Y-84895952D02*
X120558819Y-85467380D01*
X120558819Y-85467380D02*
X120558819Y-84848333D01*
X129789580Y-104142857D02*
X129837200Y-104190476D01*
X129837200Y-104190476D02*
X129884819Y-104333333D01*
X129884819Y-104333333D02*
X129884819Y-104428571D01*
X129884819Y-104428571D02*
X129837200Y-104571428D01*
X129837200Y-104571428D02*
X129741961Y-104666666D01*
X129741961Y-104666666D02*
X129646723Y-104714285D01*
X129646723Y-104714285D02*
X129456247Y-104761904D01*
X129456247Y-104761904D02*
X129313390Y-104761904D01*
X129313390Y-104761904D02*
X129122914Y-104714285D01*
X129122914Y-104714285D02*
X129027676Y-104666666D01*
X129027676Y-104666666D02*
X128932438Y-104571428D01*
X128932438Y-104571428D02*
X128884819Y-104428571D01*
X128884819Y-104428571D02*
X128884819Y-104333333D01*
X128884819Y-104333333D02*
X128932438Y-104190476D01*
X128932438Y-104190476D02*
X128980057Y-104142857D01*
X128980057Y-103761904D02*
X128932438Y-103714285D01*
X128932438Y-103714285D02*
X128884819Y-103619047D01*
X128884819Y-103619047D02*
X128884819Y-103380952D01*
X128884819Y-103380952D02*
X128932438Y-103285714D01*
X128932438Y-103285714D02*
X128980057Y-103238095D01*
X128980057Y-103238095D02*
X129075295Y-103190476D01*
X129075295Y-103190476D02*
X129170533Y-103190476D01*
X129170533Y-103190476D02*
X129313390Y-103238095D01*
X129313390Y-103238095D02*
X129884819Y-103809523D01*
X129884819Y-103809523D02*
X129884819Y-103190476D01*
X128884819Y-102285714D02*
X128884819Y-102761904D01*
X128884819Y-102761904D02*
X129361009Y-102809523D01*
X129361009Y-102809523D02*
X129313390Y-102761904D01*
X129313390Y-102761904D02*
X129265771Y-102666666D01*
X129265771Y-102666666D02*
X129265771Y-102428571D01*
X129265771Y-102428571D02*
X129313390Y-102333333D01*
X129313390Y-102333333D02*
X129361009Y-102285714D01*
X129361009Y-102285714D02*
X129456247Y-102238095D01*
X129456247Y-102238095D02*
X129694342Y-102238095D01*
X129694342Y-102238095D02*
X129789580Y-102285714D01*
X129789580Y-102285714D02*
X129837200Y-102333333D01*
X129837200Y-102333333D02*
X129884819Y-102428571D01*
X129884819Y-102428571D02*
X129884819Y-102666666D01*
X129884819Y-102666666D02*
X129837200Y-102761904D01*
X129837200Y-102761904D02*
X129789580Y-102809523D01*
X90825208Y-105911766D02*
X90777589Y-105959386D01*
X90777589Y-105959386D02*
X90634732Y-106007005D01*
X90634732Y-106007005D02*
X90539494Y-106007005D01*
X90539494Y-106007005D02*
X90396637Y-105959386D01*
X90396637Y-105959386D02*
X90301399Y-105864147D01*
X90301399Y-105864147D02*
X90253780Y-105768909D01*
X90253780Y-105768909D02*
X90206161Y-105578433D01*
X90206161Y-105578433D02*
X90206161Y-105435576D01*
X90206161Y-105435576D02*
X90253780Y-105245100D01*
X90253780Y-105245100D02*
X90301399Y-105149862D01*
X90301399Y-105149862D02*
X90396637Y-105054624D01*
X90396637Y-105054624D02*
X90539494Y-105007005D01*
X90539494Y-105007005D02*
X90634732Y-105007005D01*
X90634732Y-105007005D02*
X90777589Y-105054624D01*
X90777589Y-105054624D02*
X90825208Y-105102243D01*
X91682351Y-105340338D02*
X91682351Y-106007005D01*
X91444256Y-104959386D02*
X91206161Y-105673671D01*
X91206161Y-105673671D02*
X91825208Y-105673671D01*
X92634732Y-105340338D02*
X92634732Y-106007005D01*
X92396637Y-104959386D02*
X92158542Y-105673671D01*
X92158542Y-105673671D02*
X92777589Y-105673671D01*
X101857142Y-72359580D02*
X101809523Y-72407200D01*
X101809523Y-72407200D02*
X101666666Y-72454819D01*
X101666666Y-72454819D02*
X101571428Y-72454819D01*
X101571428Y-72454819D02*
X101428571Y-72407200D01*
X101428571Y-72407200D02*
X101333333Y-72311961D01*
X101333333Y-72311961D02*
X101285714Y-72216723D01*
X101285714Y-72216723D02*
X101238095Y-72026247D01*
X101238095Y-72026247D02*
X101238095Y-71883390D01*
X101238095Y-71883390D02*
X101285714Y-71692914D01*
X101285714Y-71692914D02*
X101333333Y-71597676D01*
X101333333Y-71597676D02*
X101428571Y-71502438D01*
X101428571Y-71502438D02*
X101571428Y-71454819D01*
X101571428Y-71454819D02*
X101666666Y-71454819D01*
X101666666Y-71454819D02*
X101809523Y-71502438D01*
X101809523Y-71502438D02*
X101857142Y-71550057D01*
X102809523Y-72454819D02*
X102238095Y-72454819D01*
X102523809Y-72454819D02*
X102523809Y-71454819D01*
X102523809Y-71454819D02*
X102428571Y-71597676D01*
X102428571Y-71597676D02*
X102333333Y-71692914D01*
X102333333Y-71692914D02*
X102238095Y-71740533D01*
X103285714Y-72454819D02*
X103476190Y-72454819D01*
X103476190Y-72454819D02*
X103571428Y-72407200D01*
X103571428Y-72407200D02*
X103619047Y-72359580D01*
X103619047Y-72359580D02*
X103714285Y-72216723D01*
X103714285Y-72216723D02*
X103761904Y-72026247D01*
X103761904Y-72026247D02*
X103761904Y-71645295D01*
X103761904Y-71645295D02*
X103714285Y-71550057D01*
X103714285Y-71550057D02*
X103666666Y-71502438D01*
X103666666Y-71502438D02*
X103571428Y-71454819D01*
X103571428Y-71454819D02*
X103380952Y-71454819D01*
X103380952Y-71454819D02*
X103285714Y-71502438D01*
X103285714Y-71502438D02*
X103238095Y-71550057D01*
X103238095Y-71550057D02*
X103190476Y-71645295D01*
X103190476Y-71645295D02*
X103190476Y-71883390D01*
X103190476Y-71883390D02*
X103238095Y-71978628D01*
X103238095Y-71978628D02*
X103285714Y-72026247D01*
X103285714Y-72026247D02*
X103380952Y-72073866D01*
X103380952Y-72073866D02*
X103571428Y-72073866D01*
X103571428Y-72073866D02*
X103666666Y-72026247D01*
X103666666Y-72026247D02*
X103714285Y-71978628D01*
X103714285Y-71978628D02*
X103761904Y-71883390D01*
X92833333Y-66669104D02*
X93309523Y-66669104D01*
X92738095Y-66954819D02*
X93071428Y-65954819D01*
X93071428Y-65954819D02*
X93404761Y-66954819D01*
X93738095Y-66431009D02*
X94071428Y-66431009D01*
X94214285Y-66954819D02*
X93738095Y-66954819D01*
X93738095Y-66954819D02*
X93738095Y-65954819D01*
X93738095Y-65954819D02*
X94214285Y-65954819D01*
X95166666Y-66954819D02*
X94595238Y-66954819D01*
X94880952Y-66954819D02*
X94880952Y-65954819D01*
X94880952Y-65954819D02*
X94785714Y-66097676D01*
X94785714Y-66097676D02*
X94690476Y-66192914D01*
X94690476Y-66192914D02*
X94595238Y-66240533D01*
X86359580Y-78142857D02*
X86407200Y-78190476D01*
X86407200Y-78190476D02*
X86454819Y-78333333D01*
X86454819Y-78333333D02*
X86454819Y-78428571D01*
X86454819Y-78428571D02*
X86407200Y-78571428D01*
X86407200Y-78571428D02*
X86311961Y-78666666D01*
X86311961Y-78666666D02*
X86216723Y-78714285D01*
X86216723Y-78714285D02*
X86026247Y-78761904D01*
X86026247Y-78761904D02*
X85883390Y-78761904D01*
X85883390Y-78761904D02*
X85692914Y-78714285D01*
X85692914Y-78714285D02*
X85597676Y-78666666D01*
X85597676Y-78666666D02*
X85502438Y-78571428D01*
X85502438Y-78571428D02*
X85454819Y-78428571D01*
X85454819Y-78428571D02*
X85454819Y-78333333D01*
X85454819Y-78333333D02*
X85502438Y-78190476D01*
X85502438Y-78190476D02*
X85550057Y-78142857D01*
X85454819Y-77238095D02*
X85454819Y-77714285D01*
X85454819Y-77714285D02*
X85931009Y-77761904D01*
X85931009Y-77761904D02*
X85883390Y-77714285D01*
X85883390Y-77714285D02*
X85835771Y-77619047D01*
X85835771Y-77619047D02*
X85835771Y-77380952D01*
X85835771Y-77380952D02*
X85883390Y-77285714D01*
X85883390Y-77285714D02*
X85931009Y-77238095D01*
X85931009Y-77238095D02*
X86026247Y-77190476D01*
X86026247Y-77190476D02*
X86264342Y-77190476D01*
X86264342Y-77190476D02*
X86359580Y-77238095D01*
X86359580Y-77238095D02*
X86407200Y-77285714D01*
X86407200Y-77285714D02*
X86454819Y-77380952D01*
X86454819Y-77380952D02*
X86454819Y-77619047D01*
X86454819Y-77619047D02*
X86407200Y-77714285D01*
X86407200Y-77714285D02*
X86359580Y-77761904D01*
X85454819Y-76857142D02*
X85454819Y-76238095D01*
X85454819Y-76238095D02*
X85835771Y-76571428D01*
X85835771Y-76571428D02*
X85835771Y-76428571D01*
X85835771Y-76428571D02*
X85883390Y-76333333D01*
X85883390Y-76333333D02*
X85931009Y-76285714D01*
X85931009Y-76285714D02*
X86026247Y-76238095D01*
X86026247Y-76238095D02*
X86264342Y-76238095D01*
X86264342Y-76238095D02*
X86359580Y-76285714D01*
X86359580Y-76285714D02*
X86407200Y-76333333D01*
X86407200Y-76333333D02*
X86454819Y-76428571D01*
X86454819Y-76428571D02*
X86454819Y-76714285D01*
X86454819Y-76714285D02*
X86407200Y-76809523D01*
X86407200Y-76809523D02*
X86359580Y-76857142D01*
X69955510Y-88795905D02*
X69031631Y-88413222D01*
X69031631Y-88413222D02*
X69122746Y-88193250D01*
X69122746Y-88193250D02*
X69221409Y-88079490D01*
X69221409Y-88079490D02*
X69345844Y-88027948D01*
X69345844Y-88027948D02*
X69452055Y-88020400D01*
X69452055Y-88020400D02*
X69646256Y-88049298D01*
X69646256Y-88049298D02*
X69778238Y-88103967D01*
X69778238Y-88103967D02*
X69935992Y-88220853D01*
X69935992Y-88220853D02*
X70005758Y-88301293D01*
X70005758Y-88301293D02*
X70057300Y-88425728D01*
X70057300Y-88425728D02*
X70046626Y-88575934D01*
X70046626Y-88575934D02*
X69955510Y-88795905D01*
X70538647Y-87388089D02*
X70319971Y-87916020D01*
X70429309Y-87652054D02*
X69505429Y-87269371D01*
X69505429Y-87269371D02*
X69600966Y-87412028D01*
X69600966Y-87412028D02*
X69652509Y-87536463D01*
X69652509Y-87536463D02*
X69660057Y-87642674D01*
X69851667Y-86433480D02*
X69888113Y-86345491D01*
X69888113Y-86345491D02*
X69968553Y-86275726D01*
X69968553Y-86275726D02*
X70030771Y-86249954D01*
X70030771Y-86249954D02*
X70136982Y-86242406D01*
X70136982Y-86242406D02*
X70331182Y-86271304D01*
X70331182Y-86271304D02*
X70551153Y-86362419D01*
X70551153Y-86362419D02*
X70708907Y-86479305D01*
X70708907Y-86479305D02*
X70778673Y-86559746D01*
X70778673Y-86559746D02*
X70804444Y-86621963D01*
X70804444Y-86621963D02*
X70811992Y-86728175D01*
X70811992Y-86728175D02*
X70775546Y-86816163D01*
X70775546Y-86816163D02*
X70695106Y-86885929D01*
X70695106Y-86885929D02*
X70632889Y-86911700D01*
X70632889Y-86911700D02*
X70526677Y-86919248D01*
X70526677Y-86919248D02*
X70332477Y-86890350D01*
X70332477Y-86890350D02*
X70112506Y-86799235D01*
X70112506Y-86799235D02*
X69954752Y-86682349D01*
X69954752Y-86682349D02*
X69884986Y-86601908D01*
X69884986Y-86601908D02*
X69859215Y-86539691D01*
X69859215Y-86539691D02*
X69851667Y-86433480D01*
X83788276Y-81277143D02*
X83148276Y-81277143D01*
X83148276Y-81277143D02*
X83148276Y-81124762D01*
X83148276Y-81124762D02*
X83178752Y-81033333D01*
X83178752Y-81033333D02*
X83239704Y-80972381D01*
X83239704Y-80972381D02*
X83300657Y-80941904D01*
X83300657Y-80941904D02*
X83422561Y-80911428D01*
X83422561Y-80911428D02*
X83513990Y-80911428D01*
X83513990Y-80911428D02*
X83635895Y-80941904D01*
X83635895Y-80941904D02*
X83696847Y-80972381D01*
X83696847Y-80972381D02*
X83757800Y-81033333D01*
X83757800Y-81033333D02*
X83788276Y-81124762D01*
X83788276Y-81124762D02*
X83788276Y-81277143D01*
X83209228Y-80667619D02*
X83178752Y-80637143D01*
X83178752Y-80637143D02*
X83148276Y-80576190D01*
X83148276Y-80576190D02*
X83148276Y-80423809D01*
X83148276Y-80423809D02*
X83178752Y-80362857D01*
X83178752Y-80362857D02*
X83209228Y-80332381D01*
X83209228Y-80332381D02*
X83270180Y-80301904D01*
X83270180Y-80301904D02*
X83331133Y-80301904D01*
X83331133Y-80301904D02*
X83422561Y-80332381D01*
X83422561Y-80332381D02*
X83788276Y-80698095D01*
X83788276Y-80698095D02*
X83788276Y-80301904D01*
X83148276Y-80088571D02*
X83148276Y-79692380D01*
X83148276Y-79692380D02*
X83392085Y-79905714D01*
X83392085Y-79905714D02*
X83392085Y-79814285D01*
X83392085Y-79814285D02*
X83422561Y-79753333D01*
X83422561Y-79753333D02*
X83453038Y-79722857D01*
X83453038Y-79722857D02*
X83513990Y-79692380D01*
X83513990Y-79692380D02*
X83666371Y-79692380D01*
X83666371Y-79692380D02*
X83727323Y-79722857D01*
X83727323Y-79722857D02*
X83757800Y-79753333D01*
X83757800Y-79753333D02*
X83788276Y-79814285D01*
X83788276Y-79814285D02*
X83788276Y-79997142D01*
X83788276Y-79997142D02*
X83757800Y-80058095D01*
X83757800Y-80058095D02*
X83727323Y-80088571D01*
X86954819Y-91142857D02*
X86478628Y-91476190D01*
X86954819Y-91714285D02*
X85954819Y-91714285D01*
X85954819Y-91714285D02*
X85954819Y-91333333D01*
X85954819Y-91333333D02*
X86002438Y-91238095D01*
X86002438Y-91238095D02*
X86050057Y-91190476D01*
X86050057Y-91190476D02*
X86145295Y-91142857D01*
X86145295Y-91142857D02*
X86288152Y-91142857D01*
X86288152Y-91142857D02*
X86383390Y-91190476D01*
X86383390Y-91190476D02*
X86431009Y-91238095D01*
X86431009Y-91238095D02*
X86478628Y-91333333D01*
X86478628Y-91333333D02*
X86478628Y-91714285D01*
X86050057Y-90761904D02*
X86002438Y-90714285D01*
X86002438Y-90714285D02*
X85954819Y-90619047D01*
X85954819Y-90619047D02*
X85954819Y-90380952D01*
X85954819Y-90380952D02*
X86002438Y-90285714D01*
X86002438Y-90285714D02*
X86050057Y-90238095D01*
X86050057Y-90238095D02*
X86145295Y-90190476D01*
X86145295Y-90190476D02*
X86240533Y-90190476D01*
X86240533Y-90190476D02*
X86383390Y-90238095D01*
X86383390Y-90238095D02*
X86954819Y-90809523D01*
X86954819Y-90809523D02*
X86954819Y-90190476D01*
X85954819Y-89857142D02*
X85954819Y-89238095D01*
X85954819Y-89238095D02*
X86335771Y-89571428D01*
X86335771Y-89571428D02*
X86335771Y-89428571D01*
X86335771Y-89428571D02*
X86383390Y-89333333D01*
X86383390Y-89333333D02*
X86431009Y-89285714D01*
X86431009Y-89285714D02*
X86526247Y-89238095D01*
X86526247Y-89238095D02*
X86764342Y-89238095D01*
X86764342Y-89238095D02*
X86859580Y-89285714D01*
X86859580Y-89285714D02*
X86907200Y-89333333D01*
X86907200Y-89333333D02*
X86954819Y-89428571D01*
X86954819Y-89428571D02*
X86954819Y-89714285D01*
X86954819Y-89714285D02*
X86907200Y-89809523D01*
X86907200Y-89809523D02*
X86859580Y-89857142D01*
X90833333Y-130954819D02*
X90500000Y-130478628D01*
X90261905Y-130954819D02*
X90261905Y-129954819D01*
X90261905Y-129954819D02*
X90642857Y-129954819D01*
X90642857Y-129954819D02*
X90738095Y-130002438D01*
X90738095Y-130002438D02*
X90785714Y-130050057D01*
X90785714Y-130050057D02*
X90833333Y-130145295D01*
X90833333Y-130145295D02*
X90833333Y-130288152D01*
X90833333Y-130288152D02*
X90785714Y-130383390D01*
X90785714Y-130383390D02*
X90738095Y-130431009D01*
X90738095Y-130431009D02*
X90642857Y-130478628D01*
X90642857Y-130478628D02*
X90261905Y-130478628D01*
X91738095Y-129954819D02*
X91261905Y-129954819D01*
X91261905Y-129954819D02*
X91214286Y-130431009D01*
X91214286Y-130431009D02*
X91261905Y-130383390D01*
X91261905Y-130383390D02*
X91357143Y-130335771D01*
X91357143Y-130335771D02*
X91595238Y-130335771D01*
X91595238Y-130335771D02*
X91690476Y-130383390D01*
X91690476Y-130383390D02*
X91738095Y-130431009D01*
X91738095Y-130431009D02*
X91785714Y-130526247D01*
X91785714Y-130526247D02*
X91785714Y-130764342D01*
X91785714Y-130764342D02*
X91738095Y-130859580D01*
X91738095Y-130859580D02*
X91690476Y-130907200D01*
X91690476Y-130907200D02*
X91595238Y-130954819D01*
X91595238Y-130954819D02*
X91357143Y-130954819D01*
X91357143Y-130954819D02*
X91261905Y-130907200D01*
X91261905Y-130907200D02*
X91214286Y-130859580D01*
X104883580Y-110175482D02*
X104931200Y-110223101D01*
X104931200Y-110223101D02*
X104978819Y-110365958D01*
X104978819Y-110365958D02*
X104978819Y-110461196D01*
X104978819Y-110461196D02*
X104931200Y-110604053D01*
X104931200Y-110604053D02*
X104835961Y-110699291D01*
X104835961Y-110699291D02*
X104740723Y-110746910D01*
X104740723Y-110746910D02*
X104550247Y-110794529D01*
X104550247Y-110794529D02*
X104407390Y-110794529D01*
X104407390Y-110794529D02*
X104216914Y-110746910D01*
X104216914Y-110746910D02*
X104121676Y-110699291D01*
X104121676Y-110699291D02*
X104026438Y-110604053D01*
X104026438Y-110604053D02*
X103978819Y-110461196D01*
X103978819Y-110461196D02*
X103978819Y-110365958D01*
X103978819Y-110365958D02*
X104026438Y-110223101D01*
X104026438Y-110223101D02*
X104074057Y-110175482D01*
X103978819Y-109842148D02*
X103978819Y-109223101D01*
X103978819Y-109223101D02*
X104359771Y-109556434D01*
X104359771Y-109556434D02*
X104359771Y-109413577D01*
X104359771Y-109413577D02*
X104407390Y-109318339D01*
X104407390Y-109318339D02*
X104455009Y-109270720D01*
X104455009Y-109270720D02*
X104550247Y-109223101D01*
X104550247Y-109223101D02*
X104788342Y-109223101D01*
X104788342Y-109223101D02*
X104883580Y-109270720D01*
X104883580Y-109270720D02*
X104931200Y-109318339D01*
X104931200Y-109318339D02*
X104978819Y-109413577D01*
X104978819Y-109413577D02*
X104978819Y-109699291D01*
X104978819Y-109699291D02*
X104931200Y-109794529D01*
X104931200Y-109794529D02*
X104883580Y-109842148D01*
X73857142Y-115359580D02*
X73809523Y-115407200D01*
X73809523Y-115407200D02*
X73666666Y-115454819D01*
X73666666Y-115454819D02*
X73571428Y-115454819D01*
X73571428Y-115454819D02*
X73428571Y-115407200D01*
X73428571Y-115407200D02*
X73333333Y-115311961D01*
X73333333Y-115311961D02*
X73285714Y-115216723D01*
X73285714Y-115216723D02*
X73238095Y-115026247D01*
X73238095Y-115026247D02*
X73238095Y-114883390D01*
X73238095Y-114883390D02*
X73285714Y-114692914D01*
X73285714Y-114692914D02*
X73333333Y-114597676D01*
X73333333Y-114597676D02*
X73428571Y-114502438D01*
X73428571Y-114502438D02*
X73571428Y-114454819D01*
X73571428Y-114454819D02*
X73666666Y-114454819D01*
X73666666Y-114454819D02*
X73809523Y-114502438D01*
X73809523Y-114502438D02*
X73857142Y-114550057D01*
X74238095Y-114550057D02*
X74285714Y-114502438D01*
X74285714Y-114502438D02*
X74380952Y-114454819D01*
X74380952Y-114454819D02*
X74619047Y-114454819D01*
X74619047Y-114454819D02*
X74714285Y-114502438D01*
X74714285Y-114502438D02*
X74761904Y-114550057D01*
X74761904Y-114550057D02*
X74809523Y-114645295D01*
X74809523Y-114645295D02*
X74809523Y-114740533D01*
X74809523Y-114740533D02*
X74761904Y-114883390D01*
X74761904Y-114883390D02*
X74190476Y-115454819D01*
X74190476Y-115454819D02*
X74809523Y-115454819D01*
X75380952Y-114883390D02*
X75285714Y-114835771D01*
X75285714Y-114835771D02*
X75238095Y-114788152D01*
X75238095Y-114788152D02*
X75190476Y-114692914D01*
X75190476Y-114692914D02*
X75190476Y-114645295D01*
X75190476Y-114645295D02*
X75238095Y-114550057D01*
X75238095Y-114550057D02*
X75285714Y-114502438D01*
X75285714Y-114502438D02*
X75380952Y-114454819D01*
X75380952Y-114454819D02*
X75571428Y-114454819D01*
X75571428Y-114454819D02*
X75666666Y-114502438D01*
X75666666Y-114502438D02*
X75714285Y-114550057D01*
X75714285Y-114550057D02*
X75761904Y-114645295D01*
X75761904Y-114645295D02*
X75761904Y-114692914D01*
X75761904Y-114692914D02*
X75714285Y-114788152D01*
X75714285Y-114788152D02*
X75666666Y-114835771D01*
X75666666Y-114835771D02*
X75571428Y-114883390D01*
X75571428Y-114883390D02*
X75380952Y-114883390D01*
X75380952Y-114883390D02*
X75285714Y-114931009D01*
X75285714Y-114931009D02*
X75238095Y-114978628D01*
X75238095Y-114978628D02*
X75190476Y-115073866D01*
X75190476Y-115073866D02*
X75190476Y-115264342D01*
X75190476Y-115264342D02*
X75238095Y-115359580D01*
X75238095Y-115359580D02*
X75285714Y-115407200D01*
X75285714Y-115407200D02*
X75380952Y-115454819D01*
X75380952Y-115454819D02*
X75571428Y-115454819D01*
X75571428Y-115454819D02*
X75666666Y-115407200D01*
X75666666Y-115407200D02*
X75714285Y-115359580D01*
X75714285Y-115359580D02*
X75761904Y-115264342D01*
X75761904Y-115264342D02*
X75761904Y-115073866D01*
X75761904Y-115073866D02*
X75714285Y-114978628D01*
X75714285Y-114978628D02*
X75666666Y-114931009D01*
X75666666Y-114931009D02*
X75571428Y-114883390D01*
X99261905Y-68454819D02*
X99261905Y-67454819D01*
X99261905Y-67454819D02*
X99500000Y-67454819D01*
X99500000Y-67454819D02*
X99642857Y-67502438D01*
X99642857Y-67502438D02*
X99738095Y-67597676D01*
X99738095Y-67597676D02*
X99785714Y-67692914D01*
X99785714Y-67692914D02*
X99833333Y-67883390D01*
X99833333Y-67883390D02*
X99833333Y-68026247D01*
X99833333Y-68026247D02*
X99785714Y-68216723D01*
X99785714Y-68216723D02*
X99738095Y-68311961D01*
X99738095Y-68311961D02*
X99642857Y-68407200D01*
X99642857Y-68407200D02*
X99500000Y-68454819D01*
X99500000Y-68454819D02*
X99261905Y-68454819D01*
X100166667Y-67454819D02*
X100833333Y-67454819D01*
X100833333Y-67454819D02*
X100404762Y-68454819D01*
X68441176Y-96974349D02*
X68393557Y-97021969D01*
X68393557Y-97021969D02*
X68250700Y-97069588D01*
X68250700Y-97069588D02*
X68155462Y-97069588D01*
X68155462Y-97069588D02*
X68012605Y-97021969D01*
X68012605Y-97021969D02*
X67917367Y-96926730D01*
X67917367Y-96926730D02*
X67869748Y-96831492D01*
X67869748Y-96831492D02*
X67822129Y-96641016D01*
X67822129Y-96641016D02*
X67822129Y-96498159D01*
X67822129Y-96498159D02*
X67869748Y-96307683D01*
X67869748Y-96307683D02*
X67917367Y-96212445D01*
X67917367Y-96212445D02*
X68012605Y-96117207D01*
X68012605Y-96117207D02*
X68155462Y-96069588D01*
X68155462Y-96069588D02*
X68250700Y-96069588D01*
X68250700Y-96069588D02*
X68393557Y-96117207D01*
X68393557Y-96117207D02*
X68441176Y-96164826D01*
X68822129Y-96164826D02*
X68869748Y-96117207D01*
X68869748Y-96117207D02*
X68964986Y-96069588D01*
X68964986Y-96069588D02*
X69203081Y-96069588D01*
X69203081Y-96069588D02*
X69298319Y-96117207D01*
X69298319Y-96117207D02*
X69345938Y-96164826D01*
X69345938Y-96164826D02*
X69393557Y-96260064D01*
X69393557Y-96260064D02*
X69393557Y-96355302D01*
X69393557Y-96355302D02*
X69345938Y-96498159D01*
X69345938Y-96498159D02*
X68774510Y-97069588D01*
X68774510Y-97069588D02*
X69393557Y-97069588D01*
X69726891Y-96069588D02*
X70393557Y-96069588D01*
X70393557Y-96069588D02*
X69964986Y-97069588D01*
X112220734Y-96586305D02*
X112268354Y-96633924D01*
X112268354Y-96633924D02*
X112315973Y-96776781D01*
X112315973Y-96776781D02*
X112315973Y-96872019D01*
X112315973Y-96872019D02*
X112268354Y-97014876D01*
X112268354Y-97014876D02*
X112173115Y-97110114D01*
X112173115Y-97110114D02*
X112077877Y-97157733D01*
X112077877Y-97157733D02*
X111887401Y-97205352D01*
X111887401Y-97205352D02*
X111744544Y-97205352D01*
X111744544Y-97205352D02*
X111554068Y-97157733D01*
X111554068Y-97157733D02*
X111458830Y-97110114D01*
X111458830Y-97110114D02*
X111363592Y-97014876D01*
X111363592Y-97014876D02*
X111315973Y-96872019D01*
X111315973Y-96872019D02*
X111315973Y-96776781D01*
X111315973Y-96776781D02*
X111363592Y-96633924D01*
X111363592Y-96633924D02*
X111411211Y-96586305D01*
X111411211Y-96205352D02*
X111363592Y-96157733D01*
X111363592Y-96157733D02*
X111315973Y-96062495D01*
X111315973Y-96062495D02*
X111315973Y-95824400D01*
X111315973Y-95824400D02*
X111363592Y-95729162D01*
X111363592Y-95729162D02*
X111411211Y-95681543D01*
X111411211Y-95681543D02*
X111506449Y-95633924D01*
X111506449Y-95633924D02*
X111601687Y-95633924D01*
X111601687Y-95633924D02*
X111744544Y-95681543D01*
X111744544Y-95681543D02*
X112315973Y-96252971D01*
X112315973Y-96252971D02*
X112315973Y-95633924D01*
X68454819Y-101214285D02*
X67454819Y-101214285D01*
X67454819Y-101214285D02*
X67454819Y-100976190D01*
X67454819Y-100976190D02*
X67502438Y-100833333D01*
X67502438Y-100833333D02*
X67597676Y-100738095D01*
X67597676Y-100738095D02*
X67692914Y-100690476D01*
X67692914Y-100690476D02*
X67883390Y-100642857D01*
X67883390Y-100642857D02*
X68026247Y-100642857D01*
X68026247Y-100642857D02*
X68216723Y-100690476D01*
X68216723Y-100690476D02*
X68311961Y-100738095D01*
X68311961Y-100738095D02*
X68407200Y-100833333D01*
X68407200Y-100833333D02*
X68454819Y-100976190D01*
X68454819Y-100976190D02*
X68454819Y-101214285D01*
X68454819Y-99690476D02*
X68454819Y-100261904D01*
X68454819Y-99976190D02*
X67454819Y-99976190D01*
X67454819Y-99976190D02*
X67597676Y-100071428D01*
X67597676Y-100071428D02*
X67692914Y-100166666D01*
X67692914Y-100166666D02*
X67740533Y-100261904D01*
X68454819Y-98738095D02*
X68454819Y-99309523D01*
X68454819Y-99023809D02*
X67454819Y-99023809D01*
X67454819Y-99023809D02*
X67597676Y-99119047D01*
X67597676Y-99119047D02*
X67692914Y-99214285D01*
X67692914Y-99214285D02*
X67740533Y-99309523D01*
X88454819Y-91142857D02*
X87978628Y-91476190D01*
X88454819Y-91714285D02*
X87454819Y-91714285D01*
X87454819Y-91714285D02*
X87454819Y-91333333D01*
X87454819Y-91333333D02*
X87502438Y-91238095D01*
X87502438Y-91238095D02*
X87550057Y-91190476D01*
X87550057Y-91190476D02*
X87645295Y-91142857D01*
X87645295Y-91142857D02*
X87788152Y-91142857D01*
X87788152Y-91142857D02*
X87883390Y-91190476D01*
X87883390Y-91190476D02*
X87931009Y-91238095D01*
X87931009Y-91238095D02*
X87978628Y-91333333D01*
X87978628Y-91333333D02*
X87978628Y-91714285D01*
X87550057Y-90761904D02*
X87502438Y-90714285D01*
X87502438Y-90714285D02*
X87454819Y-90619047D01*
X87454819Y-90619047D02*
X87454819Y-90380952D01*
X87454819Y-90380952D02*
X87502438Y-90285714D01*
X87502438Y-90285714D02*
X87550057Y-90238095D01*
X87550057Y-90238095D02*
X87645295Y-90190476D01*
X87645295Y-90190476D02*
X87740533Y-90190476D01*
X87740533Y-90190476D02*
X87883390Y-90238095D01*
X87883390Y-90238095D02*
X88454819Y-90809523D01*
X88454819Y-90809523D02*
X88454819Y-90190476D01*
X87788152Y-89333333D02*
X88454819Y-89333333D01*
X87407200Y-89571428D02*
X88121485Y-89809523D01*
X88121485Y-89809523D02*
X88121485Y-89190476D01*
X122462975Y-124180235D02*
X121755869Y-123473128D01*
X121755869Y-123473128D02*
X121924227Y-123304769D01*
X121924227Y-123304769D02*
X122058914Y-123237426D01*
X122058914Y-123237426D02*
X122193601Y-123237426D01*
X122193601Y-123237426D02*
X122294617Y-123271098D01*
X122294617Y-123271098D02*
X122462975Y-123372113D01*
X122462975Y-123372113D02*
X122563991Y-123473128D01*
X122563991Y-123473128D02*
X122665006Y-123641487D01*
X122665006Y-123641487D02*
X122698678Y-123742502D01*
X122698678Y-123742502D02*
X122698678Y-123877189D01*
X122698678Y-123877189D02*
X122631334Y-124011876D01*
X122631334Y-124011876D02*
X122462975Y-124180235D01*
X123540471Y-123102739D02*
X123136410Y-123506800D01*
X123338441Y-123304769D02*
X122631334Y-122597663D01*
X122631334Y-122597663D02*
X122665006Y-122766021D01*
X122665006Y-122766021D02*
X122665006Y-122900708D01*
X122665006Y-122900708D02*
X122631334Y-123001724D01*
X123069067Y-122159930D02*
X123540472Y-121688525D01*
X123540472Y-121688525D02*
X123944533Y-122698678D01*
X122156482Y-76799693D02*
X122863589Y-76092587D01*
X122863589Y-76092587D02*
X123031948Y-76260945D01*
X123031948Y-76260945D02*
X123099291Y-76395632D01*
X123099291Y-76395632D02*
X123099291Y-76530319D01*
X123099291Y-76530319D02*
X123065619Y-76631335D01*
X123065619Y-76631335D02*
X122964604Y-76799693D01*
X122964604Y-76799693D02*
X122863589Y-76900709D01*
X122863589Y-76900709D02*
X122695230Y-77001724D01*
X122695230Y-77001724D02*
X122594215Y-77035396D01*
X122594215Y-77035396D02*
X122459528Y-77035396D01*
X122459528Y-77035396D02*
X122324841Y-76968052D01*
X122324841Y-76968052D02*
X122156482Y-76799693D01*
X123907413Y-77136411D02*
X123570696Y-76799693D01*
X123570696Y-76799693D02*
X123200306Y-77102739D01*
X123200306Y-77102739D02*
X123267650Y-77102739D01*
X123267650Y-77102739D02*
X123368665Y-77136411D01*
X123368665Y-77136411D02*
X123537024Y-77304770D01*
X123537024Y-77304770D02*
X123570696Y-77405785D01*
X123570696Y-77405785D02*
X123570696Y-77473128D01*
X123570696Y-77473128D02*
X123537024Y-77574144D01*
X123537024Y-77574144D02*
X123368665Y-77742502D01*
X123368665Y-77742502D02*
X123267650Y-77776174D01*
X123267650Y-77776174D02*
X123200306Y-77776174D01*
X123200306Y-77776174D02*
X123099291Y-77742502D01*
X123099291Y-77742502D02*
X122930932Y-77574144D01*
X122930932Y-77574144D02*
X122897261Y-77473128D01*
X122897261Y-77473128D02*
X122897261Y-77405785D01*
X76319764Y-122462975D02*
X77026871Y-121755869D01*
X77026871Y-121755869D02*
X77195230Y-121924227D01*
X77195230Y-121924227D02*
X77262573Y-122058914D01*
X77262573Y-122058914D02*
X77262573Y-122193601D01*
X77262573Y-122193601D02*
X77228901Y-122294617D01*
X77228901Y-122294617D02*
X77127886Y-122462975D01*
X77127886Y-122462975D02*
X77026871Y-122563991D01*
X77026871Y-122563991D02*
X76858512Y-122665006D01*
X76858512Y-122665006D02*
X76757497Y-122698678D01*
X76757497Y-122698678D02*
X76622810Y-122698678D01*
X76622810Y-122698678D02*
X76488123Y-122631334D01*
X76488123Y-122631334D02*
X76319764Y-122462975D01*
X77397260Y-123540471D02*
X76993199Y-123136410D01*
X77195230Y-123338441D02*
X77902336Y-122631334D01*
X77902336Y-122631334D02*
X77733978Y-122665006D01*
X77733978Y-122665006D02*
X77599291Y-122665006D01*
X77599291Y-122665006D02*
X77498275Y-122631334D01*
X78340069Y-123069067D02*
X78777802Y-123506800D01*
X78777802Y-123506800D02*
X78272726Y-123540472D01*
X78272726Y-123540472D02*
X78373741Y-123641487D01*
X78373741Y-123641487D02*
X78407413Y-123742502D01*
X78407413Y-123742502D02*
X78407413Y-123809846D01*
X78407413Y-123809846D02*
X78373741Y-123910861D01*
X78373741Y-123910861D02*
X78205382Y-124079220D01*
X78205382Y-124079220D02*
X78104367Y-124112891D01*
X78104367Y-124112891D02*
X78037024Y-124112891D01*
X78037024Y-124112891D02*
X77936008Y-124079220D01*
X77936008Y-124079220D02*
X77733978Y-123877189D01*
X77733978Y-123877189D02*
X77700306Y-123776174D01*
X77700306Y-123776174D02*
X77700306Y-123708830D01*
%TO.C,D14*%
D14*
X87951541Y-128563343D02*
X88321092Y-128716416D01*
X88716908Y-126715584D02*
X89086459Y-126868657D01*
D15*
X87076079Y-126394994D02*
G75*
G02*
X86876079Y-126394994I-100000J0D01*
G01*
X86876079Y-126394994D02*
G75*
G02*
X87076079Y-126394994I100000J0D01*
G01*
%TO.C,D8*%
D14*
X88321092Y-71283584D02*
X87951541Y-71436657D01*
X89086459Y-73131343D02*
X88716908Y-73284416D01*
D15*
X90644102Y-72127082D02*
G75*
G02*
X90444102Y-72127082I-100000J0D01*
G01*
X90444102Y-72127082D02*
G75*
G02*
X90644102Y-72127082I100000J0D01*
G01*
%TO.C,R1*%
D16*
X107222578Y-126444133D02*
X106748062Y-126444133D01*
X107222578Y-127489133D02*
X106748062Y-127489133D01*
%TO.C,C1*%
X109289000Y-101601252D02*
X109289000Y-101078748D01*
X110759000Y-101601252D02*
X110759000Y-101078748D01*
%TO.C,C52*%
X86148051Y-80415847D02*
X85932379Y-80415847D01*
X86148051Y-81135847D02*
X85932379Y-81135847D01*
%TO.C,C15*%
X127640000Y-98587836D02*
X127640000Y-98372164D01*
X128360000Y-98587836D02*
X128360000Y-98372164D01*
%TO.C,C4*%
X106408793Y-107895315D02*
X106624465Y-107895315D01*
X106408793Y-108615315D02*
X106624465Y-108615315D01*
%TO.C,D12*%
D14*
X71283584Y-111678908D02*
X71436657Y-112048459D01*
X73131343Y-110913541D02*
X73284416Y-111283092D01*
D15*
X72227082Y-109455898D02*
G75*
G02*
X72027082Y-109455898I-100000J0D01*
G01*
X72027082Y-109455898D02*
G75*
G02*
X72227082Y-109455898I100000J0D01*
G01*
%TO.C,R21*%
D16*
X88425116Y-79258332D02*
X88899632Y-79258332D01*
X88425116Y-80303332D02*
X88899632Y-80303332D01*
%TO.C,C38*%
X87458066Y-97192766D02*
X87458066Y-96911606D01*
X88478066Y-97192766D02*
X88478066Y-96911606D01*
%TO.C,RESET1*%
X98824000Y-81787060D02*
X98824000Y-81687060D01*
X98824000Y-83287060D02*
X103224000Y-83287060D01*
X99874000Y-80187060D02*
X98824000Y-80187060D01*
X103224000Y-80187060D02*
X102174000Y-80187060D01*
X103224000Y-81787060D02*
X103224000Y-81687060D01*
%TO.C,C16*%
X126872164Y-85640000D02*
X127087836Y-85640000D01*
X126872164Y-86360000D02*
X127087836Y-86360000D01*
%TO.C,C42*%
X75824690Y-92816981D02*
X75543530Y-92816981D01*
X75824690Y-93836981D02*
X75543530Y-93836981D01*
%TO.C,C18*%
X108640000Y-71587836D02*
X108640000Y-71372164D01*
X109360000Y-71587836D02*
X109360000Y-71372164D01*
%TO.C,D4*%
D14*
X126868657Y-89086459D02*
X126715584Y-88716908D01*
X128716416Y-88321092D02*
X128563343Y-87951541D01*
D15*
X127972918Y-90544102D02*
G75*
G02*
X127772918Y-90544102I-100000J0D01*
G01*
X127772918Y-90544102D02*
G75*
G02*
X127972918Y-90544102I100000J0D01*
G01*
%TO.C,U2*%
D14*
X99024000Y-92515000D02*
X103024000Y-92515000D01*
X103024000Y-88515000D02*
X99024000Y-88515000D01*
D15*
X103454000Y-92265000D02*
G75*
G02*
X103254000Y-92265000I-100000J0D01*
G01*
X103254000Y-92265000D02*
G75*
G02*
X103454000Y-92265000I100000J0D01*
G01*
%TO.C,C29*%
D16*
X80140000Y-119607836D02*
X80140000Y-119392164D01*
X80860000Y-119607836D02*
X80860000Y-119392164D01*
%TO.C,R8*%
X104001500Y-90752258D02*
X104001500Y-90277742D01*
X105046500Y-90752258D02*
X105046500Y-90277742D01*
%TO.C,R18*%
X72748370Y-96737258D02*
X72748370Y-96262742D01*
X73793370Y-96737258D02*
X73793370Y-96262742D01*
%TO.C,J3*%
D14*
X79550000Y-92450000D02*
X81130000Y-92450000D01*
X79550000Y-107550000D02*
X79550000Y-92450000D01*
X79550000Y-107550000D02*
X81130000Y-107550000D01*
X83970000Y-92450000D02*
X85150000Y-92450000D01*
X83970000Y-107550000D02*
X85150000Y-107550000D01*
X85150000Y-92450000D02*
X85150000Y-93780000D01*
X85150000Y-106220000D02*
X85150000Y-107550000D01*
D15*
X87000000Y-94250000D02*
G75*
G02*
X86800000Y-94250000I-100000J0D01*
G01*
X86800000Y-94250000D02*
G75*
G02*
X87000000Y-94250000I100000J0D01*
G01*
%TO.C,C39*%
D16*
X88584420Y-100378763D02*
X88865580Y-100378763D01*
X88584420Y-101398763D02*
X88865580Y-101398763D01*
%TO.C,R19*%
X71248370Y-96737258D02*
X71248370Y-96262742D01*
X72293370Y-96737258D02*
X72293370Y-96262742D01*
%TO.C,R2*%
X107231951Y-127977500D02*
X106757435Y-127977500D01*
X107231951Y-129022500D02*
X106757435Y-129022500D01*
%TO.C,R13*%
X128737258Y-94977500D02*
X128262742Y-94977500D01*
X128737258Y-96022500D02*
X128262742Y-96022500D01*
%TO.C,Y1*%
D14*
X105904000Y-105765000D02*
X105144000Y-105765000D01*
X105904000Y-107265000D02*
X105144000Y-107265000D01*
%TO.C,J1*%
D16*
X94644000Y-79135000D02*
X96024000Y-79135000D01*
X94644000Y-80515000D02*
X94644000Y-79135000D01*
X94644000Y-81785000D02*
X94644000Y-92055000D01*
X94644000Y-81785000D02*
X97404000Y-81785000D01*
X94644000Y-92055000D02*
X97404000Y-92055000D01*
X97404000Y-81785000D02*
X97404000Y-92055000D01*
%TO.C,D16*%
D14*
X110913541Y-126868657D02*
X111283092Y-126715584D01*
X111678908Y-128716416D02*
X112048459Y-128563343D01*
D15*
X109555898Y-127872918D02*
G75*
G02*
X109355898Y-127872918I-100000J0D01*
G01*
X109355898Y-127872918D02*
G75*
G02*
X109555898Y-127872918I100000J0D01*
G01*
%TO.C,U1*%
D14*
X98224000Y-104615000D02*
X108524000Y-104615000D01*
X108524000Y-94415000D02*
X98224000Y-94415000D01*
X108524000Y-94415000D02*
X108524000Y-104615000D01*
D15*
X98274000Y-105015000D02*
G75*
G02*
X98074000Y-105015000I-100000J0D01*
G01*
X98074000Y-105015000D02*
G75*
G02*
X98274000Y-105015000I100000J0D01*
G01*
%TO.C,R3*%
D16*
X93262742Y-128477500D02*
X93737258Y-128477500D01*
X93262742Y-129522500D02*
X93737258Y-129522500D01*
%TO.C,D18*%
D14*
X126715584Y-111283092D02*
X126868657Y-110913541D01*
X128563343Y-112048459D02*
X128716416Y-111678908D01*
D15*
X126494994Y-113023921D02*
G75*
G02*
X126294994Y-113023921I-100000J0D01*
G01*
X126294994Y-113023921D02*
G75*
G02*
X126494994Y-113023921I100000J0D01*
G01*
%TO.C,C50*%
D16*
X80640000Y-82607836D02*
X80640000Y-82392164D01*
X81360000Y-82607836D02*
X81360000Y-82392164D01*
%TO.C,C43*%
X88584420Y-103490000D02*
X88865580Y-103490000D01*
X88584420Y-104510000D02*
X88865580Y-104510000D01*
%TO.C,R25*%
X89977500Y-76737258D02*
X89977500Y-76262742D01*
X91022500Y-76737258D02*
X91022500Y-76262742D01*
%TO.C,D2*%
D17*
X126347600Y-99077600D02*
X127160400Y-99077600D01*
X127160400Y-99077600D02*
X127160400Y-99636400D01*
X127160400Y-101363600D02*
X127160400Y-101922400D01*
X127160400Y-101922400D02*
X126347600Y-101922400D01*
%TO.C,D6*%
D14*
X111283092Y-73284416D02*
X110913541Y-73131343D01*
X112048459Y-71436657D02*
X111678908Y-71283584D01*
D15*
X113123921Y-73605006D02*
G75*
G02*
X112923921Y-73605006I-100000J0D01*
G01*
X112923921Y-73605006D02*
G75*
G02*
X113123921Y-73605006I100000J0D01*
G01*
%TO.C,C40*%
D16*
X88584420Y-101934381D02*
X88865580Y-101934381D01*
X88584420Y-102954381D02*
X88865580Y-102954381D01*
%TO.C,Q2*%
X71635870Y-100347500D02*
X71635870Y-98877500D01*
X72285870Y-100347500D02*
X71635870Y-100347500D01*
X72605870Y-98877500D02*
X72935870Y-98877500D01*
X73905870Y-98877500D02*
X73905870Y-100347500D01*
X73905870Y-100347500D02*
X73255870Y-100347500D01*
X72930870Y-98432500D02*
X72740870Y-98572500D01*
X72740870Y-98292500D01*
X72930870Y-98432500D01*
G36*
X72930870Y-98432500D02*
G01*
X72740870Y-98572500D01*
X72740870Y-98292500D01*
X72930870Y-98432500D01*
G37*
%TO.C,R22*%
X84477500Y-87262742D02*
X84477500Y-87737258D01*
X85522500Y-87262742D02*
X85522500Y-87737258D01*
%TO.C,D9*%
D14*
X78221315Y-77938472D02*
X77938472Y-78221315D01*
X79635528Y-79352685D02*
X79352685Y-79635528D01*
D15*
X80697900Y-77867054D02*
G75*
G02*
X80497900Y-77867054I-100000J0D01*
G01*
X80497900Y-77867054D02*
G75*
G02*
X80697900Y-77867054I100000J0D01*
G01*
%TO.C,D15*%
D14*
X99800000Y-129000000D02*
X100200000Y-129000000D01*
X99800000Y-131000000D02*
X100200000Y-131000000D01*
D15*
X98169000Y-129370000D02*
G75*
G02*
X97969000Y-129370000I-100000J0D01*
G01*
X97969000Y-129370000D02*
G75*
G02*
X98169000Y-129370000I100000J0D01*
G01*
%TO.C,C31*%
D16*
X101640000Y-129892164D02*
X101640000Y-130107836D01*
X102360000Y-129892164D02*
X102360000Y-130107836D01*
%TO.C,C51*%
X78765000Y-82761252D02*
X78765000Y-82238748D01*
X80235000Y-82761252D02*
X80235000Y-82238748D01*
%TO.C,C37*%
X88584420Y-98823145D02*
X88865580Y-98823145D01*
X88584420Y-99843145D02*
X88865580Y-99843145D01*
%TO.C,C45*%
X88584420Y-106601236D02*
X88865580Y-106601236D01*
X88584420Y-107621236D02*
X88865580Y-107621236D01*
%TO.C,J5*%
D10*
D18*
X84850000Y-83463000D02*
X84849999Y-83463000D01*
X84849999Y-83463000D01*
X84849999Y-83463000D01*
X84849999Y-83463000D01*
X84849999Y-83463000D01*
X84849999Y-83463000D01*
X84849999Y-83463000D01*
X84849999Y-83462999D01*
X84849999Y-83462999D01*
X84849999Y-83462999D01*
X84849999Y-83462999D01*
X84849999Y-83462999D01*
X84850000Y-83462999D01*
X84850000Y-83462999D01*
X84850000Y-83462999D01*
X84850000Y-83462999D01*
X84850000Y-83462999D01*
X84850000Y-83462999D01*
X84850000Y-83462999D01*
X84850000Y-83462999D01*
X84850000Y-83462999D01*
X84850000Y-83462999D01*
X84850000Y-83462999D01*
X84850000Y-83462999D01*
X84850001Y-83462999D01*
X84850001Y-83462999D01*
X84850001Y-83462999D01*
X84850001Y-83462999D01*
X84850001Y-83462999D01*
X84850001Y-83462999D01*
X84850001Y-83463000D01*
X84850001Y-83463000D01*
X84850001Y-83463000D01*
X84850001Y-83463000D01*
X84850001Y-83463000D01*
X84850001Y-83463000D01*
X84850001Y-83463000D01*
X84850000Y-83463000D01*
X84850000Y-83463000D02*
X84850001Y-83463000D01*
X84850001Y-83463000D01*
X84850001Y-83463000D01*
X84850001Y-83463000D01*
X84850001Y-83463000D01*
X84850001Y-83463000D01*
X84850001Y-83463001D01*
X84850001Y-83463001D01*
X84850001Y-83463001D01*
X84850001Y-83463001D01*
X84850001Y-83463001D01*
X84850001Y-83463001D01*
X84850001Y-83463001D01*
X84850000Y-83463001D01*
X84850000Y-83463001D01*
X84850000Y-83463001D01*
X84850000Y-83463001D01*
X84850000Y-83463001D01*
X84850000Y-83463001D01*
X84850000Y-83463001D01*
X84850000Y-83463001D01*
X84850000Y-83463001D01*
X84850000Y-83463001D01*
X84850000Y-83463001D01*
X84850000Y-83463001D01*
X84849999Y-83463001D01*
X84849999Y-83463001D01*
X84849999Y-83463001D01*
X84849999Y-83463001D01*
X84849999Y-83463001D01*
X84849999Y-83463001D01*
X84849999Y-83463000D01*
X84849999Y-83463000D01*
X84849999Y-83463000D01*
X84849999Y-83463000D01*
X84849999Y-83463000D01*
X84849999Y-83463000D01*
X84850000Y-83463000D01*
D10*
D18*
X84950000Y-83463000D02*
X84949999Y-83463000D01*
X84949999Y-83463000D01*
X84949999Y-83463000D01*
X84949999Y-83463000D01*
X84949999Y-83463000D01*
X84949999Y-83463000D01*
X84949999Y-83463000D01*
X84949999Y-83462999D01*
X84949999Y-83462999D01*
X84949999Y-83462999D01*
X84949999Y-83462999D01*
X84949999Y-83462999D01*
X84950000Y-83462999D01*
X84950000Y-83462999D01*
X84950000Y-83462999D01*
X84950000Y-83462999D01*
X84950000Y-83462999D01*
X84950000Y-83462999D01*
X84950000Y-83462999D01*
X84950000Y-83462999D01*
X84950000Y-83462999D01*
X84950000Y-83462999D01*
X84950000Y-83462999D01*
X84950000Y-83462999D01*
X84950001Y-83462999D01*
X84950001Y-83462999D01*
X84950001Y-83462999D01*
X84950001Y-83462999D01*
X84950001Y-83462999D01*
X84950001Y-83462999D01*
X84950001Y-83463000D01*
X84950001Y-83463000D01*
X84950001Y-83463000D01*
X84950001Y-83463000D01*
X84950001Y-83463000D01*
X84950001Y-83463000D01*
X84950001Y-83463000D01*
X84950000Y-83463000D01*
X84950000Y-83463000D02*
X84950001Y-83463000D01*
X84950001Y-83463000D01*
X84950001Y-83463000D01*
X84950001Y-83463000D01*
X84950001Y-83463000D01*
X84950001Y-83463000D01*
X84950001Y-83463001D01*
X84950001Y-83463001D01*
X84950001Y-83463001D01*
X84950001Y-83463001D01*
X84950001Y-83463001D01*
X84950001Y-83463001D01*
X84950001Y-83463001D01*
X84950000Y-83463001D01*
X84950000Y-83463001D01*
X84950000Y-83463001D01*
X84950000Y-83463001D01*
X84950000Y-83463001D01*
X84950000Y-83463001D01*
X84950000Y-83463001D01*
X84950000Y-83463001D01*
X84950000Y-83463001D01*
X84950000Y-83463001D01*
X84950000Y-83463001D01*
X84950000Y-83463001D01*
X84949999Y-83463001D01*
X84949999Y-83463001D01*
X84949999Y-83463001D01*
X84949999Y-83463001D01*
X84949999Y-83463001D01*
X84949999Y-83463001D01*
X84949999Y-83463000D01*
X84949999Y-83463000D01*
X84949999Y-83463000D01*
X84949999Y-83463000D01*
X84949999Y-83463000D01*
X84949999Y-83463000D01*
X84950000Y-83463000D01*
D10*
X84850000Y-83463000D02*
G75*
G02*
X84950000Y-83463000I50000J0D01*
G01*
X84950000Y-83463000D02*
G75*
G02*
X84850000Y-83463000I-50000J0D01*
G01*
%TO.C,D3*%
D14*
X129000000Y-100200000D02*
X129000000Y-99800000D01*
X131000000Y-100200000D02*
X131000000Y-99800000D01*
D15*
X129470000Y-101931000D02*
G75*
G02*
X129270000Y-101931000I-100000J0D01*
G01*
X129270000Y-101931000D02*
G75*
G02*
X129470000Y-101931000I100000J0D01*
G01*
%TO.C,J2*%
D16*
X98564000Y-84135000D02*
X98564000Y-86895000D01*
X116454000Y-84135000D02*
X98564000Y-84135000D01*
X116454000Y-84135000D02*
X116454000Y-86895000D01*
X116454000Y-86895000D02*
X98564000Y-86895000D01*
X117724000Y-84135000D02*
X119104000Y-84135000D01*
X119104000Y-84135000D02*
X119104000Y-85515000D01*
%TO.C,C25*%
X127490000Y-103359420D02*
X127490000Y-103640580D01*
X128510000Y-103359420D02*
X128510000Y-103640580D01*
%TO.C,C44*%
X88584420Y-105045618D02*
X88865580Y-105045618D01*
X88584420Y-106065618D02*
X88865580Y-106065618D01*
%TO.C,C19*%
X99892164Y-71640000D02*
X100107836Y-71640000D01*
X99892164Y-72360000D02*
X100107836Y-72360000D01*
%TO.C,AE1*%
D17*
X91526250Y-69731900D02*
X96473750Y-69731900D01*
X96473750Y-67268100D02*
X91526250Y-67268100D01*
%TO.C,C53*%
D16*
X85892164Y-79140000D02*
X86107836Y-79140000D01*
X85892164Y-79860000D02*
X86107836Y-79860000D01*
%TO.C,D10*%
D14*
X71436657Y-87951541D02*
X71283584Y-88321092D01*
X73284416Y-88716908D02*
X73131343Y-89086459D01*
D15*
X73705006Y-86976079D02*
G75*
G02*
X73505006Y-86976079I-100000J0D01*
G01*
X73505006Y-86976079D02*
G75*
G02*
X73705006Y-86976079I100000J0D01*
G01*
%TO.C,D23*%
D11*
X83575000Y-81600000D02*
G75*
G02*
X83425000Y-81600000I-75000J0D01*
G01*
X83425000Y-81600000D02*
G75*
G02*
X83575000Y-81600000I75000J0D01*
G01*
%TO.C,R23*%
D16*
X85977500Y-87737258D02*
X85977500Y-87262742D01*
X87022500Y-87737258D02*
X87022500Y-87262742D01*
%TO.C,R5*%
X93262742Y-129977500D02*
X93737258Y-129977500D01*
X93262742Y-131022500D02*
X93737258Y-131022500D01*
%TO.C,C3*%
X104631836Y-107901908D02*
X104416164Y-107901908D01*
X104631836Y-108621908D02*
X104416164Y-108621908D01*
%TO.C,C28*%
X74607836Y-113140000D02*
X74392164Y-113140000D01*
X74607836Y-113860000D02*
X74392164Y-113860000D01*
%TO.C,D7*%
D14*
X100200000Y-69000000D02*
X99800000Y-69000000D01*
X100200000Y-71000000D02*
X99800000Y-71000000D01*
D15*
X102031000Y-70630000D02*
G75*
G02*
X101831000Y-70630000I-100000J0D01*
G01*
X101831000Y-70630000D02*
G75*
G02*
X102031000Y-70630000I100000J0D01*
G01*
%TO.C,C27*%
D16*
X68892164Y-97640000D02*
X69107836Y-97640000D01*
X68892164Y-98360000D02*
X69107836Y-98360000D01*
%TO.C,C2*%
X109265000Y-96711252D02*
X109265000Y-96188748D01*
X110735000Y-96711252D02*
X110735000Y-96188748D01*
%TO.C,D11*%
D14*
X69000000Y-99800000D02*
X69000000Y-100200000D01*
X71000000Y-99800000D02*
X71000000Y-100200000D01*
D15*
X70730000Y-98069000D02*
G75*
G02*
X70530000Y-98069000I-100000J0D01*
G01*
X70530000Y-98069000D02*
G75*
G02*
X70730000Y-98069000I100000J0D01*
G01*
%TO.C,R24*%
D16*
X87477500Y-87262742D02*
X87477500Y-87737258D01*
X88522500Y-87262742D02*
X88522500Y-87737258D01*
%TO.C,D17*%
D14*
X120364472Y-120647315D02*
X120647315Y-120364472D01*
X121778685Y-122061528D02*
X122061528Y-121778685D01*
D15*
X119502100Y-122132946D02*
G75*
G02*
X119302100Y-122132946I-100000J0D01*
G01*
X119302100Y-122132946D02*
G75*
G02*
X119502100Y-122132946I100000J0D01*
G01*
%TO.C,D5*%
D14*
X120647315Y-79635528D02*
X120364472Y-79352685D01*
X122061528Y-78221315D02*
X121778685Y-77938472D01*
D15*
X122232946Y-80597900D02*
G75*
G02*
X122032946Y-80597900I-100000J0D01*
G01*
X122032946Y-80597900D02*
G75*
G02*
X122232946Y-80597900I100000J0D01*
G01*
%TO.C,D13*%
D14*
X77938472Y-121778685D02*
X78221315Y-122061528D01*
X79352685Y-120364472D02*
X79635528Y-120647315D01*
D15*
X77967054Y-119402100D02*
G75*
G02*
X77767054Y-119402100I-100000J0D01*
G01*
X77767054Y-119402100D02*
G75*
G02*
X77967054Y-119402100I100000J0D01*
G01*
%TD*%
M02*
