%TF.GenerationSoftware,KiCad,Pcbnew,10.0.1*%
%TF.CreationDate,2026-06-15T10:43:34+01:00*%
%TF.ProjectId,SmartCompass,536d6172-7443-46f6-9d70-6173732e6b69,rev?*%
%TF.SameCoordinates,Original*%
%TF.FileFunction,Paste,Top*%
%TF.FilePolarity,Positive*%
%FSLAX46Y46*%
G04 Gerber Fmt 4.6, Leading zero omitted, Abs format (unit mm)*
G04 Created by KiCad (PCBNEW 10.0.1) date 2026-06-15 10:43:34*
%MOMM*%
%LPD*%
G01*
G04 APERTURE LIST*
G04 Aperture macros list*
%AMRoundRect*
0 Rectangle with rounded corners*
0 $1 Rounding radius*
0 $2 $3 $4 $5 $6 $7 $8 $9 X,Y pos of 4 corners*
0 Add a 4 corners polygon primitive as box body*
4,1,4,$2,$3,$4,$5,$6,$7,$8,$9,$2,$3,0*
0 Add four circle primitives for the rounded corners*
1,1,$1+$1,$2,$3*
1,1,$1+$1,$4,$5*
1,1,$1+$1,$6,$7*
1,1,$1+$1,$8,$9*
0 Add four rect primitives between the rounded corners*
20,1,$1+$1,$2,$3,$4,$5,0*
20,1,$1+$1,$4,$5,$6,$7,0*
20,1,$1+$1,$6,$7,$8,$9,0*
20,1,$1+$1,$8,$9,$2,$3,0*%
%AMRotRect*
0 Rectangle, with rotation*
0 The origin of the aperture is its center*
0 $1 length*
0 $2 width*
0 $3 Rotation angle, in degrees counterclockwise*
0 Add horizontal line*
21,1,$1,$2,0,0,$3*%
G04 Aperture macros list end*
%ADD10C,0.010000*%
%ADD11RotRect,0.700000X0.700000X337.500000*%
%ADD12RotRect,0.700000X0.700000X202.500000*%
%ADD13RoundRect,0.200000X0.200000X0.275000X-0.200000X0.275000X-0.200000X-0.275000X0.200000X-0.275000X0*%
%ADD14RoundRect,0.250000X0.475000X-0.250000X0.475000X0.250000X-0.475000X0.250000X-0.475000X-0.250000X0*%
%ADD15RoundRect,0.140000X0.140000X0.170000X-0.140000X0.170000X-0.140000X-0.170000X0.140000X-0.170000X0*%
%ADD16RoundRect,0.140000X0.170000X-0.140000X0.170000X0.140000X-0.170000X0.140000X-0.170000X-0.140000X0*%
%ADD17RoundRect,0.140000X-0.140000X-0.170000X0.140000X-0.170000X0.140000X0.170000X-0.140000X0.170000X0*%
%ADD18RotRect,0.700000X0.700000X292.500000*%
%ADD19RoundRect,0.200000X-0.200000X-0.275000X0.200000X-0.275000X0.200000X0.275000X-0.200000X0.275000X0*%
%ADD20RoundRect,0.225000X0.250000X-0.225000X0.250000X0.225000X-0.250000X0.225000X-0.250000X-0.225000X0*%
%ADD21R,0.900000X1.000000*%
%ADD22R,1.700000X0.550000*%
%ADD23RoundRect,0.225000X0.225000X0.250000X-0.225000X0.250000X-0.225000X-0.250000X0.225000X-0.250000X0*%
%ADD24RotRect,0.700000X0.700000X112.500000*%
%ADD25RoundRect,0.086400X0.333600X0.073600X-0.333600X0.073600X-0.333600X-0.073600X0.333600X-0.073600X0*%
%ADD26RoundRect,0.200000X0.275000X-0.200000X0.275000X0.200000X-0.275000X0.200000X-0.275000X-0.200000X0*%
%ADD27R,2.200000X1.800000*%
%ADD28RoundRect,0.225000X-0.225000X-0.250000X0.225000X-0.250000X0.225000X0.250000X-0.225000X0.250000X0*%
%ADD29R,1.100000X1.900000*%
%ADD30RotRect,0.700000X0.700000X22.500000*%
%ADD31R,0.500000X0.500000*%
%ADD32RotRect,0.700000X0.700000X67.500000*%
%ADD33R,1.400000X1.000000*%
%ADD34RotRect,0.700000X0.700000X157.500000*%
%ADD35RoundRect,0.112500X-0.112500X0.350000X-0.112500X-0.350000X0.112500X-0.350000X0.112500X0.350000X0*%
%ADD36RoundRect,0.200000X-0.275000X0.200000X-0.275000X-0.200000X0.275000X-0.200000X0.275000X0.200000X0*%
%ADD37RotRect,0.700000X0.700000X225.000000*%
%ADD38R,0.700000X0.700000*%
%ADD39RoundRect,0.140000X-0.170000X0.140000X-0.170000X-0.140000X0.170000X-0.140000X0.170000X0.140000X0*%
%ADD40R,0.500000X1.500000*%
%ADD41R,0.500000X0.550000*%
%ADD42R,0.500000X0.700000*%
%ADD43RoundRect,0.225000X-0.250000X0.225000X-0.250000X-0.225000X0.250000X-0.225000X0.250000X0.225000X0*%
%ADD44R,1.168400X2.209800*%
%ADD45RotRect,0.700000X0.700000X247.500000*%
%ADD46R,0.500000X0.600000*%
%ADD47RotRect,0.700000X0.700000X45.000000*%
%ADD48RotRect,0.700000X0.700000X135.000000*%
%ADD49RotRect,0.700000X0.700000X315.000000*%
G04 APERTURE END LIST*
D10*
%TO.C,U2*%
X100898668Y-90390000D02*
X100129000Y-90390000D01*
X100129000Y-89266700D01*
X100898668Y-89266700D01*
X100898668Y-90390000D01*
G36*
X100898668Y-90390000D02*
G01*
X100129000Y-90390000D01*
X100129000Y-89266700D01*
X100898668Y-89266700D01*
X100898668Y-90390000D01*
G37*
X100898658Y-91760000D02*
X100129000Y-91760000D01*
X100129000Y-90640342D01*
X100898658Y-90640342D01*
X100898658Y-91760000D01*
G36*
X100898658Y-91760000D02*
G01*
X100129000Y-91760000D01*
X100129000Y-90640342D01*
X100898658Y-90640342D01*
X100898658Y-91760000D01*
G37*
X101920769Y-90390000D02*
X101149000Y-90390000D01*
X101149000Y-89267540D01*
X101920769Y-89267540D01*
X101920769Y-90390000D01*
G36*
X101920769Y-90390000D02*
G01*
X101149000Y-90390000D01*
X101149000Y-89267540D01*
X101920769Y-89267540D01*
X101920769Y-90390000D01*
G37*
X101921981Y-91760000D02*
X101149000Y-91760000D01*
X101149000Y-90640416D01*
X101921981Y-90640416D01*
X101921981Y-91760000D01*
G36*
X101921981Y-91760000D02*
G01*
X101149000Y-91760000D01*
X101149000Y-90640416D01*
X101921981Y-90640416D01*
X101921981Y-91760000D01*
G37*
%TO.C,J3*%
X86450000Y-94375000D02*
X85150000Y-94375000D01*
X85150000Y-94125000D01*
X86450000Y-94125000D01*
X86450000Y-94375000D01*
G36*
X86450000Y-94375000D02*
G01*
X85150000Y-94375000D01*
X85150000Y-94125000D01*
X86450000Y-94125000D01*
X86450000Y-94375000D01*
G37*
X86450000Y-94875000D02*
X85150000Y-94875000D01*
X85150000Y-94625000D01*
X86450000Y-94625000D01*
X86450000Y-94875000D01*
G36*
X86450000Y-94875000D02*
G01*
X85150000Y-94875000D01*
X85150000Y-94625000D01*
X86450000Y-94625000D01*
X86450000Y-94875000D01*
G37*
X86450000Y-95375000D02*
X85150000Y-95375000D01*
X85150000Y-95125000D01*
X86450000Y-95125000D01*
X86450000Y-95375000D01*
G36*
X86450000Y-95375000D02*
G01*
X85150000Y-95375000D01*
X85150000Y-95125000D01*
X86450000Y-95125000D01*
X86450000Y-95375000D01*
G37*
X86450000Y-95875000D02*
X85150000Y-95875000D01*
X85150000Y-95625000D01*
X86450000Y-95625000D01*
X86450000Y-95875000D01*
G36*
X86450000Y-95875000D02*
G01*
X85150000Y-95875000D01*
X85150000Y-95625000D01*
X86450000Y-95625000D01*
X86450000Y-95875000D01*
G37*
X86450000Y-96375000D02*
X85150000Y-96375000D01*
X85150000Y-96125000D01*
X86450000Y-96125000D01*
X86450000Y-96375000D01*
G36*
X86450000Y-96375000D02*
G01*
X85150000Y-96375000D01*
X85150000Y-96125000D01*
X86450000Y-96125000D01*
X86450000Y-96375000D01*
G37*
X86450000Y-96875000D02*
X85150000Y-96875000D01*
X85150000Y-96625000D01*
X86450000Y-96625000D01*
X86450000Y-96875000D01*
G36*
X86450000Y-96875000D02*
G01*
X85150000Y-96875000D01*
X85150000Y-96625000D01*
X86450000Y-96625000D01*
X86450000Y-96875000D01*
G37*
X86450000Y-97375000D02*
X85150000Y-97375000D01*
X85150000Y-97125000D01*
X86450000Y-97125000D01*
X86450000Y-97375000D01*
G36*
X86450000Y-97375000D02*
G01*
X85150000Y-97375000D01*
X85150000Y-97125000D01*
X86450000Y-97125000D01*
X86450000Y-97375000D01*
G37*
X86450000Y-97875000D02*
X85150000Y-97875000D01*
X85150000Y-97625000D01*
X86450000Y-97625000D01*
X86450000Y-97875000D01*
G36*
X86450000Y-97875000D02*
G01*
X85150000Y-97875000D01*
X85150000Y-97625000D01*
X86450000Y-97625000D01*
X86450000Y-97875000D01*
G37*
X86450000Y-98375000D02*
X85150000Y-98375000D01*
X85150000Y-98125000D01*
X86450000Y-98125000D01*
X86450000Y-98375000D01*
G36*
X86450000Y-98375000D02*
G01*
X85150000Y-98375000D01*
X85150000Y-98125000D01*
X86450000Y-98125000D01*
X86450000Y-98375000D01*
G37*
X86450000Y-98875000D02*
X85150000Y-98875000D01*
X85150000Y-98625000D01*
X86450000Y-98625000D01*
X86450000Y-98875000D01*
G36*
X86450000Y-98875000D02*
G01*
X85150000Y-98875000D01*
X85150000Y-98625000D01*
X86450000Y-98625000D01*
X86450000Y-98875000D01*
G37*
X86450000Y-99375000D02*
X85150000Y-99375000D01*
X85150000Y-99125000D01*
X86450000Y-99125000D01*
X86450000Y-99375000D01*
G36*
X86450000Y-99375000D02*
G01*
X85150000Y-99375000D01*
X85150000Y-99125000D01*
X86450000Y-99125000D01*
X86450000Y-99375000D01*
G37*
X86450000Y-99875000D02*
X85150000Y-99875000D01*
X85150000Y-99625000D01*
X86450000Y-99625000D01*
X86450000Y-99875000D01*
G36*
X86450000Y-99875000D02*
G01*
X85150000Y-99875000D01*
X85150000Y-99625000D01*
X86450000Y-99625000D01*
X86450000Y-99875000D01*
G37*
X86450000Y-100375000D02*
X85150000Y-100375000D01*
X85150000Y-100125000D01*
X86450000Y-100125000D01*
X86450000Y-100375000D01*
G36*
X86450000Y-100375000D02*
G01*
X85150000Y-100375000D01*
X85150000Y-100125000D01*
X86450000Y-100125000D01*
X86450000Y-100375000D01*
G37*
X86450000Y-100875000D02*
X85150000Y-100875000D01*
X85150000Y-100625000D01*
X86450000Y-100625000D01*
X86450000Y-100875000D01*
G36*
X86450000Y-100875000D02*
G01*
X85150000Y-100875000D01*
X85150000Y-100625000D01*
X86450000Y-100625000D01*
X86450000Y-100875000D01*
G37*
X86450000Y-101375000D02*
X85150000Y-101375000D01*
X85150000Y-101125000D01*
X86450000Y-101125000D01*
X86450000Y-101375000D01*
G36*
X86450000Y-101375000D02*
G01*
X85150000Y-101375000D01*
X85150000Y-101125000D01*
X86450000Y-101125000D01*
X86450000Y-101375000D01*
G37*
X86450000Y-101875000D02*
X85150000Y-101875000D01*
X85150000Y-101625000D01*
X86450000Y-101625000D01*
X86450000Y-101875000D01*
G36*
X86450000Y-101875000D02*
G01*
X85150000Y-101875000D01*
X85150000Y-101625000D01*
X86450000Y-101625000D01*
X86450000Y-101875000D01*
G37*
X86450000Y-102375000D02*
X85150000Y-102375000D01*
X85150000Y-102125000D01*
X86450000Y-102125000D01*
X86450000Y-102375000D01*
G36*
X86450000Y-102375000D02*
G01*
X85150000Y-102375000D01*
X85150000Y-102125000D01*
X86450000Y-102125000D01*
X86450000Y-102375000D01*
G37*
X86450000Y-102875000D02*
X85150000Y-102875000D01*
X85150000Y-102625000D01*
X86450000Y-102625000D01*
X86450000Y-102875000D01*
G36*
X86450000Y-102875000D02*
G01*
X85150000Y-102875000D01*
X85150000Y-102625000D01*
X86450000Y-102625000D01*
X86450000Y-102875000D01*
G37*
X86450000Y-103375000D02*
X85150000Y-103375000D01*
X85150000Y-103125000D01*
X86450000Y-103125000D01*
X86450000Y-103375000D01*
G36*
X86450000Y-103375000D02*
G01*
X85150000Y-103375000D01*
X85150000Y-103125000D01*
X86450000Y-103125000D01*
X86450000Y-103375000D01*
G37*
X86450000Y-103875000D02*
X85150000Y-103875000D01*
X85150000Y-103625000D01*
X86450000Y-103625000D01*
X86450000Y-103875000D01*
G36*
X86450000Y-103875000D02*
G01*
X85150000Y-103875000D01*
X85150000Y-103625000D01*
X86450000Y-103625000D01*
X86450000Y-103875000D01*
G37*
X86450000Y-104375000D02*
X85150000Y-104375000D01*
X85150000Y-104125000D01*
X86450000Y-104125000D01*
X86450000Y-104375000D01*
G36*
X86450000Y-104375000D02*
G01*
X85150000Y-104375000D01*
X85150000Y-104125000D01*
X86450000Y-104125000D01*
X86450000Y-104375000D01*
G37*
X86450000Y-104875000D02*
X85150000Y-104875000D01*
X85150000Y-104625000D01*
X86450000Y-104625000D01*
X86450000Y-104875000D01*
G36*
X86450000Y-104875000D02*
G01*
X85150000Y-104875000D01*
X85150000Y-104625000D01*
X86450000Y-104625000D01*
X86450000Y-104875000D01*
G37*
X86450000Y-105375000D02*
X85150000Y-105375000D01*
X85150000Y-105125000D01*
X86450000Y-105125000D01*
X86450000Y-105375000D01*
G36*
X86450000Y-105375000D02*
G01*
X85150000Y-105375000D01*
X85150000Y-105125000D01*
X86450000Y-105125000D01*
X86450000Y-105375000D01*
G37*
X86450000Y-105875000D02*
X85150000Y-105875000D01*
X85150000Y-105625000D01*
X86450000Y-105625000D01*
X86450000Y-105875000D01*
G36*
X86450000Y-105875000D02*
G01*
X85150000Y-105875000D01*
X85150000Y-105625000D01*
X86450000Y-105625000D01*
X86450000Y-105875000D01*
G37*
%TD*%
D11*
%TO.C,D14*%
X87884126Y-126857711D03*
X87463174Y-127873978D03*
X89153874Y-128574289D03*
X89574826Y-127558022D03*
%TD*%
D12*
%TO.C,D8*%
X89574826Y-72441978D03*
X89153874Y-71425711D03*
X87463174Y-72126022D03*
X87884126Y-73142289D03*
%TD*%
D13*
%TO.C,R1*%
X107810320Y-126966633D03*
X106160320Y-126966633D03*
%TD*%
D14*
%TO.C,C1*%
X110024000Y-102290000D03*
X110024000Y-100390000D03*
%TD*%
D15*
%TO.C,C52*%
X86520215Y-80775847D03*
X85560215Y-80775847D03*
%TD*%
D16*
%TO.C,C15*%
X128000000Y-98960000D03*
X128000000Y-98000000D03*
%TD*%
D17*
%TO.C,C4*%
X106036629Y-108255315D03*
X106996629Y-108255315D03*
%TD*%
D18*
%TO.C,D12*%
X72441978Y-110425174D03*
X71425711Y-110846126D03*
X72126022Y-112536826D03*
X73142289Y-112115874D03*
%TD*%
D19*
%TO.C,R21*%
X87837374Y-79780832D03*
X89487374Y-79780832D03*
%TD*%
D20*
%TO.C,C38*%
X87968066Y-97827186D03*
X87968066Y-96277186D03*
%TD*%
D21*
%TO.C,RESET1*%
X98974000Y-80937060D03*
X103074000Y-80937060D03*
X98974000Y-82537060D03*
X103074000Y-82537060D03*
D22*
X101024000Y-80312060D03*
%TD*%
D17*
%TO.C,C16*%
X126500000Y-86000000D03*
X127460000Y-86000000D03*
%TD*%
D23*
%TO.C,C42*%
X76459110Y-93326981D03*
X74909110Y-93326981D03*
%TD*%
D16*
%TO.C,C18*%
X109000000Y-71960000D03*
X109000000Y-71000000D03*
%TD*%
D24*
%TO.C,D4*%
X127558022Y-89574826D03*
X128574289Y-89153874D03*
X127873978Y-87463174D03*
X126857711Y-87884126D03*
%TD*%
D25*
%TO.C,U2*%
X102974000Y-91715000D03*
X102974000Y-90915000D03*
X102974000Y-90115000D03*
X102974000Y-89315000D03*
X99074000Y-89315000D03*
X99074000Y-90115000D03*
X99074000Y-90915000D03*
X99074000Y-91715000D03*
%TD*%
D16*
%TO.C,C29*%
X80500000Y-119980000D03*
X80500000Y-119020000D03*
%TD*%
D26*
%TO.C,R8*%
X104524000Y-91340000D03*
X104524000Y-89690000D03*
%TD*%
%TO.C,R18*%
X73270870Y-97325000D03*
X73270870Y-95675000D03*
%TD*%
D27*
%TO.C,J3*%
X82550000Y-107650000D03*
X82550000Y-92350000D03*
%TD*%
D28*
%TO.C,C39*%
X87950000Y-100888763D03*
X89500000Y-100888763D03*
%TD*%
D26*
%TO.C,R19*%
X71770870Y-97325000D03*
X71770870Y-95675000D03*
%TD*%
D13*
%TO.C,R2*%
X107819693Y-128500000D03*
X106169693Y-128500000D03*
%TD*%
%TO.C,R13*%
X129325000Y-95500000D03*
X127675000Y-95500000D03*
%TD*%
D29*
%TO.C,Y1*%
X106774000Y-106515000D03*
X104274000Y-106515000D03*
%TD*%
D30*
%TO.C,D16*%
X110425174Y-127558022D03*
X110846126Y-128574289D03*
X112536826Y-127873978D03*
X112115874Y-126857711D03*
%TD*%
D31*
%TO.C,U1*%
X98174000Y-103915000D03*
X98724000Y-103015000D03*
X99274000Y-103915000D03*
X99824000Y-103015000D03*
X100374000Y-103915000D03*
X100924000Y-103015000D03*
X101474000Y-103915000D03*
X102024000Y-103015000D03*
X102574000Y-103915000D03*
X103124000Y-103015000D03*
X103674000Y-103915000D03*
X104224000Y-103015000D03*
X104774000Y-103915000D03*
X105324000Y-103015000D03*
X105874000Y-103915000D03*
X106974000Y-103915000D03*
X106974000Y-102815000D03*
X106074000Y-102265000D03*
X106974000Y-101715000D03*
X106074000Y-101165000D03*
X106974000Y-100615000D03*
X106074000Y-100065000D03*
X106974000Y-99515000D03*
X106074000Y-98965000D03*
X106974000Y-98415000D03*
X106074000Y-97865000D03*
X106974000Y-97315000D03*
X106074000Y-96765000D03*
X106974000Y-96215000D03*
X106974000Y-95115000D03*
X105874000Y-95115000D03*
X105324000Y-96015000D03*
X104774000Y-95115000D03*
X104224000Y-96015000D03*
X103674000Y-95115000D03*
X103124000Y-96015000D03*
X102574000Y-95115000D03*
X102024000Y-96015000D03*
X101474000Y-95115000D03*
X100924000Y-96015000D03*
X100374000Y-95115000D03*
X99824000Y-96015000D03*
X99274000Y-95115000D03*
X98724000Y-96015000D03*
X98174000Y-95115000D03*
X98174000Y-97865000D03*
X98174000Y-101165000D03*
X99274000Y-102115000D03*
X100374000Y-102115000D03*
X101474000Y-102115000D03*
X102574000Y-102115000D03*
X103674000Y-102115000D03*
X105174000Y-100615000D03*
X105174000Y-99515000D03*
X105174000Y-98415000D03*
X103674000Y-96915000D03*
X102574000Y-96915000D03*
X101474000Y-96915000D03*
X100374000Y-96915000D03*
X99274000Y-96915000D03*
X107874000Y-103365000D03*
X107874000Y-102265000D03*
X107874000Y-101165000D03*
X107874000Y-100065000D03*
X107874000Y-98965000D03*
X107874000Y-97865000D03*
X107874000Y-96765000D03*
X107874000Y-95665000D03*
%TD*%
D19*
%TO.C,R3*%
X92675000Y-129000000D03*
X94325000Y-129000000D03*
%TD*%
D32*
%TO.C,D18*%
X126857711Y-112115874D03*
X127873978Y-112536826D03*
X128574289Y-110846126D03*
X127558022Y-110425174D03*
%TD*%
D16*
%TO.C,C50*%
X81000000Y-82980000D03*
X81000000Y-82020000D03*
%TD*%
D28*
%TO.C,C43*%
X87950000Y-104000000D03*
X89500000Y-104000000D03*
%TD*%
D26*
%TO.C,R25*%
X90500000Y-77325000D03*
X90500000Y-75675000D03*
%TD*%
D33*
%TO.C,D2*%
X125400000Y-99550000D03*
X125400000Y-101450000D03*
X127600000Y-100500000D03*
%TD*%
D34*
%TO.C,D6*%
X112115874Y-73142289D03*
X112536826Y-72126022D03*
X110846126Y-71425711D03*
X110425174Y-72441978D03*
%TD*%
D28*
%TO.C,C40*%
X87950000Y-102444381D03*
X89500000Y-102444381D03*
%TD*%
D35*
%TO.C,Q2*%
X73420870Y-98725000D03*
X72120870Y-98725000D03*
X72770870Y-100500000D03*
%TD*%
D36*
%TO.C,R22*%
X85000000Y-86675000D03*
X85000000Y-88325000D03*
%TD*%
D37*
%TO.C,D9*%
X79822911Y-78528906D03*
X79045094Y-77751089D03*
X77751089Y-79045094D03*
X78528906Y-79822911D03*
%TD*%
D38*
%TO.C,D15*%
X99085000Y-129450000D03*
X99085000Y-130550000D03*
X100915000Y-130550000D03*
X100915000Y-129450000D03*
%TD*%
D39*
%TO.C,C31*%
X102000000Y-129520000D03*
X102000000Y-130480000D03*
%TD*%
D14*
%TO.C,C51*%
X79500000Y-83450000D03*
X79500000Y-81550000D03*
%TD*%
D28*
%TO.C,C37*%
X87950000Y-99333145D03*
X89500000Y-99333145D03*
%TD*%
%TO.C,C45*%
X87950000Y-107111236D03*
X89500000Y-107111236D03*
%TD*%
D40*
%TO.C,J5*%
X85500000Y-83426000D03*
D41*
X86450000Y-84450000D03*
D40*
X87400000Y-83426000D03*
D42*
X86450000Y-82476000D03*
%TD*%
D38*
%TO.C,D3*%
X129450000Y-100915000D03*
X130550000Y-100915000D03*
X130550000Y-99085000D03*
X129450000Y-99085000D03*
%TD*%
D43*
%TO.C,C25*%
X128000000Y-102725000D03*
X128000000Y-104275000D03*
%TD*%
D28*
%TO.C,C44*%
X87950000Y-105555618D03*
X89500000Y-105555618D03*
%TD*%
D17*
%TO.C,C19*%
X99520000Y-72000000D03*
X100480000Y-72000000D03*
%TD*%
D44*
%TO.C,AE1*%
X90634500Y-68500000D03*
X97365500Y-68500000D03*
%TD*%
D17*
%TO.C,C53*%
X85520000Y-79500000D03*
X86480000Y-79500000D03*
%TD*%
D45*
%TO.C,D10*%
X73142289Y-87884126D03*
X72126022Y-87463174D03*
X71425711Y-89153874D03*
X72441978Y-89574826D03*
%TD*%
D46*
%TO.C,D23*%
X83500000Y-82500000D03*
X83500000Y-83500000D03*
%TD*%
D26*
%TO.C,R23*%
X86500000Y-88325000D03*
X86500000Y-86675000D03*
%TD*%
D19*
%TO.C,R5*%
X92675000Y-130500000D03*
X94325000Y-130500000D03*
%TD*%
D15*
%TO.C,C3*%
X105004000Y-108261908D03*
X104044000Y-108261908D03*
%TD*%
%TO.C,C28*%
X74980000Y-113500000D03*
X74020000Y-113500000D03*
%TD*%
D38*
%TO.C,D7*%
X100915000Y-70550000D03*
X100915000Y-69450000D03*
X99085000Y-69450000D03*
X99085000Y-70550000D03*
%TD*%
D17*
%TO.C,C27*%
X68520000Y-98000000D03*
X69480000Y-98000000D03*
%TD*%
D14*
%TO.C,C2*%
X110000000Y-97400000D03*
X110000000Y-95500000D03*
%TD*%
D38*
%TO.C,D11*%
X70550000Y-99085000D03*
X69450000Y-99085000D03*
X69450000Y-100915000D03*
X70550000Y-100915000D03*
%TD*%
D36*
%TO.C,R24*%
X88000000Y-86675000D03*
X88000000Y-88325000D03*
%TD*%
D47*
%TO.C,D17*%
X120177089Y-121471094D03*
X120954906Y-122248911D03*
X122248911Y-120954906D03*
X121471094Y-120177089D03*
%TD*%
D48*
%TO.C,D5*%
X121471094Y-79822911D03*
X122248911Y-79045094D03*
X120954906Y-77751089D03*
X120177089Y-78528906D03*
%TD*%
D49*
%TO.C,D13*%
X78528906Y-120177089D03*
X77751089Y-120954906D03*
X79045094Y-122248911D03*
X79822911Y-121471094D03*
%TD*%
M02*
