ISO-10303-21;
HEADER;
/* Generated by software containing ST-Developer
 * from STEP Tools, Inc. (www.steptools.com) 
 */
/* OPTION: using custom renumber hook */

FILE_DESCRIPTION(
/* description */ ('STEP AP242 Edition 2',
'CAx-IF Rec.Pracs.---Representation and Presentation of Product Manufa
cturing Information (PMI)---4.0---2014-10-13',
'CAx-IF Rec.Pracs.---3D Tessellated Geometry---0.4---2014-09-14','2;1',
'CAx-IF Rec.Pracs.---User Defined Attributes---1.5---2016-08-15'),
/* implementation_level */ '2;1');

FILE_NAME(
/* name */ 'Part Studio 1 - Part 1',
/* time_stamp */ '2026-06-07T09:00:17Z',
/* author */ (''),
/* organization */ (''),
/* preprocessor_version */ 'ST-DEVELOPER v20',
/* originating_system */ 'ONSHAPE BY PTC INC, 1.216',
/* authorisation */ '  ');

FILE_SCHEMA (('AP242_MANAGED_MODEL_BASED_3D_ENGINEERING_MIM_LF { 1 0 10303 442 3 1 4 }'));
ENDSEC;

DATA;
#10=SHAPE_REPRESENTATION_RELATIONSHIP('','',#369,#11);
#11=ADVANCED_BREP_SHAPE_REPRESENTATION('',(#367),#587);
#12=CYLINDRICAL_SURFACE('',#389,0.00155507053335354);
#13=CYLINDRICAL_SURFACE('',#390,0.00130507053335354);
#14=CIRCLE('',#383,0.00130507053335354);
#15=CIRCLE('',#384,0.00155507053335354);
#16=CIRCLE('',#386,0.00155507053335354);
#17=CIRCLE('',#387,0.00130507053335354);
#18=ORIENTED_EDGE('',*,*,#114,.F.);
#19=ORIENTED_EDGE('',*,*,#115,.F.);
#20=ORIENTED_EDGE('',*,*,#116,.T.);
#21=ORIENTED_EDGE('',*,*,#117,.T.);
#22=ORIENTED_EDGE('',*,*,#118,.F.);
#23=ORIENTED_EDGE('',*,*,#119,.F.);
#24=ORIENTED_EDGE('',*,*,#120,.T.);
#25=ORIENTED_EDGE('',*,*,#121,.T.);
#26=ORIENTED_EDGE('',*,*,#122,.F.);
#27=ORIENTED_EDGE('',*,*,#123,.F.);
#28=ORIENTED_EDGE('',*,*,#124,.T.);
#29=ORIENTED_EDGE('',*,*,#125,.T.);
#30=ORIENTED_EDGE('',*,*,#123,.T.);
#31=ORIENTED_EDGE('',*,*,#126,.T.);
#32=ORIENTED_EDGE('',*,*,#127,.F.);
#33=ORIENTED_EDGE('',*,*,#128,.F.);
#34=ORIENTED_EDGE('',*,*,#127,.T.);
#35=ORIENTED_EDGE('',*,*,#129,.T.);
#36=ORIENTED_EDGE('',*,*,#130,.F.);
#37=ORIENTED_EDGE('',*,*,#131,.F.);
#38=ORIENTED_EDGE('',*,*,#132,.F.);
#39=ORIENTED_EDGE('',*,*,#133,.F.);
#40=ORIENTED_EDGE('',*,*,#134,.T.);
#41=ORIENTED_EDGE('',*,*,#118,.T.);
#42=ORIENTED_EDGE('',*,*,#135,.F.);
#43=ORIENTED_EDGE('',*,*,#136,.F.);
#44=ORIENTED_EDGE('',*,*,#137,.T.);
#45=ORIENTED_EDGE('',*,*,#133,.T.);
#46=ORIENTED_EDGE('',*,*,#138,.T.);
#47=ORIENTED_EDGE('',*,*,#120,.F.);
#48=ORIENTED_EDGE('',*,*,#139,.F.);
#49=ORIENTED_EDGE('',*,*,#136,.T.);
#50=ORIENTED_EDGE('',*,*,#140,.F.);
#51=ORIENTED_EDGE('',*,*,#125,.F.);
#52=ORIENTED_EDGE('',*,*,#141,.T.);
#53=ORIENTED_EDGE('',*,*,#130,.T.);
#54=ORIENTED_EDGE('',*,*,#119,.T.);
#55=ORIENTED_EDGE('',*,*,#134,.F.);
#56=ORIENTED_EDGE('',*,*,#137,.F.);
#57=ORIENTED_EDGE('',*,*,#139,.T.);
#58=ORIENTED_EDGE('',*,*,#124,.F.);
#59=ORIENTED_EDGE('',*,*,#128,.T.);
#60=ORIENTED_EDGE('',*,*,#131,.T.);
#61=ORIENTED_EDGE('',*,*,#141,.F.);
#62=ORIENTED_EDGE('',*,*,#121,.F.);
#63=ORIENTED_EDGE('',*,*,#138,.F.);
#64=ORIENTED_EDGE('',*,*,#135,.T.);
#65=ORIENTED_EDGE('',*,*,#132,.T.);
#66=ORIENTED_EDGE('',*,*,#117,.F.);
#67=ORIENTED_EDGE('',*,*,#142,.F.);
#68=ORIENTED_EDGE('',*,*,#143,.F.);
#69=ORIENTED_EDGE('',*,*,#144,.F.);
#70=ORIENTED_EDGE('',*,*,#126,.F.);
#71=ORIENTED_EDGE('',*,*,#122,.T.);
#72=ORIENTED_EDGE('',*,*,#140,.T.);
#73=ORIENTED_EDGE('',*,*,#129,.F.);
#74=ORIENTED_EDGE('',*,*,#144,.T.);
#75=ORIENTED_EDGE('',*,*,#145,.T.);
#76=ORIENTED_EDGE('',*,*,#146,.T.);
#77=ORIENTED_EDGE('',*,*,#147,.F.);
#78=ORIENTED_EDGE('',*,*,#148,.F.);
#79=ORIENTED_EDGE('',*,*,#149,.F.);
#80=ORIENTED_EDGE('',*,*,#150,.F.);
#81=ORIENTED_EDGE('',*,*,#114,.T.);
#82=ORIENTED_EDGE('',*,*,#142,.T.);
#83=ORIENTED_EDGE('',*,*,#116,.F.);
#84=ORIENTED_EDGE('',*,*,#151,.F.);
#85=ORIENTED_EDGE('',*,*,#152,.F.);
#86=ORIENTED_EDGE('',*,*,#153,.T.);
#87=ORIENTED_EDGE('',*,*,#154,.T.);
#88=ORIENTED_EDGE('',*,*,#155,.F.);
#89=ORIENTED_EDGE('',*,*,#156,.T.);
#90=ORIENTED_EDGE('',*,*,#115,.T.);
#91=ORIENTED_EDGE('',*,*,#150,.T.);
#92=ORIENTED_EDGE('',*,*,#157,.T.);
#93=ORIENTED_EDGE('',*,*,#151,.T.);
#94=ORIENTED_EDGE('',*,*,#158,.T.);
#95=ORIENTED_EDGE('',*,*,#152,.T.);
#96=ORIENTED_EDGE('',*,*,#157,.F.);
#97=ORIENTED_EDGE('',*,*,#149,.T.);
#98=ORIENTED_EDGE('',*,*,#159,.F.);
#99=ORIENTED_EDGE('',*,*,#145,.F.);
#100=ORIENTED_EDGE('',*,*,#143,.T.);
#101=ORIENTED_EDGE('',*,*,#156,.F.);
#102=ORIENTED_EDGE('',*,*,#160,.T.);
#103=ORIENTED_EDGE('',*,*,#154,.F.);
#104=ORIENTED_EDGE('',*,*,#161,.F.);
#105=ORIENTED_EDGE('',*,*,#147,.T.);
#106=ORIENTED_EDGE('',*,*,#153,.F.);
#107=ORIENTED_EDGE('',*,*,#158,.F.);
#108=ORIENTED_EDGE('',*,*,#148,.T.);
#109=ORIENTED_EDGE('',*,*,#161,.T.);
#110=ORIENTED_EDGE('',*,*,#155,.T.);
#111=ORIENTED_EDGE('',*,*,#160,.F.);
#112=ORIENTED_EDGE('',*,*,#146,.F.);
#113=ORIENTED_EDGE('',*,*,#159,.T.);
#114=EDGE_CURVE('',#162,#163,#194,.T.);
#115=EDGE_CURVE('',#164,#162,#195,.F.);
#116=EDGE_CURVE('',#164,#165,#196,.T.);
#117=EDGE_CURVE('',#165,#166,#197,.T.);
#118=EDGE_CURVE('',#167,#166,#198,.T.);
#119=EDGE_CURVE('',#168,#167,#199,.T.);
#120=EDGE_CURVE('',#168,#169,#200,.T.);
#121=EDGE_CURVE('',#169,#163,#201,.T.);
#122=EDGE_CURVE('',#170,#171,#202,.T.);
#123=EDGE_CURVE('',#172,#170,#203,.T.);
#124=EDGE_CURVE('',#172,#173,#204,.T.);
#125=EDGE_CURVE('',#173,#171,#205,.T.);
#126=EDGE_CURVE('',#170,#174,#206,.T.);
#127=EDGE_CURVE('',#175,#174,#207,.T.);
#128=EDGE_CURVE('',#172,#175,#208,.T.);
#129=EDGE_CURVE('',#174,#176,#209,.T.);
#130=EDGE_CURVE('',#177,#176,#210,.T.);
#131=EDGE_CURVE('',#175,#177,#211,.T.);
#132=EDGE_CURVE('',#178,#166,#212,.T.);
#133=EDGE_CURVE('',#179,#178,#213,.T.);
#134=EDGE_CURVE('',#179,#167,#214,.T.);
#135=EDGE_CURVE('',#180,#178,#215,.T.);
#136=EDGE_CURVE('',#181,#180,#216,.T.);
#137=EDGE_CURVE('',#181,#179,#217,.T.);
#138=EDGE_CURVE('',#180,#169,#218,.T.);
#139=EDGE_CURVE('',#181,#168,#219,.T.);
#140=EDGE_CURVE('',#171,#176,#220,.T.);
#141=EDGE_CURVE('',#173,#177,#221,.T.);
#142=EDGE_CURVE('',#182,#165,#222,.F.);
#143=EDGE_CURVE('',#183,#182,#223,.T.);
#144=EDGE_CURVE('',#163,#183,#224,.T.);
#145=EDGE_CURVE('',#183,#184,#14,.T.);
#146=EDGE_CURVE('',#184,#185,#225,.T.);
#147=EDGE_CURVE('',#186,#185,#226,.T.);
#148=EDGE_CURVE('',#187,#186,#227,.T.);
#149=EDGE_CURVE('',#188,#187,#15,.T.);
#150=EDGE_CURVE('',#162,#188,#228,.T.);
#151=EDGE_CURVE('',#189,#164,#229,.F.);
#152=EDGE_CURVE('',#190,#189,#16,.F.);
#153=EDGE_CURVE('',#190,#191,#230,.T.);
#154=EDGE_CURVE('',#191,#192,#231,.T.);
#155=EDGE_CURVE('',#193,#192,#232,.T.);
#156=EDGE_CURVE('',#193,#182,#17,.F.);
#157=EDGE_CURVE('',#188,#189,#233,.T.);
#158=EDGE_CURVE('',#187,#190,#234,.T.);
#159=EDGE_CURVE('',#184,#193,#235,.T.);
#160=EDGE_CURVE('',#185,#192,#236,.T.);
#161=EDGE_CURVE('',#186,#191,#237,.T.);
#162=VERTEX_POINT('',#489);
#163=VERTEX_POINT('',#490);
#164=VERTEX_POINT('',#492);
#165=VERTEX_POINT('',#494);
#166=VERTEX_POINT('',#496);
#167=VERTEX_POINT('',#498);
#168=VERTEX_POINT('',#500);
#169=VERTEX_POINT('',#502);
#170=VERTEX_POINT('',#506);
#171=VERTEX_POINT('',#507);
#172=VERTEX_POINT('',#509);
#173=VERTEX_POINT('',#511);
#174=VERTEX_POINT('',#515);
#175=VERTEX_POINT('',#517);
#176=VERTEX_POINT('',#521);
#177=VERTEX_POINT('',#523);
#178=VERTEX_POINT('',#527);
#179=VERTEX_POINT('',#529);
#180=VERTEX_POINT('',#533);
#181=VERTEX_POINT('',#535);
#182=VERTEX_POINT('',#546);
#183=VERTEX_POINT('',#548);
#184=VERTEX_POINT('',#553);
#185=VERTEX_POINT('',#555);
#186=VERTEX_POINT('',#557);
#187=VERTEX_POINT('',#559);
#188=VERTEX_POINT('',#561);
#189=VERTEX_POINT('',#565);
#190=VERTEX_POINT('',#567);
#191=VERTEX_POINT('',#569);
#192=VERTEX_POINT('',#571);
#193=VERTEX_POINT('',#573);
#194=LINE('',#488,#238);
#195=LINE('',#491,#239);
#196=LINE('',#493,#240);
#197=LINE('',#495,#241);
#198=LINE('',#497,#242);
#199=LINE('',#499,#243);
#200=LINE('',#501,#244);
#201=LINE('',#503,#245);
#202=LINE('',#505,#246);
#203=LINE('',#508,#247);
#204=LINE('',#510,#248);
#205=LINE('',#512,#249);
#206=LINE('',#514,#250);
#207=LINE('',#516,#251);
#208=LINE('',#518,#252);
#209=LINE('',#520,#253);
#210=LINE('',#522,#254);
#211=LINE('',#524,#255);
#212=LINE('',#526,#256);
#213=LINE('',#528,#257);
#214=LINE('',#530,#258);
#215=LINE('',#532,#259);
#216=LINE('',#534,#260);
#217=LINE('',#536,#261);
#218=LINE('',#538,#262);
#219=LINE('',#539,#263);
#220=LINE('',#541,#264);
#221=LINE('',#542,#265);
#222=LINE('',#545,#266);
#223=LINE('',#547,#267);
#224=LINE('',#549,#268);
#225=LINE('',#554,#269);
#226=LINE('',#556,#270);
#227=LINE('',#558,#271);
#228=LINE('',#562,#272);
#229=LINE('',#564,#273);
#230=LINE('',#568,#274);
#231=LINE('',#570,#275);
#232=LINE('',#572,#276);
#233=LINE('',#576,#277);
#234=LINE('',#578,#278);
#235=LINE('',#580,#279);
#236=LINE('',#582,#280);
#237=LINE('',#583,#281);
#238=VECTOR('',#398,1.);
#239=VECTOR('',#399,1.);
#240=VECTOR('',#400,1.);
#241=VECTOR('',#401,1.);
#242=VECTOR('',#402,1.);
#243=VECTOR('',#403,1.);
#244=VECTOR('',#404,1.);
#245=VECTOR('',#405,1.);
#246=VECTOR('',#408,1.);
#247=VECTOR('',#409,1.);
#248=VECTOR('',#410,1.);
#249=VECTOR('',#411,1.);
#250=VECTOR('',#414,1.);
#251=VECTOR('',#415,1.);
#252=VECTOR('',#416,1.);
#253=VECTOR('',#419,1.);
#254=VECTOR('',#420,1.);
#255=VECTOR('',#421,1.);
#256=VECTOR('',#424,1.);
#257=VECTOR('',#425,1.);
#258=VECTOR('',#426,1.);
#259=VECTOR('',#429,1.);
#260=VECTOR('',#430,1.);
#261=VECTOR('',#431,1.);
#262=VECTOR('',#434,1.);
#263=VECTOR('',#435,1.);
#264=VECTOR('',#438,1.);
#265=VECTOR('',#439,1.);
#266=VECTOR('',#444,1.);
#267=VECTOR('',#445,1.);
#268=VECTOR('',#446,1.);
#269=VECTOR('',#453,1.);
#270=VECTOR('',#454,1.);
#271=VECTOR('',#455,1.);
#272=VECTOR('',#458,1.);
#273=VECTOR('',#461,1.);
#274=VECTOR('',#464,1.);
#275=VECTOR('',#465,1.);
#276=VECTOR('',#466,1.);
#277=VECTOR('',#471,1.);
#278=VECTOR('',#474,1.);
#279=VECTOR('',#477,1.);
#280=VECTOR('',#480,1.);
#281=VECTOR('',#481,1.);
#282=EDGE_LOOP('',(#18,#19,#20,#21,#22,#23,#24,#25));
#283=EDGE_LOOP('',(#26,#27,#28,#29));
#284=EDGE_LOOP('',(#30,#31,#32,#33));
#285=EDGE_LOOP('',(#34,#35,#36,#37));
#286=EDGE_LOOP('',(#38,#39,#40,#41));
#287=EDGE_LOOP('',(#42,#43,#44,#45));
#288=EDGE_LOOP('',(#46,#47,#48,#49));
#289=EDGE_LOOP('',(#50,#51,#52,#53));
#290=EDGE_LOOP('',(#54,#55,#56,#57));
#291=EDGE_LOOP('',(#58,#59,#60,#61));
#292=EDGE_LOOP('',(#62,#63,#64,#65,#66,#67,#68,#69));
#293=EDGE_LOOP('',(#70,#71,#72,#73));
#294=EDGE_LOOP('',(#74,#75,#76,#77,#78,#79,#80,#81));
#295=EDGE_LOOP('',(#82,#83,#84,#85,#86,#87,#88,#89));
#296=EDGE_LOOP('',(#90,#91,#92,#93));
#297=EDGE_LOOP('',(#94,#95,#96,#97));
#298=EDGE_LOOP('',(#98,#99,#100,#101));
#299=EDGE_LOOP('',(#102,#103,#104,#105));
#300=EDGE_LOOP('',(#106,#107,#108,#109));
#301=EDGE_LOOP('',(#110,#111,#112,#113));
#302=FACE_BOUND('',#282,.T.);
#303=FACE_BOUND('',#283,.T.);
#304=FACE_BOUND('',#284,.T.);
#305=FACE_BOUND('',#285,.T.);
#306=FACE_BOUND('',#286,.T.);
#307=FACE_BOUND('',#287,.T.);
#308=FACE_BOUND('',#288,.T.);
#309=FACE_BOUND('',#289,.T.);
#310=FACE_BOUND('',#290,.T.);
#311=FACE_BOUND('',#291,.T.);
#312=FACE_BOUND('',#292,.T.);
#313=FACE_BOUND('',#293,.T.);
#314=FACE_BOUND('',#294,.T.);
#315=FACE_BOUND('',#295,.T.);
#316=FACE_BOUND('',#296,.T.);
#317=FACE_BOUND('',#297,.T.);
#318=FACE_BOUND('',#298,.T.);
#319=FACE_BOUND('',#299,.T.);
#320=FACE_BOUND('',#300,.T.);
#321=FACE_BOUND('',#301,.T.);
#322=PLANE('',#371);
#323=PLANE('',#372);
#324=PLANE('',#373);
#325=PLANE('',#374);
#326=PLANE('',#375);
#327=PLANE('',#376);
#328=PLANE('',#377);
#329=PLANE('',#378);
#330=PLANE('',#379);
#331=PLANE('',#380);
#332=PLANE('',#381);
#333=PLANE('',#382);
#334=PLANE('',#385);
#335=PLANE('',#388);
#336=PLANE('',#391);
#337=PLANE('',#392);
#338=PLANE('',#393);
#339=ADVANCED_FACE('',(#302),#322,.F.);
#340=ADVANCED_FACE('',(#303),#323,.T.);
#341=ADVANCED_FACE('',(#304),#324,.F.);
#342=ADVANCED_FACE('',(#305),#325,.F.);
#343=ADVANCED_FACE('',(#306),#326,.T.);
#344=ADVANCED_FACE('',(#307),#327,.T.);
#345=ADVANCED_FACE('',(#308),#328,.F.);
#346=ADVANCED_FACE('',(#309),#329,.T.);
#347=ADVANCED_FACE('',(#310,#311),#330,.T.);
#348=ADVANCED_FACE('',(#312),#331,.F.);
#349=ADVANCED_FACE('',(#313),#332,.T.);
#350=ADVANCED_FACE('',(#314),#333,.F.);
#351=ADVANCED_FACE('',(#315),#334,.F.);
#352=ADVANCED_FACE('',(#316),#335,.F.);
#353=ADVANCED_FACE('',(#317),#12,.T.);
#354=ADVANCED_FACE('',(#318),#13,.F.);
#355=ADVANCED_FACE('',(#319),#336,.F.);
#356=ADVANCED_FACE('',(#320),#337,.F.);
#357=ADVANCED_FACE('',(#321),#338,.T.);
#358=CLOSED_SHELL('',(#339,#340,#341,#342,#343,#344,#345,#346,#347,#348,
#349,#350,#351,#352,#353,#354,#355,#356,#357));
#359=STYLED_ITEM('',(#360),#367);
#360=PRESENTATION_STYLE_ASSIGNMENT((#361));
#361=SURFACE_STYLE_USAGE(.BOTH.,#362);
#362=SURFACE_SIDE_STYLE('',(#363));
#363=SURFACE_STYLE_FILL_AREA(#364);
#364=FILL_AREA_STYLE('',(#365));
#365=FILL_AREA_STYLE_COLOUR('',#366);
#366=COLOUR_RGB('',0.615686274509804,0.811764705882353,0.929411764705882);
#367=MANIFOLD_SOLID_BREP('Part 1',#358);
#368=SHAPE_DEFINITION_REPRESENTATION(#592,#369);
#369=SHAPE_REPRESENTATION('Part 1',(#370),#587);
#370=AXIS2_PLACEMENT_3D('',#486,#394,#395);
#371=AXIS2_PLACEMENT_3D('',#487,#396,#397);
#372=AXIS2_PLACEMENT_3D('',#504,#406,#407);
#373=AXIS2_PLACEMENT_3D('',#513,#412,#413);
#374=AXIS2_PLACEMENT_3D('',#519,#417,#418);
#375=AXIS2_PLACEMENT_3D('',#525,#422,#423);
#376=AXIS2_PLACEMENT_3D('',#531,#427,#428);
#377=AXIS2_PLACEMENT_3D('',#537,#432,#433);
#378=AXIS2_PLACEMENT_3D('',#540,#436,#437);
#379=AXIS2_PLACEMENT_3D('',#543,#440,#441);
#380=AXIS2_PLACEMENT_3D('',#544,#442,#443);
#381=AXIS2_PLACEMENT_3D('',#550,#447,#448);
#382=AXIS2_PLACEMENT_3D('',#551,#449,#450);
#383=AXIS2_PLACEMENT_3D('',#552,#451,#452);
#384=AXIS2_PLACEMENT_3D('',#560,#456,#457);
#385=AXIS2_PLACEMENT_3D('',#563,#459,#460);
#386=AXIS2_PLACEMENT_3D('',#566,#462,#463);
#387=AXIS2_PLACEMENT_3D('',#574,#467,#468);
#388=AXIS2_PLACEMENT_3D('',#575,#469,#470);
#389=AXIS2_PLACEMENT_3D('',#577,#472,#473);
#390=AXIS2_PLACEMENT_3D('',#579,#475,#476);
#391=AXIS2_PLACEMENT_3D('',#581,#478,#479);
#392=AXIS2_PLACEMENT_3D('',#584,#482,#483);
#393=AXIS2_PLACEMENT_3D('',#585,#484,#485);
#394=DIRECTION('',(0.,0.,1.));
#395=DIRECTION('',(1.,0.,0.));
#396=DIRECTION('',(0.,1.,0.));
#397=DIRECTION('',(0.,0.,1.));
#398=DIRECTION('',(0.,0.,-1.));
#399=DIRECTION('',(1.,0.,0.));
#400=DIRECTION('',(0.,0.,-1.));
#401=DIRECTION('',(1.,0.,0.));
#402=DIRECTION('',(0.,0.,-1.));
#403=DIRECTION('',(1.,0.,0.));
#404=DIRECTION('',(0.,0.,-1.));
#405=DIRECTION('',(1.,0.,0.));
#406=DIRECTION('',(0.,-1.,0.));
#407=DIRECTION('',(0.,0.,-1.));
#408=DIRECTION('',(-1.,0.,0.));
#409=DIRECTION('',(0.,0.,-1.));
#410=DIRECTION('',(-1.,0.,0.));
#411=DIRECTION('',(0.,0.,-1.));
#412=DIRECTION('',(1.,1.92747052886311E-16,0.));
#413=DIRECTION('',(-1.92747052886311E-16,1.,0.));
#414=DIRECTION('',(1.92747052886311E-16,-1.,0.));
#415=DIRECTION('',(0.,0.,-1.));
#416=DIRECTION('',(1.92747052886311E-16,-1.,0.));
#417=DIRECTION('',(0.,-1.,0.));
#418=DIRECTION('',(0.,0.,-1.));
#419=DIRECTION('',(-1.,0.,0.));
#420=DIRECTION('',(0.,0.,-1.));
#421=DIRECTION('',(-1.,0.,0.));
#422=DIRECTION('',(1.,1.85929633009304E-16,0.));
#423=DIRECTION('',(-1.85929633009304E-16,1.,0.));
#424=DIRECTION('',(1.85929633009304E-16,-1.,0.));
#425=DIRECTION('',(0.,0.,-1.));
#426=DIRECTION('',(1.85929633009304E-16,-1.,0.));
#427=DIRECTION('',(-2.18204210814693E-16,1.,0.));
#428=DIRECTION('',(-1.,-2.18204210814693E-16,0.));
#429=DIRECTION('',(1.,2.18204210814693E-16,0.));
#430=DIRECTION('',(0.,0.,-1.));
#431=DIRECTION('',(1.,2.18204210814693E-16,0.));
#432=DIRECTION('',(1.,1.85929633009304E-16,0.));
#433=DIRECTION('',(-1.85929633009304E-16,1.,0.));
#434=DIRECTION('',(1.85929633009304E-16,-1.,0.));
#435=DIRECTION('',(1.85929633009304E-16,-1.,0.));
#436=DIRECTION('',(1.,1.92747052886311E-16,0.));
#437=DIRECTION('',(-1.92747052886311E-16,1.,0.));
#438=DIRECTION('',(1.92747052886311E-16,-1.,0.));
#439=DIRECTION('',(1.92747052886311E-16,-1.,0.));
#440=DIRECTION('',(0.,0.,1.));
#441=DIRECTION('',(1.,0.,0.));
#442=DIRECTION('',(0.,0.,1.));
#443=DIRECTION('',(1.,0.,0.));
#444=DIRECTION('',(1.83697019872103E-16,-1.,0.));
#445=DIRECTION('',(1.,2.16840434497104E-16,-1.83697019872103E-16));
#446=DIRECTION('',(1.83697019872103E-16,-1.,0.));
#447=DIRECTION('',(0.,0.,1.));
#448=DIRECTION('',(1.,0.,0.));
#449=DIRECTION('',(1.,1.83697019872103E-16,0.));
#450=DIRECTION('',(-1.83697019872103E-16,1.,0.));
#451=DIRECTION('',(1.,2.16840434497104E-16,-1.83697019872103E-16));
#452=DIRECTION('',(0.,0.,1.));
#453=DIRECTION('',(-1.39897054514259E-16,1.,-6.12323399573677E-17));
#454=DIRECTION('',(1.88556899562696E-16,6.12323399573677E-17,1.));
#455=DIRECTION('',(-1.39897054514259E-16,1.,-6.12323399573677E-17));
#456=DIRECTION('',(1.,2.16840434497104E-16,-1.83697019872103E-16));
#457=DIRECTION('',(-2.16840434497104E-16,1.,0.));
#458=DIRECTION('',(1.83697019872103E-16,-1.,0.));
#459=DIRECTION('',(-1.,-1.83697019872103E-16,0.));
#460=DIRECTION('',(1.83697019872103E-16,-1.,0.));
#461=DIRECTION('',(1.83697019872103E-16,-1.,0.));
#462=DIRECTION('',(1.,2.16840434497104E-16,-1.83697019872103E-16));
#463=DIRECTION('',(-2.16840434497104E-16,1.,0.));
#464=DIRECTION('',(-1.39897054514259E-16,1.,-6.12323399573677E-17));
#465=DIRECTION('',(1.88556899562696E-16,6.12323399573677E-17,1.));
#466=DIRECTION('',(-1.39897054514259E-16,1.,-6.12323399573677E-17));
#467=DIRECTION('',(1.,2.16840434497104E-16,-1.83697019872103E-16));
#468=DIRECTION('',(-2.16840434497104E-16,1.,0.));
#469=DIRECTION('',(0.,0.,-1.));
#470=DIRECTION('',(-1.,0.,0.));
#471=DIRECTION('',(1.,2.16840434497104E-16,-1.83697019872103E-16));
#472=DIRECTION('',(1.,2.16840434497104E-16,-1.83697019872103E-16));
#473=DIRECTION('',(-2.16840434497104E-16,1.,0.));
#474=DIRECTION('',(1.,2.16840434497104E-16,-1.83697019872103E-16));
#475=DIRECTION('',(1.,2.16840434497104E-16,-1.83697019872103E-16));
#476=DIRECTION('',(-2.16840434497104E-16,1.,0.));
#477=DIRECTION('',(1.,2.16840434497104E-16,-1.83697019872103E-16));
#478=DIRECTION('',(1.15457801753303E-32,-1.,6.12323399573677E-17));
#479=DIRECTION('',(0.,-6.12323399573677E-17,-1.));
#480=DIRECTION('',(1.,3.01898744547312E-48,-1.88556899562696E-16));
#481=DIRECTION('',(1.,3.01898744547312E-48,-1.88556899562696E-16));
#482=DIRECTION('',(1.88556899562696E-16,6.12323399573677E-17,1.));
#483=DIRECTION('',(1.,-1.15457801753303E-32,-1.88556899562696E-16));
#484=DIRECTION('',(1.88556899562696E-16,6.12323399573677E-17,1.));
#485=DIRECTION('',(1.,-1.15457801753303E-32,-1.88556899562696E-16));
#486=CARTESIAN_POINT('',(0.,0.,0.));
#487=CARTESIAN_POINT('',(-0.000439999999999987,-0.02142,0.001));
#488=CARTESIAN_POINT('',(-0.00619,-0.02142,0.00025));
#489=CARTESIAN_POINT('',(-0.00619,-0.02142,0.00025));
#490=CARTESIAN_POINT('',(-0.00619,-0.02142,0.));
#491=CARTESIAN_POINT('',(-5.93452714383602E-5,-0.02142,0.00025));
#492=CARTESIAN_POINT('',(0.00531,-0.02142,0.00025));
#493=CARTESIAN_POINT('',(0.00531,-0.02142,0.00025));
#494=CARTESIAN_POINT('',(0.00531,-0.02142,0.));
#495=CARTESIAN_POINT('',(-0.000439999999999987,-0.02142,0.));
#496=CARTESIAN_POINT('',(0.0159,-0.02142,0.));
#497=CARTESIAN_POINT('',(0.0159,-0.02142,0.001));
#498=CARTESIAN_POINT('',(0.0159,-0.02142,0.001));
#499=CARTESIAN_POINT('',(-0.000439999999999987,-0.02142,0.001));
#500=CARTESIAN_POINT('',(-0.0159,-0.02142,0.001));
#501=CARTESIAN_POINT('',(-0.0159,-0.02142,0.001));
#502=CARTESIAN_POINT('',(-0.0159,-0.02142,0.));
#503=CARTESIAN_POINT('',(-0.000439999999999987,-0.02142,0.));
#504=CARTESIAN_POINT('',(-1.38777878078145E-17,0.0135,0.001));
#505=CARTESIAN_POINT('',(-1.38777878078145E-17,0.0135,0.0005));
#506=CARTESIAN_POINT('',(0.0135,0.0135,0.0005));
#507=CARTESIAN_POINT('',(-0.0135,0.0135,0.0005));
#508=CARTESIAN_POINT('',(0.0135,0.0135,0.001));
#509=CARTESIAN_POINT('',(0.0135,0.0135,0.001));
#510=CARTESIAN_POINT('',(-1.38777878078145E-17,0.0135,0.001));
#511=CARTESIAN_POINT('',(-0.0135,0.0135,0.001));
#512=CARTESIAN_POINT('',(-0.0135,0.0135,0.001));
#513=CARTESIAN_POINT('',(0.0135,1.38777878078145E-17,0.001));
#514=CARTESIAN_POINT('',(0.0135,1.38777878078145E-17,0.0005));
#515=CARTESIAN_POINT('',(0.0135,-0.0135,0.0005));
#516=CARTESIAN_POINT('',(0.0135,-0.0135,0.001));
#517=CARTESIAN_POINT('',(0.0135,-0.0135,0.001));
#518=CARTESIAN_POINT('',(0.0135,1.38777878078145E-17,0.001));
#519=CARTESIAN_POINT('',(-1.21430643318376E-17,-0.0135,0.001));
#520=CARTESIAN_POINT('',(-1.21430643318376E-17,-0.0135,0.0005));
#521=CARTESIAN_POINT('',(-0.0135,-0.0135,0.0005));
#522=CARTESIAN_POINT('',(-0.0135,-0.0135,0.001));
#523=CARTESIAN_POINT('',(-0.0135,-0.0135,0.001));
#524=CARTESIAN_POINT('',(-1.21430643318376E-17,-0.0135,0.001));
#525=CARTESIAN_POINT('',(0.0159,-0.00276,0.001));
#526=CARTESIAN_POINT('',(0.0159,-0.00276,0.));
#527=CARTESIAN_POINT('',(0.0159,0.0159,0.));
#528=CARTESIAN_POINT('',(0.0159,0.0159,0.001));
#529=CARTESIAN_POINT('',(0.0159,0.0159,0.001));
#530=CARTESIAN_POINT('',(0.0159,-0.00276,0.001));
#531=CARTESIAN_POINT('',(3.46944695195361E-18,0.0159,0.001));
#532=CARTESIAN_POINT('',(3.46944695195361E-18,0.0159,0.));
#533=CARTESIAN_POINT('',(-0.0159,0.0159,0.));
#534=CARTESIAN_POINT('',(-0.0159,0.0159,0.001));
#535=CARTESIAN_POINT('',(-0.0159,0.0159,0.001));
#536=CARTESIAN_POINT('',(3.46944695195361E-18,0.0159,0.001));
#537=CARTESIAN_POINT('',(-0.0159,-0.00276,0.001));
#538=CARTESIAN_POINT('',(-0.0159,-0.00276,0.));
#539=CARTESIAN_POINT('',(-0.0159,-0.00276,0.001));
#540=CARTESIAN_POINT('',(-0.0135,1.38777878078145E-17,0.001));
#541=CARTESIAN_POINT('',(-0.0135,1.38777878078145E-17,0.0005));
#542=CARTESIAN_POINT('',(-0.0135,1.38777878078145E-17,0.001));
#543=CARTESIAN_POINT('',(1.04083408558608E-17,-0.00476,0.001));
#544=CARTESIAN_POINT('',(1.04083408558608E-17,-0.00476,0.));
#545=CARTESIAN_POINT('',(0.00531,-0.0240666233221815,0.));
#546=CARTESIAN_POINT('',(0.00531,-0.02542,0.));
#547=CARTESIAN_POINT('',(-0.00619,-0.02542,1.0842021724855E-18));
#548=CARTESIAN_POINT('',(-0.00619,-0.02542,1.0842021724855E-18));
#549=CARTESIAN_POINT('',(-0.00619,-0.0240666233221815,0.));
#550=CARTESIAN_POINT('',(1.04083408558608E-17,-0.00476,0.0005));
#551=CARTESIAN_POINT('',(-0.00619,-0.0240666233221815,0.00025));
#552=CARTESIAN_POINT('',(-0.00619,-0.02542,-0.00130507053335354));
#553=CARTESIAN_POINT('',(-0.00619,-0.02542,-0.00261014106670709));
#554=CARTESIAN_POINT('',(-0.00619,-0.02232,-0.00261014106670709));
#555=CARTESIAN_POINT('',(-0.00619,-0.01922,-0.00261014106670709));
#556=CARTESIAN_POINT('',(-0.00619,-0.01922,-0.00286014106670708));
#557=CARTESIAN_POINT('',(-0.00619,-0.01922,-0.00286014106670708));
#558=CARTESIAN_POINT('',(-0.00619,-0.02232,-0.00286014106670708));
#559=CARTESIAN_POINT('',(-0.00619,-0.02542,-0.00286014106670708));
#560=CARTESIAN_POINT('',(-0.00619,-0.02542,-0.00130507053335354));
#561=CARTESIAN_POINT('',(-0.00619,-0.02542,0.00025));
#562=CARTESIAN_POINT('',(-0.00619,-0.0240666233221815,0.00025));
#563=CARTESIAN_POINT('',(0.00531,-0.0240666233221815,0.00025));
#564=CARTESIAN_POINT('',(0.00531,-0.0240666233221815,0.00025));
#565=CARTESIAN_POINT('',(0.00531,-0.02542,0.00025));
#566=CARTESIAN_POINT('',(0.00531,-0.02542,-0.00130507053335354));
#567=CARTESIAN_POINT('',(0.00531,-0.02542,-0.00286014106670708));
#568=CARTESIAN_POINT('',(0.00531,-0.02232,-0.00286014106670708));
#569=CARTESIAN_POINT('',(0.00531,-0.01922,-0.00286014106670708));
#570=CARTESIAN_POINT('',(0.00531,-0.01922,-0.00286014106670708));
#571=CARTESIAN_POINT('',(0.00531,-0.01922,-0.00261014106670709));
#572=CARTESIAN_POINT('',(0.00531,-0.02232,-0.00261014106670709));
#573=CARTESIAN_POINT('',(0.00531,-0.02542,-0.00261014106670709));
#574=CARTESIAN_POINT('',(0.00531,-0.02542,-0.00130507053335354));
#575=CARTESIAN_POINT('',(0.002435,-0.02242,0.00025));
#576=CARTESIAN_POINT('',(-0.00619,-0.02542,0.00025));
#577=CARTESIAN_POINT('',(-0.00619,-0.02542,-0.00130507053335354));
#578=CARTESIAN_POINT('',(-0.00619,-0.02542,-0.00286014106670708));
#579=CARTESIAN_POINT('',(-0.00619,-0.02542,-0.00130507053335354));
#580=CARTESIAN_POINT('',(-0.00619,-0.02542,-0.00261014106670709));
#581=CARTESIAN_POINT('',(-0.000439999999999989,-0.01922,-0.00286014106670708));
#582=CARTESIAN_POINT('',(-0.000439999999999989,-0.01922,-0.00261014106670709));
#583=CARTESIAN_POINT('',(-0.000439999999999989,-0.01922,-0.00286014106670708));
#584=CARTESIAN_POINT('',(-0.000439999999999989,-0.02232,-0.00286014106670708));
#585=CARTESIAN_POINT('',(-0.000439999999999989,-0.02232,-0.00261014106670709));
#586=MECHANICAL_DESIGN_GEOMETRIC_PRESENTATION_REPRESENTATION('',(#359),
#587);
#587=(
GEOMETRIC_REPRESENTATION_CONTEXT(3)
GLOBAL_UNCERTAINTY_ASSIGNED_CONTEXT((#588))
GLOBAL_UNIT_ASSIGNED_CONTEXT((#591,#590,#589))
REPRESENTATION_CONTEXT('Part 1','TOP_LEVEL_ASSEMBLY_PART')
);
#588=UNCERTAINTY_MEASURE_WITH_UNIT(LENGTH_MEASURE(1.E-8),#591,
'DISTANCE_ACCURACY_VALUE','Maximum Tolerance applied to model');
#589=(
NAMED_UNIT(*)
SI_UNIT($,.STERADIAN.)
SOLID_ANGLE_UNIT()
);
#590=(
NAMED_UNIT(*)
PLANE_ANGLE_UNIT()
SI_UNIT($,.RADIAN.)
);
#591=(
LENGTH_UNIT()
NAMED_UNIT(*)
SI_UNIT($,.METRE.)
);
#592=PRODUCT_DEFINITION_SHAPE('','',#593);
#593=PRODUCT_DEFINITION('','',#595,#594);
#594=PRODUCT_DEFINITION_CONTEXT('',#601,'design');
#595=PRODUCT_DEFINITION_FORMATION_WITH_SPECIFIED_SOURCE('','',#597,
 .NOT_KNOWN.);
#596=PRODUCT_RELATED_PRODUCT_CATEGORY('','',(#597));
#597=PRODUCT('Part 1','Part 1','Part 1',(#599));
#598=PRODUCT_CATEGORY('','');
#599=PRODUCT_CONTEXT('',#601,'mechanical');
#600=APPLICATION_PROTOCOL_DEFINITION('international standard',
'ap242_managed_model_based_3d_engineering',2020,#601);
#601=APPLICATION_CONTEXT('managed model based 3d engineering');
ENDSEC;
END-ISO-10303-21;
